<?xml version="1.0" encoding="utf-8" standalone="no"?>
<!DOCTYPE svg PUBLIC "-//W3C//DTD SVG 1.1//EN"
  "http://www.w3.org/Graphics/SVG/1.1/DTD/svg11.dtd">
<svg xmlns:xlink="http://www.w3.org/1999/xlink" width="778.452304pt" height="359.217354pt" viewBox="0 0 778.452304 359.217354" xmlns="http://www.w3.org/2000/svg" version="1.1">
 <metadata>
  <rdf:RDF xmlns:dc="http://purl.org/dc/elements/1.1/" xmlns:cc="http://creativecommons.org/ns#" xmlns:rdf="http://www.w3.org/1999/02/22-rdf-syntax-ns#">
   <cc:Work>
    <dc:type rdf:resource="http://purl.org/dc/dcmitype/StillImage"/>
    <dc:date>2026-03-11T10:08:35.307700</dc:date>
    <dc:format>image/svg+xml</dc:format>
    <dc:creator>
     <cc:Agent>
      <dc:title>Matplotlib v3.10.8, https://matplotlib.org/</dc:title>
     </cc:Agent>
    </dc:creator>
   </cc:Work>
  </rdf:RDF>
 </metadata>
 <defs>
  <style type="text/css">*{stroke-linejoin: round; stroke-linecap: butt}</style>
 </defs>
 <g id="figure_1">
  <g id="patch_1">
   <path d="M 0 359.217354 
L 778.452304 359.217354 
L 778.452304 -0 
L 0 -0 
z
" style="fill: #ffffff"/>
  </g>
  <g id="axes_1">
   <g id="patch_2">
    <path d="M 76.454544 294.103985 
L 380.652304 294.103985 
L 380.652304 67.26675 
L 76.454544 67.26675 
z
" style="fill: #ffffff"/>
   </g>
   <g id="matplotlib.axis_1">
    <g id="xtick_1">
     <g id="line2d_1">
      <path d="M 151.735808 294.103985 
L 151.735808 67.26675 
" clip-path="url(#p9fe3cdde7f)" style="fill: none; stroke: #cccccc; stroke-opacity: 0.25; stroke-linecap: round"/>
     </g>
     <g id="text_1">
      <!-- Round-robin single-record -->
      <g style="fill: #262626" transform="translate(9.363282 349.656571) rotate(-15) scale(0.11 -0.11)">
       <defs>
        <path id="DejaVuSerif-52" d="M 3066 2316 
Q 3284 2256 3442 2114 
Q 3600 1972 3725 1716 
L 4403 331 
L 4972 331 
L 4972 0 
L 3872 0 
L 3144 1484 
Q 2934 1916 2759 2042 
Q 2584 2169 2278 2169 
L 1581 2169 
L 1581 331 
L 2241 331 
L 2241 0 
L 353 0 
L 353 331 
L 947 331 
L 947 4331 
L 353 4331 
L 353 4666 
L 2719 4666 
Q 3400 4666 3770 4341 
Q 4141 4016 4141 3419 
Q 4141 2938 3870 2661 
Q 3600 2384 3066 2316 
z
M 1581 2503 
L 2503 2503 
Q 2975 2503 3200 2726 
Q 3425 2950 3425 3419 
Q 3425 3888 3200 4109 
Q 2975 4331 2503 4331 
L 1581 4331 
L 1581 2503 
z
" transform="scale(0.015625)"/>
        <path id="DejaVuSerif-6f" d="M 1925 219 
Q 2388 219 2623 584 
Q 2859 950 2859 1663 
Q 2859 2375 2623 2739 
Q 2388 3103 1925 3103 
Q 1463 3103 1227 2739 
Q 991 2375 991 1663 
Q 991 950 1228 584 
Q 1466 219 1925 219 
z
M 1925 -91 
Q 1200 -91 759 389 
Q 319 869 319 1663 
Q 319 2456 758 2934 
Q 1197 3413 1925 3413 
Q 2653 3413 3092 2934 
Q 3531 2456 3531 1663 
Q 3531 869 3092 389 
Q 2653 -91 1925 -91 
z
" transform="scale(0.015625)"/>
        <path id="DejaVuSerif-75" d="M 2266 3322 
L 3341 3322 
L 3341 331 
L 3884 331 
L 3884 0 
L 2766 0 
L 2766 588 
Q 2606 256 2353 82 
Q 2100 -91 1766 -91 
Q 1213 -91 952 223 
Q 691 538 691 1209 
L 691 2988 
L 172 2988 
L 172 3322 
L 1269 3322 
L 1269 1388 
Q 1269 781 1417 556 
Q 1566 331 1947 331 
Q 2347 331 2556 625 
Q 2766 919 2766 1478 
L 2766 2988 
L 2266 2988 
L 2266 3322 
z
" transform="scale(0.015625)"/>
        <path id="DejaVuSerif-6e" d="M 263 0 
L 263 331 
L 781 331 
L 781 2988 
L 231 2988 
L 231 3322 
L 1356 3322 
L 1356 2731 
Q 1516 3069 1770 3241 
Q 2025 3413 2363 3413 
Q 2913 3413 3172 3097 
Q 3431 2781 3431 2113 
L 3431 331 
L 3944 331 
L 3944 0 
L 2356 0 
L 2356 331 
L 2853 331 
L 2853 1931 
Q 2853 2541 2703 2767 
Q 2553 2994 2175 2994 
Q 1775 2994 1565 2701 
Q 1356 2409 1356 1850 
L 1356 331 
L 1856 331 
L 1856 0 
L 263 0 
z
" transform="scale(0.015625)"/>
        <path id="DejaVuSerif-64" d="M 3359 331 
L 3909 331 
L 3909 0 
L 2784 0 
L 2784 519 
Q 2616 206 2355 57 
Q 2094 -91 1709 -91 
Q 1097 -91 708 395 
Q 319 881 319 1663 
Q 319 2444 706 2928 
Q 1094 3413 1709 3413 
Q 2094 3413 2355 3264 
Q 2616 3116 2784 2803 
L 2784 4531 
L 2241 4531 
L 2241 4863 
L 3359 4863 
L 3359 331 
z
M 2784 1497 
L 2784 1825 
Q 2784 2422 2554 2737 
Q 2325 3053 1888 3053 
Q 1444 3053 1217 2703 
Q 991 2353 991 1663 
Q 991 975 1217 622 
Q 1444 269 1888 269 
Q 2325 269 2554 583 
Q 2784 897 2784 1497 
z
" transform="scale(0.015625)"/>
        <path id="DejaVuSerif-2d" d="M 281 1959 
L 1881 1959 
L 1881 1472 
L 281 1472 
L 281 1959 
z
" transform="scale(0.015625)"/>
        <path id="DejaVuSerif-72" d="M 3059 3328 
L 3059 2497 
L 2728 2497 
Q 2713 2744 2591 2866 
Q 2469 2988 2234 2988 
Q 1809 2988 1582 2694 
Q 1356 2400 1356 1850 
L 1356 331 
L 2022 331 
L 2022 0 
L 263 0 
L 263 331 
L 781 331 
L 781 2994 
L 231 2994 
L 231 3322 
L 1356 3322 
L 1356 2731 
Q 1525 3078 1790 3245 
Q 2056 3413 2438 3413 
Q 2578 3413 2733 3391 
Q 2888 3369 3059 3328 
z
" transform="scale(0.015625)"/>
        <path id="DejaVuSerif-62" d="M 738 331 
L 738 4531 
L 184 4531 
L 184 4863 
L 1313 4863 
L 1313 2803 
Q 1481 3116 1742 3264 
Q 2003 3413 2388 3413 
Q 3000 3413 3387 2928 
Q 3775 2444 3775 1663 
Q 3775 881 3387 395 
Q 3000 -91 2388 -91 
Q 2003 -91 1742 57 
Q 1481 206 1313 519 
L 1313 0 
L 184 0 
L 184 331 
L 738 331 
z
M 1313 1497 
Q 1313 897 1542 583 
Q 1772 269 2209 269 
Q 2650 269 2876 622 
Q 3103 975 3103 1663 
Q 3103 2353 2876 2703 
Q 2650 3053 2209 3053 
Q 1772 3053 1542 2737 
Q 1313 2422 1313 1825 
L 1313 1497 
z
" transform="scale(0.015625)"/>
        <path id="DejaVuSerif-69" d="M 622 4353 
Q 622 4497 726 4603 
Q 831 4709 978 4709 
Q 1122 4709 1226 4603 
Q 1331 4497 1331 4353 
Q 1331 4206 1228 4103 
Q 1125 4000 978 4000 
Q 831 4000 726 4103 
Q 622 4206 622 4353 
z
M 1356 331 
L 1900 331 
L 1900 0 
L 231 0 
L 231 331 
L 781 331 
L 781 2988 
L 231 2988 
L 231 3322 
L 1356 3322 
L 1356 331 
z
" transform="scale(0.015625)"/>
        <path id="DejaVuSerif-20" transform="scale(0.015625)"/>
        <path id="DejaVuSerif-73" d="M 359 184 
L 359 959 
L 691 959 
Q 703 588 923 403 
Q 1144 219 1575 219 
Q 1963 219 2166 364 
Q 2369 509 2369 788 
Q 2369 1006 2220 1140 
Q 2072 1275 1594 1428 
L 1178 1569 
Q 750 1706 558 1912 
Q 366 2119 366 2438 
Q 366 2894 700 3153 
Q 1034 3413 1625 3413 
Q 1888 3413 2178 3344 
Q 2469 3275 2778 3144 
L 2778 2419 
L 2447 2419 
Q 2434 2741 2221 2922 
Q 2009 3103 1644 3103 
Q 1281 3103 1095 2975 
Q 909 2847 909 2591 
Q 909 2381 1050 2254 
Q 1191 2128 1613 1997 
L 2069 1856 
Q 2541 1709 2748 1489 
Q 2956 1269 2956 922 
Q 2956 450 2595 179 
Q 2234 -91 1600 -91 
Q 1278 -91 972 -22 
Q 666 47 359 184 
z
" transform="scale(0.015625)"/>
        <path id="DejaVuSerif-67" d="M 3359 2988 
L 3359 72 
Q 3359 -644 2965 -1033 
Q 2572 -1422 1844 -1422 
Q 1516 -1422 1216 -1362 
Q 916 -1303 641 -1184 
L 641 -488 
L 941 -488 
Q 997 -813 1206 -963 
Q 1416 -1113 1806 -1113 
Q 2313 -1113 2548 -827 
Q 2784 -541 2784 72 
L 2784 519 
Q 2616 206 2355 57 
Q 2094 -91 1709 -91 
Q 1097 -91 708 395 
Q 319 881 319 1663 
Q 319 2444 706 2928 
Q 1094 3413 1709 3413 
Q 2094 3413 2355 3264 
Q 2616 3116 2784 2803 
L 2784 3322 
L 3909 3322 
L 3909 2988 
L 3359 2988 
z
M 2784 1825 
Q 2784 2422 2554 2737 
Q 2325 3053 1888 3053 
Q 1444 3053 1217 2703 
Q 991 2353 991 1663 
Q 991 975 1217 622 
Q 1444 269 1888 269 
Q 2325 269 2554 583 
Q 2784 897 2784 1497 
L 2784 1825 
z
" transform="scale(0.015625)"/>
        <path id="DejaVuSerif-6c" d="M 1313 331 
L 1856 331 
L 1856 0 
L 184 0 
L 184 331 
L 738 331 
L 738 4531 
L 184 4531 
L 184 4863 
L 1313 4863 
L 1313 331 
z
" transform="scale(0.015625)"/>
        <path id="DejaVuSerif-65" d="M 3469 1600 
L 991 1600 
L 991 1575 
Q 991 903 1244 561 
Q 1497 219 1991 219 
Q 2369 219 2611 417 
Q 2853 616 2950 1006 
L 3413 1006 
Q 3275 459 2904 184 
Q 2534 -91 1931 -91 
Q 1203 -91 761 389 
Q 319 869 319 1663 
Q 319 2450 753 2931 
Q 1188 3413 1894 3413 
Q 2647 3413 3050 2948 
Q 3453 2484 3469 1600 
z
M 2791 1931 
Q 2772 2513 2545 2808 
Q 2319 3103 1894 3103 
Q 1497 3103 1269 2806 
Q 1041 2509 991 1931 
L 2791 1931 
z
" transform="scale(0.015625)"/>
        <path id="DejaVuSerif-63" d="M 3291 997 
Q 3169 466 2822 187 
Q 2475 -91 1925 -91 
Q 1200 -91 759 389 
Q 319 869 319 1663 
Q 319 2459 759 2936 
Q 1200 3413 1925 3413 
Q 2241 3413 2553 3339 
Q 2866 3266 3181 3116 
L 3181 2266 
L 2847 2266 
Q 2781 2703 2561 2903 
Q 2341 3103 1931 3103 
Q 1466 3103 1228 2742 
Q 991 2381 991 1663 
Q 991 944 1227 581 
Q 1463 219 1931 219 
Q 2303 219 2525 412 
Q 2747 606 2828 997 
L 3291 997 
z
" transform="scale(0.015625)"/>
       </defs>
       <use xlink:href="#DejaVuSerif-52"/>
       <use xlink:href="#DejaVuSerif-6f" transform="translate(75.292969 0)"/>
       <use xlink:href="#DejaVuSerif-75" transform="translate(135.498047 0)"/>
       <use xlink:href="#DejaVuSerif-6e" transform="translate(199.902344 0)"/>
       <use xlink:href="#DejaVuSerif-64" transform="translate(264.306641 0)"/>
       <use xlink:href="#DejaVuSerif-2d" transform="translate(328.320312 0)"/>
       <use xlink:href="#DejaVuSerif-72" transform="translate(362.109375 0)"/>
       <use xlink:href="#DejaVuSerif-6f" transform="translate(409.912109 0)"/>
       <use xlink:href="#DejaVuSerif-62" transform="translate(470.117188 0)"/>
       <use xlink:href="#DejaVuSerif-69" transform="translate(534.130859 0)"/>
       <use xlink:href="#DejaVuSerif-6e" transform="translate(566.113281 0)"/>
       <use xlink:href="#DejaVuSerif-20" transform="translate(630.517578 0)"/>
       <use xlink:href="#DejaVuSerif-73" transform="translate(662.304688 0)"/>
       <use xlink:href="#DejaVuSerif-69" transform="translate(713.623047 0)"/>
       <use xlink:href="#DejaVuSerif-6e" transform="translate(745.605469 0)"/>
       <use xlink:href="#DejaVuSerif-67" transform="translate(810.009766 0)"/>
       <use xlink:href="#DejaVuSerif-6c" transform="translate(874.023438 0)"/>
       <use xlink:href="#DejaVuSerif-65" transform="translate(906.005859 0)"/>
       <use xlink:href="#DejaVuSerif-2d" transform="translate(965.185547 0)"/>
       <use xlink:href="#DejaVuSerif-72" transform="translate(998.974609 0)"/>
       <use xlink:href="#DejaVuSerif-65" transform="translate(1046.777344 0)"/>
       <use xlink:href="#DejaVuSerif-63" transform="translate(1105.957031 0)"/>
       <use xlink:href="#DejaVuSerif-6f" transform="translate(1161.962891 0)"/>
       <use xlink:href="#DejaVuSerif-72" transform="translate(1222.167969 0)"/>
       <use xlink:href="#DejaVuSerif-64" transform="translate(1269.970703 0)"/>
      </g>
     </g>
    </g>
    <g id="xtick_2">
     <g id="line2d_2">
      <path d="M 305.37104 294.103985 
L 305.37104 67.26675 
" clip-path="url(#p9fe3cdde7f)" style="fill: none; stroke: #cccccc; stroke-opacity: 0.25; stroke-linecap: round"/>
     </g>
     <g id="text_2">
      <!-- Round-robin batch -->
      <g style="fill: #262626" transform="translate(204.206603 338.625744) rotate(-15) scale(0.11 -0.11)">
       <defs>
        <path id="DejaVuSerif-61" d="M 2547 1044 
L 2547 1747 
L 1806 1747 
Q 1378 1747 1168 1562 
Q 959 1378 959 997 
Q 959 650 1171 447 
Q 1384 244 1747 244 
Q 2106 244 2326 466 
Q 2547 688 2547 1044 
z
M 3122 2075 
L 3122 331 
L 3634 331 
L 3634 0 
L 2547 0 
L 2547 359 
Q 2356 128 2106 18 
Q 1856 -91 1522 -91 
Q 969 -91 644 203 
Q 319 497 319 997 
Q 319 1513 691 1797 
Q 1063 2081 1741 2081 
L 2547 2081 
L 2547 2309 
Q 2547 2688 2317 2895 
Q 2088 3103 1672 3103 
Q 1328 3103 1125 2947 
Q 922 2791 872 2484 
L 575 2484 
L 575 3156 
Q 875 3284 1158 3348 
Q 1441 3413 1709 3413 
Q 2400 3413 2761 3070 
Q 3122 2728 3122 2075 
z
" transform="scale(0.015625)"/>
        <path id="DejaVuSerif-74" d="M 691 2988 
L 184 2988 
L 184 3322 
L 691 3322 
L 691 4353 
L 1269 4353 
L 1269 3322 
L 2350 3322 
L 2350 2988 
L 1269 2988 
L 1269 878 
Q 1269 456 1350 337 
Q 1431 219 1650 219 
Q 1875 219 1978 351 
Q 2081 484 2088 781 
L 2522 781 
Q 2497 328 2275 118 
Q 2053 -91 1600 -91 
Q 1103 -91 897 129 
Q 691 350 691 878 
L 691 2988 
z
" transform="scale(0.015625)"/>
        <path id="DejaVuSerif-68" d="M 263 0 
L 263 331 
L 781 331 
L 781 4531 
L 231 4531 
L 231 4863 
L 1356 4863 
L 1356 2731 
Q 1516 3069 1770 3241 
Q 2025 3413 2363 3413 
Q 2913 3413 3172 3097 
Q 3431 2781 3431 2113 
L 3431 331 
L 3944 331 
L 3944 0 
L 2356 0 
L 2356 331 
L 2853 331 
L 2853 1931 
Q 2853 2541 2704 2764 
Q 2556 2988 2175 2988 
Q 1775 2988 1565 2697 
Q 1356 2406 1356 1850 
L 1356 331 
L 1856 331 
L 1856 0 
L 263 0 
z
" transform="scale(0.015625)"/>
       </defs>
       <use xlink:href="#DejaVuSerif-52"/>
       <use xlink:href="#DejaVuSerif-6f" transform="translate(75.292969 0)"/>
       <use xlink:href="#DejaVuSerif-75" transform="translate(135.498047 0)"/>
       <use xlink:href="#DejaVuSerif-6e" transform="translate(199.902344 0)"/>
       <use xlink:href="#DejaVuSerif-64" transform="translate(264.306641 0)"/>
       <use xlink:href="#DejaVuSerif-2d" transform="translate(328.320312 0)"/>
       <use xlink:href="#DejaVuSerif-72" transform="translate(362.109375 0)"/>
       <use xlink:href="#DejaVuSerif-6f" transform="translate(409.912109 0)"/>
       <use xlink:href="#DejaVuSerif-62" transform="translate(470.117188 0)"/>
       <use xlink:href="#DejaVuSerif-69" transform="translate(534.130859 0)"/>
       <use xlink:href="#DejaVuSerif-6e" transform="translate(566.113281 0)"/>
       <use xlink:href="#DejaVuSerif-20" transform="translate(630.517578 0)"/>
       <use xlink:href="#DejaVuSerif-62" transform="translate(662.304688 0)"/>
       <use xlink:href="#DejaVuSerif-61" transform="translate(726.318359 0)"/>
       <use xlink:href="#DejaVuSerif-74" transform="translate(785.9375 0)"/>
       <use xlink:href="#DejaVuSerif-63" transform="translate(826.123047 0)"/>
       <use xlink:href="#DejaVuSerif-68" transform="translate(882.128906 0)"/>
      </g>
     </g>
    </g>
   </g>
   <g id="matplotlib.axis_2">
    <g id="ytick_1">
     <g id="line2d_3">
      <path d="M 76.454544 294.103985 
L 380.652304 294.103985 
" clip-path="url(#p9fe3cdde7f)" style="fill: none; stroke: #cccccc; stroke-opacity: 0.25; stroke-linecap: round"/>
     </g>
     <g id="text_3">
      <!-- 0.0 -->
      <g style="fill: #262626" transform="translate(49.461107 298.283125) scale(0.11 -0.11)">
       <defs>
        <path id="DejaVuSerif-30" d="M 2034 219 
Q 2513 219 2750 744 
Q 2988 1269 2988 2328 
Q 2988 3391 2750 3916 
Q 2513 4441 2034 4441 
Q 1556 4441 1318 3916 
Q 1081 3391 1081 2328 
Q 1081 1269 1318 744 
Q 1556 219 2034 219 
z
M 2034 -91 
Q 1275 -91 848 546 
Q 422 1184 422 2328 
Q 422 3475 848 4112 
Q 1275 4750 2034 4750 
Q 2797 4750 3222 4112 
Q 3647 3475 3647 2328 
Q 3647 1184 3222 546 
Q 2797 -91 2034 -91 
z
" transform="scale(0.015625)"/>
        <path id="DejaVuSerif-2e" d="M 603 325 
Q 603 500 722 622 
Q 841 744 1019 744 
Q 1191 744 1312 622 
Q 1434 500 1434 325 
Q 1434 153 1312 31 
Q 1191 -91 1019 -91 
Q 841 -91 722 29 
Q 603 150 603 325 
z
" transform="scale(0.015625)"/>
       </defs>
       <use xlink:href="#DejaVuSerif-30"/>
       <use xlink:href="#DejaVuSerif-2e" transform="translate(63.623047 0)"/>
       <use xlink:href="#DejaVuSerif-30" transform="translate(95.410156 0)"/>
      </g>
     </g>
    </g>
    <g id="ytick_2">
     <g id="line2d_4">
      <path d="M 76.454544 268.634219 
L 380.652304 268.634219 
" clip-path="url(#p9fe3cdde7f)" style="fill: none; stroke: #cccccc; stroke-opacity: 0.25; stroke-linecap: round"/>
     </g>
     <g id="text_4">
      <!-- 0.5 -->
      <g style="fill: #262626" transform="translate(49.461107 272.81336) scale(0.11 -0.11)">
       <defs>
        <path id="DejaVuSerif-35" d="M 3219 4666 
L 3219 4153 
L 1081 4153 
L 1081 2816 
Q 1244 2928 1461 2984 
Q 1678 3041 1947 3041 
Q 2703 3041 3140 2622 
Q 3578 2203 3578 1478 
Q 3578 738 3136 323 
Q 2694 -91 1894 -91 
Q 1572 -91 1234 -12 
Q 897 66 544 225 
L 544 1131 
L 897 1131 
Q 925 688 1179 453 
Q 1434 219 1894 219 
Q 2388 219 2653 544 
Q 2919 869 2919 1478 
Q 2919 2084 2655 2407 
Q 2391 2731 1894 2731 
Q 1613 2731 1398 2631 
Q 1184 2531 1019 2322 
L 750 2322 
L 750 4666 
L 3219 4666 
z
" transform="scale(0.015625)"/>
       </defs>
       <use xlink:href="#DejaVuSerif-30"/>
       <use xlink:href="#DejaVuSerif-2e" transform="translate(63.623047 0)"/>
       <use xlink:href="#DejaVuSerif-35" transform="translate(95.410156 0)"/>
      </g>
     </g>
    </g>
    <g id="ytick_3">
     <g id="line2d_5">
      <path d="M 76.454544 243.164453 
L 380.652304 243.164453 
" clip-path="url(#p9fe3cdde7f)" style="fill: none; stroke: #cccccc; stroke-opacity: 0.25; stroke-linecap: round"/>
     </g>
     <g id="text_5">
      <!-- 1.0 -->
      <g style="fill: #262626" transform="translate(49.461107 247.343594) scale(0.11 -0.11)">
       <defs>
        <path id="DejaVuSerif-31" d="M 909 0 
L 909 331 
L 1722 331 
L 1722 4213 
L 781 3603 
L 781 4013 
L 1919 4750 
L 2350 4750 
L 2350 331 
L 3163 331 
L 3163 0 
L 909 0 
z
" transform="scale(0.015625)"/>
       </defs>
       <use xlink:href="#DejaVuSerif-31"/>
       <use xlink:href="#DejaVuSerif-2e" transform="translate(63.623047 0)"/>
       <use xlink:href="#DejaVuSerif-30" transform="translate(95.410156 0)"/>
      </g>
     </g>
    </g>
    <g id="ytick_4">
     <g id="line2d_6">
      <path d="M 76.454544 217.694687 
L 380.652304 217.694687 
" clip-path="url(#p9fe3cdde7f)" style="fill: none; stroke: #cccccc; stroke-opacity: 0.25; stroke-linecap: round"/>
     </g>
     <g id="text_6">
      <!-- 1.5 -->
      <g style="fill: #262626" transform="translate(49.461107 221.873828) scale(0.11 -0.11)">
       <use xlink:href="#DejaVuSerif-31"/>
       <use xlink:href="#DejaVuSerif-2e" transform="translate(63.623047 0)"/>
       <use xlink:href="#DejaVuSerif-35" transform="translate(95.410156 0)"/>
      </g>
     </g>
    </g>
    <g id="ytick_5">
     <g id="line2d_7">
      <path d="M 76.454544 192.224922 
L 380.652304 192.224922 
" clip-path="url(#p9fe3cdde7f)" style="fill: none; stroke: #cccccc; stroke-opacity: 0.25; stroke-linecap: round"/>
     </g>
     <g id="text_7">
      <!-- 2.0 -->
      <g style="fill: #262626" transform="translate(49.461107 196.404062) scale(0.11 -0.11)">
       <defs>
        <path id="DejaVuSerif-32" d="M 819 3553 
L 469 3553 
L 469 4384 
Q 803 4563 1142 4656 
Q 1481 4750 1806 4750 
Q 2534 4750 2956 4397 
Q 3378 4044 3378 3438 
Q 3378 2753 2422 1800 
Q 2347 1728 2309 1691 
L 1131 513 
L 3078 513 
L 3078 1088 
L 3444 1088 
L 3444 0 
L 434 0 
L 434 341 
L 1850 1753 
Q 2319 2222 2519 2614 
Q 2719 3006 2719 3438 
Q 2719 3909 2473 4175 
Q 2228 4441 1797 4441 
Q 1350 4441 1106 4219 
Q 863 3997 819 3553 
z
" transform="scale(0.015625)"/>
       </defs>
       <use xlink:href="#DejaVuSerif-32"/>
       <use xlink:href="#DejaVuSerif-2e" transform="translate(63.623047 0)"/>
       <use xlink:href="#DejaVuSerif-30" transform="translate(95.410156 0)"/>
      </g>
     </g>
    </g>
    <g id="ytick_6">
     <g id="line2d_8">
      <path d="M 76.454544 166.755156 
L 380.652304 166.755156 
" clip-path="url(#p9fe3cdde7f)" style="fill: none; stroke: #cccccc; stroke-opacity: 0.25; stroke-linecap: round"/>
     </g>
     <g id="text_8">
      <!-- 2.5 -->
      <g style="fill: #262626" transform="translate(49.461107 170.934296) scale(0.11 -0.11)">
       <use xlink:href="#DejaVuSerif-32"/>
       <use xlink:href="#DejaVuSerif-2e" transform="translate(63.623047 0)"/>
       <use xlink:href="#DejaVuSerif-35" transform="translate(95.410156 0)"/>
      </g>
     </g>
    </g>
    <g id="ytick_7">
     <g id="line2d_9">
      <path d="M 76.454544 141.28539 
L 380.652304 141.28539 
" clip-path="url(#p9fe3cdde7f)" style="fill: none; stroke: #cccccc; stroke-opacity: 0.25; stroke-linecap: round"/>
     </g>
     <g id="text_9">
      <!-- 3.0 -->
      <g style="fill: #262626" transform="translate(49.461107 145.464531) scale(0.11 -0.11)">
       <defs>
        <path id="DejaVuSerif-33" d="M 622 4469 
Q 988 4606 1323 4678 
Q 1659 4750 1953 4750 
Q 2638 4750 3022 4454 
Q 3406 4159 3406 3634 
Q 3406 3213 3140 2930 
Q 2875 2647 2388 2547 
Q 2963 2466 3280 2130 
Q 3597 1794 3597 1259 
Q 3597 606 3158 257 
Q 2719 -91 1894 -91 
Q 1528 -91 1179 -12 
Q 831 66 488 225 
L 488 1131 
L 838 1131 
Q 869 681 1141 450 
Q 1413 219 1906 219 
Q 2384 219 2661 495 
Q 2938 772 2938 1253 
Q 2938 1803 2653 2086 
Q 2369 2369 1819 2369 
L 1522 2369 
L 1522 2688 
L 1678 2688 
Q 2225 2688 2498 2914 
Q 2772 3141 2772 3597 
Q 2772 4006 2547 4223 
Q 2322 4441 1900 4441 
Q 1478 4441 1245 4241 
Q 1013 4041 972 3647 
L 622 3647 
L 622 4469 
z
" transform="scale(0.015625)"/>
       </defs>
       <use xlink:href="#DejaVuSerif-33"/>
       <use xlink:href="#DejaVuSerif-2e" transform="translate(63.623047 0)"/>
       <use xlink:href="#DejaVuSerif-30" transform="translate(95.410156 0)"/>
      </g>
     </g>
    </g>
    <g id="ytick_8">
     <g id="line2d_10">
      <path d="M 76.454544 115.815624 
L 380.652304 115.815624 
" clip-path="url(#p9fe3cdde7f)" style="fill: none; stroke: #cccccc; stroke-opacity: 0.25; stroke-linecap: round"/>
     </g>
     <g id="text_10">
      <!-- 3.5 -->
      <g style="fill: #262626" transform="translate(49.461107 119.994765) scale(0.11 -0.11)">
       <use xlink:href="#DejaVuSerif-33"/>
       <use xlink:href="#DejaVuSerif-2e" transform="translate(63.623047 0)"/>
       <use xlink:href="#DejaVuSerif-35" transform="translate(95.410156 0)"/>
      </g>
     </g>
    </g>
    <g id="ytick_9">
     <g id="line2d_11">
      <path d="M 76.454544 90.345858 
L 380.652304 90.345858 
" clip-path="url(#p9fe3cdde7f)" style="fill: none; stroke: #cccccc; stroke-opacity: 0.25; stroke-linecap: round"/>
     </g>
     <g id="text_11">
      <!-- 4.0 -->
      <g style="fill: #262626" transform="translate(49.461107 94.524999) scale(0.11 -0.11)">
       <defs>
        <path id="DejaVuSerif-34" d="M 2234 1581 
L 2234 4063 
L 641 1581 
L 2234 1581 
z
M 3609 0 
L 1484 0 
L 1484 331 
L 2234 331 
L 2234 1247 
L 197 1247 
L 197 1588 
L 2241 4750 
L 2859 4750 
L 2859 1581 
L 3750 1581 
L 3750 1247 
L 2859 1247 
L 2859 331 
L 3609 331 
L 3609 0 
z
" transform="scale(0.015625)"/>
       </defs>
       <use xlink:href="#DejaVuSerif-34"/>
       <use xlink:href="#DejaVuSerif-2e" transform="translate(63.623047 0)"/>
       <use xlink:href="#DejaVuSerif-30" transform="translate(95.410156 0)"/>
      </g>
     </g>
    </g>
    <g id="text_12">
     <!-- Total latency (ms) -->
     <g style="fill: #262626" transform="translate(43.017044 230.547164) rotate(-90) scale(0.11 -0.11)">
      <defs>
       <path id="DejaVuSerif-54" d="M 1222 0 
L 1222 331 
L 1819 331 
L 1819 4294 
L 447 4294 
L 447 3566 
L 63 3566 
L 63 4666 
L 4206 4666 
L 4206 3566 
L 3822 3566 
L 3822 4294 
L 2450 4294 
L 2450 331 
L 3047 331 
L 3047 0 
L 1222 0 
z
" transform="scale(0.015625)"/>
       <path id="DejaVuSerif-79" d="M 1381 -609 
L 1600 -56 
L 359 2988 
L -19 2988 
L -19 3322 
L 1509 3322 
L 1509 2988 
L 978 2988 
L 1913 703 
L 2847 2988 
L 2350 2988 
L 2350 3322 
L 3597 3322 
L 3597 2988 
L 3225 2988 
L 1703 -750 
Q 1547 -1138 1356 -1280 
Q 1166 -1422 819 -1422 
Q 672 -1422 517 -1397 
Q 363 -1372 206 -1325 
L 206 -691 
L 500 -691 
Q 519 -903 608 -995 
Q 697 -1088 884 -1088 
Q 1056 -1088 1161 -992 
Q 1266 -897 1381 -609 
z
" transform="scale(0.015625)"/>
       <path id="DejaVuSerif-28" d="M 2041 -997 
Q 1281 -656 893 83 
Q 506 822 506 1931 
Q 506 3044 893 3783 
Q 1281 4522 2041 4863 
L 2041 4556 
Q 1559 4225 1350 3623 
Q 1141 3022 1141 1931 
Q 1141 844 1350 242 
Q 1559 -359 2041 -691 
L 2041 -997 
z
" transform="scale(0.015625)"/>
       <path id="DejaVuSerif-6d" d="M 3316 2675 
Q 3481 3041 3739 3227 
Q 3997 3413 4341 3413 
Q 4863 3413 5119 3089 
Q 5375 2766 5375 2113 
L 5375 331 
L 5894 331 
L 5894 0 
L 4300 0 
L 4300 331 
L 4800 331 
L 4800 2047 
Q 4800 2556 4650 2772 
Q 4500 2988 4153 2988 
Q 3769 2988 3567 2697 
Q 3366 2406 3366 1850 
L 3366 331 
L 3866 331 
L 3866 0 
L 2291 0 
L 2291 331 
L 2791 331 
L 2791 2069 
Q 2791 2566 2641 2777 
Q 2491 2988 2144 2988 
Q 1759 2988 1557 2697 
Q 1356 2406 1356 1850 
L 1356 331 
L 1856 331 
L 1856 0 
L 263 0 
L 263 331 
L 781 331 
L 781 2994 
L 231 2994 
L 231 3322 
L 1356 3322 
L 1356 2731 
Q 1516 3063 1762 3238 
Q 2009 3413 2322 3413 
Q 2709 3413 2968 3220 
Q 3228 3028 3316 2675 
z
" transform="scale(0.015625)"/>
       <path id="DejaVuSerif-29" d="M 453 -997 
L 453 -691 
Q 934 -359 1145 242 
Q 1356 844 1356 1931 
Q 1356 3022 1145 3623 
Q 934 4225 453 4556 
L 453 4863 
Q 1216 4522 1603 3783 
Q 1991 3044 1991 1931 
Q 1991 822 1603 83 
Q 1216 -656 453 -997 
z
" transform="scale(0.015625)"/>
      </defs>
      <use xlink:href="#DejaVuSerif-54"/>
      <use xlink:href="#DejaVuSerif-6f" transform="translate(58.949219 0)"/>
      <use xlink:href="#DejaVuSerif-74" transform="translate(119.154297 0)"/>
      <use xlink:href="#DejaVuSerif-61" transform="translate(159.339844 0)"/>
      <use xlink:href="#DejaVuSerif-6c" transform="translate(218.958984 0)"/>
      <use xlink:href="#DejaVuSerif-20" transform="translate(250.941406 0)"/>
      <use xlink:href="#DejaVuSerif-6c" transform="translate(282.728516 0)"/>
      <use xlink:href="#DejaVuSerif-61" transform="translate(314.710938 0)"/>
      <use xlink:href="#DejaVuSerif-74" transform="translate(374.330078 0)"/>
      <use xlink:href="#DejaVuSerif-65" transform="translate(414.515625 0)"/>
      <use xlink:href="#DejaVuSerif-6e" transform="translate(473.695312 0)"/>
      <use xlink:href="#DejaVuSerif-63" transform="translate(538.099609 0)"/>
      <use xlink:href="#DejaVuSerif-79" transform="translate(594.105469 0)"/>
      <use xlink:href="#DejaVuSerif-20" transform="translate(650.599609 0)"/>
      <use xlink:href="#DejaVuSerif-28" transform="translate(682.386719 0)"/>
      <use xlink:href="#DejaVuSerif-6d" transform="translate(721.400391 0)"/>
      <use xlink:href="#DejaVuSerif-73" transform="translate(816.224609 0)"/>
      <use xlink:href="#DejaVuSerif-29" transform="translate(867.542969 0)"/>
     </g>
    </g>
   </g>
   <g id="patch_3">
    <path d="M 90.281715 294.103985 
L 213.189901 294.103985 
L 213.189901 159.635916 
L 90.281715 159.635916 
z
" clip-path="url(#p9fe3cdde7f)" style="fill: #264653; stroke: #ffffff; stroke-linejoin: miter"/>
   </g>
   <g id="patch_4">
    <path d="M 243.916947 294.103985 
L 366.825133 294.103985 
L 366.825133 79.107761 
L 243.916947 79.107761 
z
" clip-path="url(#p9fe3cdde7f)" style="fill: #6c757d; stroke: #ffffff; stroke-linejoin: miter"/>
   </g>
   <g id="LineCollection_1">
    <path d="M 151.735808 160.106871 
L 151.735808 159.164961 
" clip-path="url(#p9fe3cdde7f)" style="fill: none; stroke: #1a1a1a; stroke-width: 1.5"/>
    <path d="M 305.37104 80.147 
L 305.37104 78.068523 
" clip-path="url(#p9fe3cdde7f)" style="fill: none; stroke: #1a1a1a; stroke-width: 1.5"/>
   </g>
   <g id="line2d_12">
    <defs>
     <path id="m40df55c8b8" d="M 4 0 
L -4 -0 
" style="stroke: #1a1a1a"/>
    </defs>
    <g clip-path="url(#p9fe3cdde7f)">
     <use xlink:href="#m40df55c8b8" x="151.735808" y="160.106871" style="fill: #4c72b0; stroke: #1a1a1a"/>
     <use xlink:href="#m40df55c8b8" x="305.37104" y="80.147" style="fill: #4c72b0; stroke: #1a1a1a"/>
    </g>
   </g>
   <g id="line2d_13">
    <g clip-path="url(#p9fe3cdde7f)">
     <use xlink:href="#m40df55c8b8" x="151.735808" y="159.164961" style="fill: #4c72b0; stroke: #1a1a1a"/>
     <use xlink:href="#m40df55c8b8" x="305.37104" y="78.068523" style="fill: #4c72b0; stroke: #1a1a1a"/>
    </g>
   </g>
   <g id="patch_5">
    <path d="M 76.454544 294.103985 
L 76.454544 67.26675 
" style="fill: none; stroke: #cccccc; stroke-width: 0.9; stroke-linejoin: miter; stroke-linecap: square"/>
   </g>
   <g id="patch_6">
    <path d="M 380.652304 294.103985 
L 380.652304 67.26675 
" style="fill: none; stroke: #cccccc; stroke-width: 0.9; stroke-linejoin: miter; stroke-linecap: square"/>
   </g>
   <g id="patch_7">
    <path d="M 76.454544 294.103985 
L 380.652304 294.103985 
" style="fill: none; stroke: #cccccc; stroke-width: 0.9; stroke-linejoin: miter; stroke-linecap: square"/>
   </g>
   <g id="patch_8">
    <path d="M 76.454544 67.26675 
L 380.652304 67.26675 
" style="fill: none; stroke: #cccccc; stroke-width: 0.9; stroke-linejoin: miter; stroke-linecap: square"/>
   </g>
   <g id="text_13">
    <!-- Cross-package workload latency -->
    <g style="fill: #262626" transform="translate(129.825299 61.26675) scale(0.12 -0.12)">
     <defs>
      <path id="DejaVuSerif-43" d="M 4513 1234 
Q 4306 581 3820 245 
Q 3334 -91 2591 -91 
Q 2134 -91 1743 65 
Q 1353 222 1050 525 
Q 700 875 529 1320 
Q 359 1766 359 2328 
Q 359 3416 987 4083 
Q 1616 4750 2644 4750 
Q 3025 4750 3456 4650 
Q 3888 4550 4384 4347 
L 4384 3272 
L 4031 3272 
Q 3916 3859 3567 4137 
Q 3219 4416 2591 4416 
Q 1844 4416 1459 3886 
Q 1075 3356 1075 2328 
Q 1075 1303 1459 773 
Q 1844 244 2591 244 
Q 3113 244 3450 492 
Q 3788 741 3938 1234 
L 4513 1234 
z
" transform="scale(0.015625)"/>
      <path id="DejaVuSerif-70" d="M 1313 1825 
L 1313 1497 
Q 1313 897 1542 583 
Q 1772 269 2209 269 
Q 2650 269 2876 622 
Q 3103 975 3103 1663 
Q 3103 2353 2876 2703 
Q 2650 3053 2209 3053 
Q 1772 3053 1542 2737 
Q 1313 2422 1313 1825 
z
M 738 2988 
L 184 2988 
L 184 3322 
L 1313 3322 
L 1313 2803 
Q 1481 3116 1742 3264 
Q 2003 3413 2388 3413 
Q 3000 3413 3387 2928 
Q 3775 2444 3775 1663 
Q 3775 881 3387 395 
Q 3000 -91 2388 -91 
Q 2003 -91 1742 57 
Q 1481 206 1313 519 
L 1313 -997 
L 1856 -997 
L 1856 -1331 
L 184 -1331 
L 184 -997 
L 738 -997 
L 738 2988 
z
" transform="scale(0.015625)"/>
      <path id="DejaVuSerif-6b" d="M 1831 0 
L 219 0 
L 219 331 
L 738 331 
L 738 4531 
L 184 4531 
L 184 4863 
L 1313 4863 
L 1313 1697 
L 2713 2988 
L 2234 2988 
L 2234 3322 
L 3738 3322 
L 3738 2988 
L 3169 2988 
L 2181 2075 
L 3444 331 
L 3922 331 
L 3922 0 
L 2284 0 
L 2284 331 
L 2759 331 
L 1766 1697 
L 1313 1275 
L 1313 331 
L 1831 331 
L 1831 0 
z
" transform="scale(0.015625)"/>
      <path id="DejaVuSerif-77" d="M 3072 3322 
L 3922 728 
L 4672 2988 
L 4191 2988 
L 4191 3322 
L 5394 3322 
L 5394 2988 
L 5025 2988 
L 4038 0 
L 3559 0 
L 2741 2484 
L 1919 0 
L 1459 0 
L 475 2988 
L 103 2988 
L 103 3322 
L 1606 3322 
L 1606 2988 
L 1069 2988 
L 1813 728 
L 2669 3322 
L 3072 3322 
z
" transform="scale(0.015625)"/>
     </defs>
     <use xlink:href="#DejaVuSerif-43"/>
     <use xlink:href="#DejaVuSerif-72" transform="translate(76.513672 0)"/>
     <use xlink:href="#DejaVuSerif-6f" transform="translate(124.316406 0)"/>
     <use xlink:href="#DejaVuSerif-73" transform="translate(184.521484 0)"/>
     <use xlink:href="#DejaVuSerif-73" transform="translate(235.839844 0)"/>
     <use xlink:href="#DejaVuSerif-2d" transform="translate(287.158203 0)"/>
     <use xlink:href="#DejaVuSerif-70" transform="translate(320.947266 0)"/>
     <use xlink:href="#DejaVuSerif-61" transform="translate(384.960938 0)"/>
     <use xlink:href="#DejaVuSerif-63" transform="translate(444.580078 0)"/>
     <use xlink:href="#DejaVuSerif-6b" transform="translate(500.585938 0)"/>
     <use xlink:href="#DejaVuSerif-61" transform="translate(561.181641 0)"/>
     <use xlink:href="#DejaVuSerif-67" transform="translate(620.800781 0)"/>
     <use xlink:href="#DejaVuSerif-65" transform="translate(684.814453 0)"/>
     <use xlink:href="#DejaVuSerif-20" transform="translate(743.994141 0)"/>
     <use xlink:href="#DejaVuSerif-77" transform="translate(775.78125 0)"/>
     <use xlink:href="#DejaVuSerif-6f" transform="translate(861.376953 0)"/>
     <use xlink:href="#DejaVuSerif-72" transform="translate(921.582031 0)"/>
     <use xlink:href="#DejaVuSerif-6b" transform="translate(969.384766 0)"/>
     <use xlink:href="#DejaVuSerif-6c" transform="translate(1029.980469 0)"/>
     <use xlink:href="#DejaVuSerif-6f" transform="translate(1061.962891 0)"/>
     <use xlink:href="#DejaVuSerif-61" transform="translate(1122.167969 0)"/>
     <use xlink:href="#DejaVuSerif-64" transform="translate(1181.787109 0)"/>
     <use xlink:href="#DejaVuSerif-20" transform="translate(1245.800781 0)"/>
     <use xlink:href="#DejaVuSerif-6c" transform="translate(1277.587891 0)"/>
     <use xlink:href="#DejaVuSerif-61" transform="translate(1309.570312 0)"/>
     <use xlink:href="#DejaVuSerif-74" transform="translate(1369.189453 0)"/>
     <use xlink:href="#DejaVuSerif-65" transform="translate(1409.375 0)"/>
     <use xlink:href="#DejaVuSerif-6e" transform="translate(1468.554688 0)"/>
     <use xlink:href="#DejaVuSerif-63" transform="translate(1532.958984 0)"/>
     <use xlink:href="#DejaVuSerif-79" transform="translate(1588.964844 0)"/>
    </g>
   </g>
  </g>
  <g id="axes_2">
   <g id="patch_9">
    <path d="M 467.054544 294.103985 
L 771.252304 294.103985 
L 771.252304 67.26675 
L 467.054544 67.26675 
z
" style="fill: #ffffff"/>
   </g>
   <g id="matplotlib.axis_3">
    <g id="xtick_3">
     <g id="line2d_14">
      <path d="M 542.335808 294.103985 
L 542.335808 67.26675 
" clip-path="url(#p7b22e72ea2)" style="fill: none; stroke: #cccccc; stroke-opacity: 0.25; stroke-linecap: round"/>
     </g>
     <g id="text_14">
      <!-- Round-robin single-record -->
      <g style="fill: #262626" transform="translate(399.963282 349.656571) rotate(-15) scale(0.11 -0.11)">
       <use xlink:href="#DejaVuSerif-52"/>
       <use xlink:href="#DejaVuSerif-6f" transform="translate(75.292969 0)"/>
       <use xlink:href="#DejaVuSerif-75" transform="translate(135.498047 0)"/>
       <use xlink:href="#DejaVuSerif-6e" transform="translate(199.902344 0)"/>
       <use xlink:href="#DejaVuSerif-64" transform="translate(264.306641 0)"/>
       <use xlink:href="#DejaVuSerif-2d" transform="translate(328.320312 0)"/>
       <use xlink:href="#DejaVuSerif-72" transform="translate(362.109375 0)"/>
       <use xlink:href="#DejaVuSerif-6f" transform="translate(409.912109 0)"/>
       <use xlink:href="#DejaVuSerif-62" transform="translate(470.117188 0)"/>
       <use xlink:href="#DejaVuSerif-69" transform="translate(534.130859 0)"/>
       <use xlink:href="#DejaVuSerif-6e" transform="translate(566.113281 0)"/>
       <use xlink:href="#DejaVuSerif-20" transform="translate(630.517578 0)"/>
       <use xlink:href="#DejaVuSerif-73" transform="translate(662.304688 0)"/>
       <use xlink:href="#DejaVuSerif-69" transform="translate(713.623047 0)"/>
       <use xlink:href="#DejaVuSerif-6e" transform="translate(745.605469 0)"/>
       <use xlink:href="#DejaVuSerif-67" transform="translate(810.009766 0)"/>
       <use xlink:href="#DejaVuSerif-6c" transform="translate(874.023438 0)"/>
       <use xlink:href="#DejaVuSerif-65" transform="translate(906.005859 0)"/>
       <use xlink:href="#DejaVuSerif-2d" transform="translate(965.185547 0)"/>
       <use xlink:href="#DejaVuSerif-72" transform="translate(998.974609 0)"/>
       <use xlink:href="#DejaVuSerif-65" transform="translate(1046.777344 0)"/>
       <use xlink:href="#DejaVuSerif-63" transform="translate(1105.957031 0)"/>
       <use xlink:href="#DejaVuSerif-6f" transform="translate(1161.962891 0)"/>
       <use xlink:href="#DejaVuSerif-72" transform="translate(1222.167969 0)"/>
       <use xlink:href="#DejaVuSerif-64" transform="translate(1269.970703 0)"/>
      </g>
     </g>
    </g>
    <g id="xtick_4">
     <g id="line2d_15">
      <path d="M 695.97104 294.103985 
L 695.97104 67.26675 
" clip-path="url(#p7b22e72ea2)" style="fill: none; stroke: #cccccc; stroke-opacity: 0.25; stroke-linecap: round"/>
     </g>
     <g id="text_15">
      <!-- Round-robin batch -->
      <g style="fill: #262626" transform="translate(594.806603 338.625744) rotate(-15) scale(0.11 -0.11)">
       <use xlink:href="#DejaVuSerif-52"/>
       <use xlink:href="#DejaVuSerif-6f" transform="translate(75.292969 0)"/>
       <use xlink:href="#DejaVuSerif-75" transform="translate(135.498047 0)"/>
       <use xlink:href="#DejaVuSerif-6e" transform="translate(199.902344 0)"/>
       <use xlink:href="#DejaVuSerif-64" transform="translate(264.306641 0)"/>
       <use xlink:href="#DejaVuSerif-2d" transform="translate(328.320312 0)"/>
       <use xlink:href="#DejaVuSerif-72" transform="translate(362.109375 0)"/>
       <use xlink:href="#DejaVuSerif-6f" transform="translate(409.912109 0)"/>
       <use xlink:href="#DejaVuSerif-62" transform="translate(470.117188 0)"/>
       <use xlink:href="#DejaVuSerif-69" transform="translate(534.130859 0)"/>
       <use xlink:href="#DejaVuSerif-6e" transform="translate(566.113281 0)"/>
       <use xlink:href="#DejaVuSerif-20" transform="translate(630.517578 0)"/>
       <use xlink:href="#DejaVuSerif-62" transform="translate(662.304688 0)"/>
       <use xlink:href="#DejaVuSerif-61" transform="translate(726.318359 0)"/>
       <use xlink:href="#DejaVuSerif-74" transform="translate(785.9375 0)"/>
       <use xlink:href="#DejaVuSerif-63" transform="translate(826.123047 0)"/>
       <use xlink:href="#DejaVuSerif-68" transform="translate(882.128906 0)"/>
      </g>
     </g>
    </g>
   </g>
   <g id="matplotlib.axis_4">
    <g id="ytick_10">
     <g id="line2d_16">
      <path d="M 467.054544 294.103985 
L 771.252304 294.103985 
" clip-path="url(#p7b22e72ea2)" style="fill: none; stroke: #cccccc; stroke-opacity: 0.25; stroke-linecap: round"/>
     </g>
     <g id="text_16">
      <!-- 0 -->
      <g style="fill: #262626" transform="translate(450.555794 298.283125) scale(0.11 -0.11)">
       <use xlink:href="#DejaVuSerif-30"/>
      </g>
     </g>
    </g>
    <g id="ytick_11">
     <g id="line2d_17">
      <path d="M 467.054544 261.482598 
L 771.252304 261.482598 
" clip-path="url(#p7b22e72ea2)" style="fill: none; stroke: #cccccc; stroke-opacity: 0.25; stroke-linecap: round"/>
     </g>
     <g id="text_17">
      <!-- 100 -->
      <g style="fill: #262626" transform="translate(436.558294 265.661739) scale(0.11 -0.11)">
       <use xlink:href="#DejaVuSerif-31"/>
       <use xlink:href="#DejaVuSerif-30" transform="translate(63.623047 0)"/>
       <use xlink:href="#DejaVuSerif-30" transform="translate(127.246094 0)"/>
      </g>
     </g>
    </g>
    <g id="ytick_12">
     <g id="line2d_18">
      <path d="M 467.054544 228.861211 
L 771.252304 228.861211 
" clip-path="url(#p7b22e72ea2)" style="fill: none; stroke: #cccccc; stroke-opacity: 0.25; stroke-linecap: round"/>
     </g>
     <g id="text_18">
      <!-- 200 -->
      <g style="fill: #262626" transform="translate(436.558294 233.040352) scale(0.11 -0.11)">
       <use xlink:href="#DejaVuSerif-32"/>
       <use xlink:href="#DejaVuSerif-30" transform="translate(63.623047 0)"/>
       <use xlink:href="#DejaVuSerif-30" transform="translate(127.246094 0)"/>
      </g>
     </g>
    </g>
    <g id="ytick_13">
     <g id="line2d_19">
      <path d="M 467.054544 196.239825 
L 771.252304 196.239825 
" clip-path="url(#p7b22e72ea2)" style="fill: none; stroke: #cccccc; stroke-opacity: 0.25; stroke-linecap: round"/>
     </g>
     <g id="text_19">
      <!-- 300 -->
      <g style="fill: #262626" transform="translate(436.558294 200.418965) scale(0.11 -0.11)">
       <use xlink:href="#DejaVuSerif-33"/>
       <use xlink:href="#DejaVuSerif-30" transform="translate(63.623047 0)"/>
       <use xlink:href="#DejaVuSerif-30" transform="translate(127.246094 0)"/>
      </g>
     </g>
    </g>
    <g id="ytick_14">
     <g id="line2d_20">
      <path d="M 467.054544 163.618438 
L 771.252304 163.618438 
" clip-path="url(#p7b22e72ea2)" style="fill: none; stroke: #cccccc; stroke-opacity: 0.25; stroke-linecap: round"/>
     </g>
     <g id="text_20">
      <!-- 400 -->
      <g style="fill: #262626" transform="translate(436.558294 167.797578) scale(0.11 -0.11)">
       <use xlink:href="#DejaVuSerif-34"/>
       <use xlink:href="#DejaVuSerif-30" transform="translate(63.623047 0)"/>
       <use xlink:href="#DejaVuSerif-30" transform="translate(127.246094 0)"/>
      </g>
     </g>
    </g>
    <g id="ytick_15">
     <g id="line2d_21">
      <path d="M 467.054544 130.997051 
L 771.252304 130.997051 
" clip-path="url(#p7b22e72ea2)" style="fill: none; stroke: #cccccc; stroke-opacity: 0.25; stroke-linecap: round"/>
     </g>
     <g id="text_21">
      <!-- 500 -->
      <g style="fill: #262626" transform="translate(436.558294 135.176192) scale(0.11 -0.11)">
       <use xlink:href="#DejaVuSerif-35"/>
       <use xlink:href="#DejaVuSerif-30" transform="translate(63.623047 0)"/>
       <use xlink:href="#DejaVuSerif-30" transform="translate(127.246094 0)"/>
      </g>
     </g>
    </g>
    <g id="ytick_16">
     <g id="line2d_22">
      <path d="M 467.054544 98.375664 
L 771.252304 98.375664 
" clip-path="url(#p7b22e72ea2)" style="fill: none; stroke: #cccccc; stroke-opacity: 0.25; stroke-linecap: round"/>
     </g>
     <g id="text_22">
      <!-- 600 -->
      <g style="fill: #262626" transform="translate(436.558294 102.554805) scale(0.11 -0.11)">
       <defs>
        <path id="DejaVuSerif-36" d="M 2094 219 
Q 2534 219 2771 542 
Q 3009 866 3009 1472 
Q 3009 2078 2771 2401 
Q 2534 2725 2094 2725 
Q 1647 2725 1412 2412 
Q 1178 2100 1178 1509 
Q 1178 888 1415 553 
Q 1653 219 2094 219 
z
M 1075 2569 
Q 1288 2803 1556 2918 
Q 1825 3034 2163 3034 
Q 2859 3034 3264 2615 
Q 3669 2197 3669 1472 
Q 3669 763 3233 336 
Q 2797 -91 2069 -91 
Q 1278 -91 853 498 
Q 428 1088 428 2181 
Q 428 3406 931 4078 
Q 1434 4750 2350 4750 
Q 2597 4750 2869 4703 
Q 3141 4656 3425 4563 
L 3425 3794 
L 3072 3794 
Q 3034 4109 2831 4275 
Q 2628 4441 2284 4441 
Q 1678 4441 1381 3981 
Q 1084 3522 1075 2569 
z
" transform="scale(0.015625)"/>
       </defs>
       <use xlink:href="#DejaVuSerif-36"/>
       <use xlink:href="#DejaVuSerif-30" transform="translate(63.623047 0)"/>
       <use xlink:href="#DejaVuSerif-30" transform="translate(127.246094 0)"/>
      </g>
     </g>
    </g>
    <g id="text_23">
     <!-- Latency per admission (us) -->
     <g style="fill: #262626" transform="translate(430.114232 256.149664) rotate(-90) scale(0.11 -0.11)">
      <defs>
       <path id="DejaVuSerif-4c" d="M 353 0 
L 353 331 
L 947 331 
L 947 4331 
L 353 4331 
L 353 4666 
L 2175 4666 
L 2175 4331 
L 1581 4331 
L 1581 384 
L 3713 384 
L 3713 1166 
L 4097 1166 
L 4097 0 
L 353 0 
z
" transform="scale(0.015625)"/>
      </defs>
      <use xlink:href="#DejaVuSerif-4c"/>
      <use xlink:href="#DejaVuSerif-61" transform="translate(66.40625 0)"/>
      <use xlink:href="#DejaVuSerif-74" transform="translate(126.025391 0)"/>
      <use xlink:href="#DejaVuSerif-65" transform="translate(166.210938 0)"/>
      <use xlink:href="#DejaVuSerif-6e" transform="translate(225.390625 0)"/>
      <use xlink:href="#DejaVuSerif-63" transform="translate(289.794922 0)"/>
      <use xlink:href="#DejaVuSerif-79" transform="translate(345.800781 0)"/>
      <use xlink:href="#DejaVuSerif-20" transform="translate(402.294922 0)"/>
      <use xlink:href="#DejaVuSerif-70" transform="translate(434.082031 0)"/>
      <use xlink:href="#DejaVuSerif-65" transform="translate(498.095703 0)"/>
      <use xlink:href="#DejaVuSerif-72" transform="translate(557.275391 0)"/>
      <use xlink:href="#DejaVuSerif-20" transform="translate(605.078125 0)"/>
      <use xlink:href="#DejaVuSerif-61" transform="translate(636.865234 0)"/>
      <use xlink:href="#DejaVuSerif-64" transform="translate(696.484375 0)"/>
      <use xlink:href="#DejaVuSerif-6d" transform="translate(760.498047 0)"/>
      <use xlink:href="#DejaVuSerif-69" transform="translate(855.322266 0)"/>
      <use xlink:href="#DejaVuSerif-73" transform="translate(887.304688 0)"/>
      <use xlink:href="#DejaVuSerif-73" transform="translate(938.623047 0)"/>
      <use xlink:href="#DejaVuSerif-69" transform="translate(989.941406 0)"/>
      <use xlink:href="#DejaVuSerif-6f" transform="translate(1021.923828 0)"/>
      <use xlink:href="#DejaVuSerif-6e" transform="translate(1082.128906 0)"/>
      <use xlink:href="#DejaVuSerif-20" transform="translate(1146.533203 0)"/>
      <use xlink:href="#DejaVuSerif-28" transform="translate(1178.320312 0)"/>
      <use xlink:href="#DejaVuSerif-75" transform="translate(1217.333984 0)"/>
      <use xlink:href="#DejaVuSerif-73" transform="translate(1281.738281 0)"/>
      <use xlink:href="#DejaVuSerif-29" transform="translate(1333.056641 0)"/>
     </g>
    </g>
   </g>
   <g id="patch_10">
    <path d="M 480.881715 294.103985 
L 603.789901 294.103985 
L 603.789901 78.822516 
L 480.881715 78.822516 
z
" clip-path="url(#p7b22e72ea2)" style="fill: #264653; stroke: #ffffff; stroke-linejoin: miter"/>
   </g>
   <g id="patch_11">
    <path d="M 634.516947 294.103985 
L 757.425133 294.103985 
L 757.425133 156.421624 
L 634.516947 156.421624 
z
" clip-path="url(#p7b22e72ea2)" style="fill: #6c757d; stroke: #ffffff; stroke-linejoin: miter"/>
   </g>
   <g id="LineCollection_2">
    <path d="M 542.335808 79.576508 
L 542.335808 78.068523 
" clip-path="url(#p7b22e72ea2)" style="fill: none; stroke: #1a1a1a; stroke-width: 1.5"/>
    <path d="M 695.97104 157.087147 
L 695.97104 155.756102 
" clip-path="url(#p7b22e72ea2)" style="fill: none; stroke: #1a1a1a; stroke-width: 1.5"/>
   </g>
   <g id="line2d_23">
    <g clip-path="url(#p7b22e72ea2)">
     <use xlink:href="#m40df55c8b8" x="542.335808" y="79.576508" style="fill: #4c72b0; stroke: #1a1a1a"/>
     <use xlink:href="#m40df55c8b8" x="695.97104" y="157.087147" style="fill: #4c72b0; stroke: #1a1a1a"/>
    </g>
   </g>
   <g id="line2d_24">
    <g clip-path="url(#p7b22e72ea2)">
     <use xlink:href="#m40df55c8b8" x="542.335808" y="78.068523" style="fill: #4c72b0; stroke: #1a1a1a"/>
     <use xlink:href="#m40df55c8b8" x="695.97104" y="155.756102" style="fill: #4c72b0; stroke: #1a1a1a"/>
    </g>
   </g>
   <g id="patch_12">
    <path d="M 467.054544 294.103985 
L 467.054544 67.26675 
" style="fill: none; stroke: #cccccc; stroke-width: 0.9; stroke-linejoin: miter; stroke-linecap: square"/>
   </g>
   <g id="patch_13">
    <path d="M 771.252304 294.103985 
L 771.252304 67.26675 
" style="fill: none; stroke: #cccccc; stroke-width: 0.9; stroke-linejoin: miter; stroke-linecap: square"/>
   </g>
   <g id="patch_14">
    <path d="M 467.054544 294.103985 
L 771.252304 294.103985 
" style="fill: none; stroke: #cccccc; stroke-width: 0.9; stroke-linejoin: miter; stroke-linecap: square"/>
   </g>
   <g id="patch_15">
    <path d="M 467.054544 67.26675 
L 771.252304 67.26675 
" style="fill: none; stroke: #cccccc; stroke-width: 0.9; stroke-linejoin: miter; stroke-linecap: square"/>
   </g>
   <g id="text_24">
    <!-- Normalized latency per admission -->
    <g style="fill: #262626" transform="translate(515.130299 61.26675) scale(0.12 -0.12)">
     <defs>
      <path id="DejaVuSerif-4e" d="M 313 0 
L 313 331 
L 941 331 
L 941 4331 
L 313 4331 
L 313 4666 
L 1509 4666 
L 4306 984 
L 4306 4331 
L 3681 4331 
L 3681 4666 
L 5319 4666 
L 5319 4331 
L 4691 4331 
L 4691 -91 
L 4313 -91 
L 1325 3841 
L 1325 331 
L 1953 331 
L 1953 0 
L 313 0 
z
" transform="scale(0.015625)"/>
      <path id="DejaVuSerif-7a" d="M 256 0 
L 256 269 
L 2338 2988 
L 691 2988 
L 691 2413 
L 359 2413 
L 359 3322 
L 3078 3322 
L 3078 3053 
L 997 331 
L 2803 331 
L 2803 934 
L 3138 934 
L 3138 0 
L 256 0 
z
" transform="scale(0.015625)"/>
     </defs>
     <use xlink:href="#DejaVuSerif-4e"/>
     <use xlink:href="#DejaVuSerif-6f" transform="translate(87.5 0)"/>
     <use xlink:href="#DejaVuSerif-72" transform="translate(147.705078 0)"/>
     <use xlink:href="#DejaVuSerif-6d" transform="translate(195.507812 0)"/>
     <use xlink:href="#DejaVuSerif-61" transform="translate(290.332031 0)"/>
     <use xlink:href="#DejaVuSerif-6c" transform="translate(349.951172 0)"/>
     <use xlink:href="#DejaVuSerif-69" transform="translate(381.933594 0)"/>
     <use xlink:href="#DejaVuSerif-7a" transform="translate(413.916016 0)"/>
     <use xlink:href="#DejaVuSerif-65" transform="translate(466.601562 0)"/>
     <use xlink:href="#DejaVuSerif-64" transform="translate(525.78125 0)"/>
     <use xlink:href="#DejaVuSerif-20" transform="translate(589.794922 0)"/>
     <use xlink:href="#DejaVuSerif-6c" transform="translate(621.582031 0)"/>
     <use xlink:href="#DejaVuSerif-61" transform="translate(653.564453 0)"/>
     <use xlink:href="#DejaVuSerif-74" transform="translate(713.183594 0)"/>
     <use xlink:href="#DejaVuSerif-65" transform="translate(753.369141 0)"/>
     <use xlink:href="#DejaVuSerif-6e" transform="translate(812.548828 0)"/>
     <use xlink:href="#DejaVuSerif-63" transform="translate(876.953125 0)"/>
     <use xlink:href="#DejaVuSerif-79" transform="translate(932.958984 0)"/>
     <use xlink:href="#DejaVuSerif-20" transform="translate(989.453125 0)"/>
     <use xlink:href="#DejaVuSerif-70" transform="translate(1021.240234 0)"/>
     <use xlink:href="#DejaVuSerif-65" transform="translate(1085.253906 0)"/>
     <use xlink:href="#DejaVuSerif-72" transform="translate(1144.433594 0)"/>
     <use xlink:href="#DejaVuSerif-20" transform="translate(1192.236328 0)"/>
     <use xlink:href="#DejaVuSerif-61" transform="translate(1224.023438 0)"/>
     <use xlink:href="#DejaVuSerif-64" transform="translate(1283.642578 0)"/>
     <use xlink:href="#DejaVuSerif-6d" transform="translate(1347.65625 0)"/>
     <use xlink:href="#DejaVuSerif-69" transform="translate(1442.480469 0)"/>
     <use xlink:href="#DejaVuSerif-73" transform="translate(1474.462891 0)"/>
     <use xlink:href="#DejaVuSerif-73" transform="translate(1525.78125 0)"/>
     <use xlink:href="#DejaVuSerif-69" transform="translate(1577.099609 0)"/>
     <use xlink:href="#DejaVuSerif-6f" transform="translate(1609.082031 0)"/>
     <use xlink:href="#DejaVuSerif-6e" transform="translate(1669.287109 0)"/>
    </g>
   </g>
  </g>
  <g id="text_25">
   <!-- Figure package C: cross-package round-robin workloads with 95% confidence intervals -->
   <g style="fill: #262626" transform="translate(97.208554 17.077969) scale(0.13 -0.13)">
    <defs>
     <path id="DejaVuSerif-46" d="M 353 0 
L 353 331 
L 947 331 
L 947 4331 
L 353 4331 
L 353 4666 
L 4172 4666 
L 4172 3628 
L 3788 3628 
L 3788 4281 
L 1581 4281 
L 1581 2719 
L 3175 2719 
L 3175 3303 
L 3559 3303 
L 3559 1753 
L 3175 1753 
L 3175 2338 
L 1581 2338 
L 1581 331 
L 2328 331 
L 2328 0 
L 353 0 
z
" transform="scale(0.015625)"/>
     <path id="DejaVuSerif-3a" d="M 666 325 
Q 666 500 786 622 
Q 906 744 1081 744 
Q 1256 744 1376 622 
Q 1497 500 1497 325 
Q 1497 150 1378 29 
Q 1259 -91 1081 -91 
Q 903 -91 784 29 
Q 666 150 666 325 
z
M 666 2363 
Q 666 2538 786 2658 
Q 906 2778 1081 2778 
Q 1259 2778 1378 2659 
Q 1497 2541 1497 2363 
Q 1497 2184 1378 2065 
Q 1259 1947 1081 1947 
Q 906 1947 786 2067 
Q 666 2188 666 2363 
z
" transform="scale(0.015625)"/>
     <path id="DejaVuSerif-39" d="M 2994 2091 
Q 2784 1856 2512 1740 
Q 2241 1625 1900 1625 
Q 1206 1625 804 2044 
Q 403 2463 403 3188 
Q 403 3897 839 4323 
Q 1275 4750 2003 4750 
Q 2794 4750 3217 4161 
Q 3641 3572 3641 2478 
Q 3641 1253 3137 581 
Q 2634 -91 1722 -91 
Q 1475 -91 1203 -44 
Q 931 3 647 97 
L 647 872 
L 997 872 
Q 1038 556 1241 387 
Q 1444 219 1784 219 
Q 2391 219 2687 676 
Q 2984 1134 2994 2091 
z
M 1978 4441 
Q 1534 4441 1298 4117 
Q 1063 3794 1063 3188 
Q 1063 2581 1298 2256 
Q 1534 1931 1978 1931 
Q 2422 1931 2658 2245 
Q 2894 2559 2894 3150 
Q 2894 3772 2656 4106 
Q 2419 4441 1978 4441 
z
" transform="scale(0.015625)"/>
     <path id="DejaVuSerif-25" d="M 1434 4459 
Q 1159 4459 1004 4200 
Q 850 3941 850 3475 
Q 850 3016 1008 2753 
Q 1166 2491 1434 2491 
Q 1700 2491 1854 2752 
Q 2009 3013 2009 3475 
Q 2009 3938 1854 4198 
Q 1700 4459 1434 4459 
z
M 4653 2169 
Q 4381 2169 4226 1906 
Q 4072 1644 4072 1178 
Q 4072 719 4228 458 
Q 4384 197 4653 197 
Q 4922 197 5075 458 
Q 5228 719 5228 1178 
Q 5228 1641 5073 1905 
Q 4919 2169 4653 2169 
z
M 4653 2450 
Q 5147 2450 5437 2106 
Q 5728 1763 5728 1178 
Q 5728 594 5436 251 
Q 5144 -91 4653 -91 
Q 4153 -91 3862 251 
Q 3572 594 3572 1178 
Q 3572 1766 3864 2108 
Q 4156 2450 4653 2450 
z
M 4263 4750 
L 4738 4750 
L 1819 -91 
L 1344 -91 
L 4263 4750 
z
M 1428 4750 
Q 1922 4750 2215 4408 
Q 2509 4066 2509 3481 
Q 2509 2891 2217 2550 
Q 1925 2209 1428 2209 
Q 931 2209 642 2551 
Q 353 2894 353 3481 
Q 353 4063 643 4406 
Q 934 4750 1428 4750 
z
" transform="scale(0.015625)"/>
     <path id="DejaVuSerif-66" d="M 2753 4078 
L 2450 4078 
Q 2447 4313 2317 4434 
Q 2188 4556 1941 4556 
Q 1619 4556 1487 4379 
Q 1356 4203 1356 3750 
L 1356 3322 
L 2284 3322 
L 2284 2988 
L 1356 2988 
L 1356 331 
L 2094 331 
L 2094 0 
L 231 0 
L 231 331 
L 781 331 
L 781 2988 
L 231 2988 
L 231 3322 
L 781 3322 
L 781 3738 
Q 781 4294 1070 4578 
Q 1359 4863 1919 4863 
Q 2128 4863 2337 4825 
Q 2547 4788 2753 4709 
L 2753 4078 
z
" transform="scale(0.015625)"/>
     <path id="DejaVuSerif-76" d="M 1581 0 
L 359 2988 
L -19 2988 
L -19 3322 
L 1509 3322 
L 1509 2988 
L 978 2988 
L 1913 703 
L 2847 2988 
L 2350 2988 
L 2350 3322 
L 3597 3322 
L 3597 2988 
L 3225 2988 
L 2003 0 
L 1581 0 
z
" transform="scale(0.015625)"/>
    </defs>
    <use xlink:href="#DejaVuSerif-46"/>
    <use xlink:href="#DejaVuSerif-69" transform="translate(69.384766 0)"/>
    <use xlink:href="#DejaVuSerif-67" transform="translate(101.367188 0)"/>
    <use xlink:href="#DejaVuSerif-75" transform="translate(165.380859 0)"/>
    <use xlink:href="#DejaVuSerif-72" transform="translate(229.785156 0)"/>
    <use xlink:href="#DejaVuSerif-65" transform="translate(277.587891 0)"/>
    <use xlink:href="#DejaVuSerif-20" transform="translate(336.767578 0)"/>
    <use xlink:href="#DejaVuSerif-70" transform="translate(368.554688 0)"/>
    <use xlink:href="#DejaVuSerif-61" transform="translate(432.568359 0)"/>
    <use xlink:href="#DejaVuSerif-63" transform="translate(492.1875 0)"/>
    <use xlink:href="#DejaVuSerif-6b" transform="translate(548.193359 0)"/>
    <use xlink:href="#DejaVuSerif-61" transform="translate(608.789062 0)"/>
    <use xlink:href="#DejaVuSerif-67" transform="translate(668.408203 0)"/>
    <use xlink:href="#DejaVuSerif-65" transform="translate(732.421875 0)"/>
    <use xlink:href="#DejaVuSerif-20" transform="translate(791.601562 0)"/>
    <use xlink:href="#DejaVuSerif-43" transform="translate(823.388672 0)"/>
    <use xlink:href="#DejaVuSerif-3a" transform="translate(899.902344 0)"/>
    <use xlink:href="#DejaVuSerif-20" transform="translate(933.59375 0)"/>
    <use xlink:href="#DejaVuSerif-63" transform="translate(965.380859 0)"/>
    <use xlink:href="#DejaVuSerif-72" transform="translate(1021.386719 0)"/>
    <use xlink:href="#DejaVuSerif-6f" transform="translate(1069.189453 0)"/>
    <use xlink:href="#DejaVuSerif-73" transform="translate(1129.394531 0)"/>
    <use xlink:href="#DejaVuSerif-73" transform="translate(1180.712891 0)"/>
    <use xlink:href="#DejaVuSerif-2d" transform="translate(1232.03125 0)"/>
    <use xlink:href="#DejaVuSerif-70" transform="translate(1265.820312 0)"/>
    <use xlink:href="#DejaVuSerif-61" transform="translate(1329.833984 0)"/>
    <use xlink:href="#DejaVuSerif-63" transform="translate(1389.453125 0)"/>
    <use xlink:href="#DejaVuSerif-6b" transform="translate(1445.458984 0)"/>
    <use xlink:href="#DejaVuSerif-61" transform="translate(1506.054688 0)"/>
    <use xlink:href="#DejaVuSerif-67" transform="translate(1565.673828 0)"/>
    <use xlink:href="#DejaVuSerif-65" transform="translate(1629.6875 0)"/>
    <use xlink:href="#DejaVuSerif-20" transform="translate(1688.867188 0)"/>
    <use xlink:href="#DejaVuSerif-72" transform="translate(1720.654297 0)"/>
    <use xlink:href="#DejaVuSerif-6f" transform="translate(1768.457031 0)"/>
    <use xlink:href="#DejaVuSerif-75" transform="translate(1828.662109 0)"/>
    <use xlink:href="#DejaVuSerif-6e" transform="translate(1893.066406 0)"/>
    <use xlink:href="#DejaVuSerif-64" transform="translate(1957.470703 0)"/>
    <use xlink:href="#DejaVuSerif-2d" transform="translate(2021.484375 0)"/>
    <use xlink:href="#DejaVuSerif-72" transform="translate(2055.273438 0)"/>
    <use xlink:href="#DejaVuSerif-6f" transform="translate(2103.076172 0)"/>
    <use xlink:href="#DejaVuSerif-62" transform="translate(2163.28125 0)"/>
    <use xlink:href="#DejaVuSerif-69" transform="translate(2227.294922 0)"/>
    <use xlink:href="#DejaVuSerif-6e" transform="translate(2259.277344 0)"/>
    <use xlink:href="#DejaVuSerif-20" transform="translate(2323.681641 0)"/>
    <use xlink:href="#DejaVuSerif-77" transform="translate(2355.46875 0)"/>
    <use xlink:href="#DejaVuSerif-6f" transform="translate(2441.064453 0)"/>
    <use xlink:href="#DejaVuSerif-72" transform="translate(2501.269531 0)"/>
    <use xlink:href="#DejaVuSerif-6b" transform="translate(2549.072266 0)"/>
    <use xlink:href="#DejaVuSerif-6c" transform="translate(2609.667969 0)"/>
    <use xlink:href="#DejaVuSerif-6f" transform="translate(2641.650391 0)"/>
    <use xlink:href="#DejaVuSerif-61" transform="translate(2701.855469 0)"/>
    <use xlink:href="#DejaVuSerif-64" transform="translate(2761.474609 0)"/>
    <use xlink:href="#DejaVuSerif-73" transform="translate(2825.488281 0)"/>
    <use xlink:href="#DejaVuSerif-20" transform="translate(2876.806641 0)"/>
    <use xlink:href="#DejaVuSerif-77" transform="translate(2908.59375 0)"/>
    <use xlink:href="#DejaVuSerif-69" transform="translate(2994.189453 0)"/>
    <use xlink:href="#DejaVuSerif-74" transform="translate(3026.171875 0)"/>
    <use xlink:href="#DejaVuSerif-68" transform="translate(3066.357422 0)"/>
    <use xlink:href="#DejaVuSerif-20" transform="translate(3130.761719 0)"/>
    <use xlink:href="#DejaVuSerif-39" transform="translate(3162.548828 0)"/>
    <use xlink:href="#DejaVuSerif-35" transform="translate(3226.171875 0)"/>
    <use xlink:href="#DejaVuSerif-25" transform="translate(3289.794922 0)"/>
    <use xlink:href="#DejaVuSerif-20" transform="translate(3384.814453 0)"/>
    <use xlink:href="#DejaVuSerif-63" transform="translate(3416.601562 0)"/>
    <use xlink:href="#DejaVuSerif-6f" transform="translate(3472.607422 0)"/>
    <use xlink:href="#DejaVuSerif-6e" transform="translate(3532.8125 0)"/>
    <use xlink:href="#DejaVuSerif-66" transform="translate(3597.216797 0)"/>
    <use xlink:href="#DejaVuSerif-69" transform="translate(3634.228516 0)"/>
    <use xlink:href="#DejaVuSerif-64" transform="translate(3666.210938 0)"/>
    <use xlink:href="#DejaVuSerif-65" transform="translate(3730.224609 0)"/>
    <use xlink:href="#DejaVuSerif-6e" transform="translate(3789.404297 0)"/>
    <use xlink:href="#DejaVuSerif-63" transform="translate(3853.808594 0)"/>
    <use xlink:href="#DejaVuSerif-65" transform="translate(3909.814453 0)"/>
    <use xlink:href="#DejaVuSerif-20" transform="translate(3968.994141 0)"/>
    <use xlink:href="#DejaVuSerif-69" transform="translate(4000.78125 0)"/>
    <use xlink:href="#DejaVuSerif-6e" transform="translate(4032.763672 0)"/>
    <use xlink:href="#DejaVuSerif-74" transform="translate(4097.167969 0)"/>
    <use xlink:href="#DejaVuSerif-65" transform="translate(4137.353516 0)"/>
    <use xlink:href="#DejaVuSerif-72" transform="translate(4196.533203 0)"/>
    <use xlink:href="#DejaVuSerif-76" transform="translate(4244.335938 0)"/>
    <use xlink:href="#DejaVuSerif-61" transform="translate(4300.830078 0)"/>
    <use xlink:href="#DejaVuSerif-6c" transform="translate(4360.449219 0)"/>
    <use xlink:href="#DejaVuSerif-73" transform="translate(4392.431641 0)"/>
   </g>
  </g>
 </g>
 <defs>
  <clipPath id="p9fe3cdde7f">
   <rect x="76.454544" y="67.26675" width="304.19776" height="226.837235"/>
  </clipPath>
  <clipPath id="p7b22e72ea2">
   <rect x="467.054544" y="67.26675" width="304.19776" height="226.837235"/>
  </clipPath>
 </defs>
</svg>
