<?xml version="1.0" encoding="utf-8" standalone="no"?>
<!DOCTYPE svg PUBLIC "-//W3C//DTD SVG 1.1//EN"
  "http://www.w3.org/Graphics/SVG/1.1/DTD/svg11.dtd">
<svg xmlns:xlink="http://www.w3.org/1999/xlink" width="1000.8pt" height="338.4pt" viewBox="0 0 1000.8 338.4" xmlns="http://www.w3.org/2000/svg" version="1.1">
 <metadata>
  <rdf:RDF xmlns:dc="http://purl.org/dc/elements/1.1/" xmlns:cc="http://creativecommons.org/ns#" xmlns:rdf="http://www.w3.org/1999/02/22-rdf-syntax-ns#">
   <cc:Work>
    <dc:type rdf:resource="http://purl.org/dc/dcmitype/StillImage"/>
    <dc:date>2026-03-11T12:19:57.017667</dc:date>
    <dc:format>image/svg+xml</dc:format>
    <dc:creator>
     <cc:Agent>
      <dc:title>Matplotlib v3.10.8, https://matplotlib.org/</dc:title>
     </cc:Agent>
    </dc:creator>
   </cc:Work>
  </rdf:RDF>
 </metadata>
 <defs>
  <style type="text/css">*{stroke-linejoin: round; stroke-linecap: butt}</style>
 </defs>
 <g id="figure_1">
  <g id="patch_1">
   <path d="M 0 338.4 
L 1000.8 338.4 
L 1000.8 0 
L 0 0 
z
" style="fill: #ffffff"/>
  </g>
  <g id="axes_1">
   <g id="patch_2">
    <path d="M 48.53016 212.508 
L 133.55784 212.508 
Q 145.39464 212.508 145.39464 199.548 
L 145.39464 128.052 
Q 145.39464 115.092 133.55784 115.092 
L 48.53016 115.092 
Q 36.69336 115.092 36.69336 128.052 
L 36.69336 199.548 
Q 36.69336 212.508 48.53016 212.508 
z
" clip-path="url(#p8034d7ca83)" style="fill: #f4ead5; stroke: #2f3e46; stroke-width: 1.2; stroke-linejoin: miter"/>
   </g>
   <g id="patch_3">
    <path d="M 196.49016 212.508 
L 281.51784 212.508 
Q 293.35464 212.508 293.35464 199.548 
L 293.35464 128.052 
Q 293.35464 115.092 281.51784 115.092 
L 196.49016 115.092 
Q 184.65336 115.092 184.65336 128.052 
L 184.65336 199.548 
Q 184.65336 212.508 196.49016 212.508 
z
" clip-path="url(#p8034d7ca83)" style="fill: #f4ead5; stroke: #2f3e46; stroke-width: 1.2; stroke-linejoin: miter"/>
   </g>
   <g id="patch_4">
    <path d="M 344.45016 212.508 
L 429.47784 212.508 
Q 441.31464 212.508 441.31464 199.548 
L 441.31464 128.052 
Q 441.31464 115.092 429.47784 115.092 
L 344.45016 115.092 
Q 332.61336 115.092 332.61336 128.052 
L 332.61336 199.548 
Q 332.61336 212.508 344.45016 212.508 
z
" clip-path="url(#p8034d7ca83)" style="fill: #ddecf5; stroke: #2f3e46; stroke-width: 1.2; stroke-linejoin: miter"/>
   </g>
   <g id="patch_5">
    <path d="M 531.86616 212.508 
L 616.89384 212.508 
Q 628.73064 212.508 628.73064 199.548 
L 628.73064 128.052 
Q 628.73064 115.092 616.89384 115.092 
L 531.86616 115.092 
Q 520.02936 115.092 520.02936 128.052 
L 520.02936 199.548 
Q 520.02936 212.508 531.86616 212.508 
z
" clip-path="url(#p8034d7ca83)" style="fill: #e3f2e1; stroke: #2f3e46; stroke-width: 1.2; stroke-linejoin: miter"/>
   </g>
   <g id="patch_6">
    <path d="M 699.55416 212.508 
L 784.58184 212.508 
Q 796.41864 212.508 796.41864 199.548 
L 796.41864 128.052 
Q 796.41864 115.092 784.58184 115.092 
L 699.55416 115.092 
Q 687.71736 115.092 687.71736 128.052 
L 687.71736 199.548 
Q 687.71736 212.508 699.55416 212.508 
z
" clip-path="url(#p8034d7ca83)" style="fill: #e3f2e1; stroke: #2f3e46; stroke-width: 1.2; stroke-linejoin: miter"/>
   </g>
   <g id="patch_7">
    <path d="M 867.24216 212.508 
L 952.26984 212.508 
Q 964.10664 212.508 964.10664 199.548 
L 964.10664 128.052 
Q 964.10664 115.092 952.26984 115.092 
L 867.24216 115.092 
Q 855.40536 115.092 855.40536 128.052 
L 855.40536 199.548 
Q 855.40536 212.508 867.24216 212.508 
z
" clip-path="url(#p8034d7ca83)" style="fill: #ececec; stroke: #2f3e46; stroke-width: 1.2; stroke-linejoin: miter"/>
   </g>
   <g id="patch_8">
    <path d="M 147.294809 163.8 
Q 165.024332 163.8 181.188609 163.8 
" clip-path="url(#p8034d7ca83)" style="fill: none; stroke: #1d4e89; stroke-width: 1.4; stroke-linecap: round"/>
    <path d="M 176.388609 161.4 
L 181.188609 163.8 
L 176.388609 166.2 
z
" clip-path="url(#p8034d7ca83)" style="fill: #1d4e89; stroke: #1d4e89; stroke-width: 1.4; stroke-linecap: round"/>
   </g>
   <g id="patch_9">
    <path d="M 295.254809 163.8 
Q 312.984332 163.8 329.148609 163.8 
" clip-path="url(#p8034d7ca83)" style="fill: none; stroke: #1d4e89; stroke-width: 1.4; stroke-linecap: round"/>
    <path d="M 324.348609 161.4 
L 329.148609 163.8 
L 324.348609 166.2 
z
" clip-path="url(#p8034d7ca83)" style="fill: #1d4e89; stroke: #1d4e89; stroke-width: 1.4; stroke-linecap: round"/>
   </g>
   <g id="patch_10">
    <path d="M 443.214809 163.8 
Q 480.669148 163.8 516.55824 163.8 
" clip-path="url(#p8034d7ca83)" style="fill: none; stroke: #1d4e89; stroke-width: 1.4; stroke-linecap: round"/>
    <path d="M 511.75824 161.4 
L 516.55824 163.8 
L 511.75824 166.2 
z
" clip-path="url(#p8034d7ca83)" style="fill: #1d4e89; stroke: #1d4e89; stroke-width: 1.4; stroke-linecap: round"/>
   </g>
   <g id="patch_11">
    <path d="M 630.629604 163.8 
Q 658.222808 163.8 684.250764 163.8 
" clip-path="url(#p8034d7ca83)" style="fill: none; stroke: #1d4e89; stroke-width: 1.4; stroke-linecap: round"/>
    <path d="M 679.450764 161.4 
L 684.250764 163.8 
L 679.450764 166.2 
z
" clip-path="url(#p8034d7ca83)" style="fill: #1d4e89; stroke: #1d4e89; stroke-width: 1.4; stroke-linecap: round"/>
   </g>
   <g id="patch_12">
    <path d="M 798.317604 163.8 
Q 825.910808 163.8 851.938764 163.8 
" clip-path="url(#p8034d7ca83)" style="fill: none; stroke: #1d4e89; stroke-width: 1.4; stroke-linecap: round"/>
    <path d="M 847.138764 161.4 
L 851.938764 163.8 
L 847.138764 166.2 
z
" clip-path="url(#p8034d7ca83)" style="fill: #1d4e89; stroke: #1d4e89; stroke-width: 1.4; stroke-linecap: round"/>
   </g>
   <g id="patch_13">
    <path d="M 354.31416 93.708 
L 528.11784 93.708 
Q 539.95464 93.708 539.95464 80.748 
L 539.95464 52.452 
Q 539.95464 39.492 528.11784 39.492 
L 354.31416 39.492 
Q 342.47736 39.492 342.47736 52.452 
L 342.47736 80.748 
Q 342.47736 93.708 354.31416 93.708 
z
" clip-path="url(#p8034d7ca83)" style="fill: #e9f3fb; stroke: #2f3e46; stroke-width: 1.2; stroke-linejoin: miter"/>
   </g>
   <g id="patch_14">
    <path d="M 441.216 95.60127 
Q 441.216 104.402994 441.216 111.639472 
" clip-path="url(#p8034d7ca83)" style="fill: none; stroke: #e76f51; stroke-width: 1.4; stroke-linecap: round"/>
    <path d="M 443.616 106.839472 
L 441.216 111.639472 
L 438.816 106.839472 
z
" clip-path="url(#p8034d7ca83)" style="fill: #e76f51; stroke: #e76f51; stroke-width: 1.4; stroke-linecap: round"/>
   </g>
   <g id="text_1">
    <!-- Local Source Data -->
    <g style="fill: #122029" transform="translate(34.853766 138.678281) scale(0.11 -0.11)">
     <defs>
      <path id="DejaVuSerif-Bold-4c" d="M 300 0 
L 300 378 
L 897 378 
L 897 4288 
L 300 4288 
L 300 4666 
L 2700 4666 
L 2700 4288 
L 2100 4288 
L 2100 428 
L 3938 428 
L 3938 1166 
L 4359 1166 
L 4359 0 
L 300 0 
z
" transform="scale(0.015625)"/>
      <path id="DejaVuSerif-Bold-6f" d="M 2138 263 
Q 2488 263 2630 563 
Q 2772 863 2772 1663 
Q 2772 2463 2631 2761 
Q 2491 3059 2138 3059 
Q 1784 3059 1640 2757 
Q 1497 2456 1497 1663 
Q 1497 869 1640 566 
Q 1784 263 2138 263 
z
M 2138 -91 
Q 1259 -91 761 376 
Q 263 844 263 1663 
Q 263 2484 761 2948 
Q 1259 3413 2138 3413 
Q 3019 3413 3516 2948 
Q 4013 2484 4013 1663 
Q 4013 844 3514 376 
Q 3016 -91 2138 -91 
z
" transform="scale(0.015625)"/>
      <path id="DejaVuSerif-Bold-63" d="M 3609 1038 
Q 3491 469 3123 189 
Q 2756 -91 2125 -91 
Q 1238 -91 750 368 
Q 263 828 263 1663 
Q 263 2488 744 2950 
Q 1225 3413 2081 3413 
Q 2428 3413 2781 3347 
Q 3134 3281 3500 3150 
L 3500 2228 
L 3150 2228 
Q 3100 2650 2903 2854 
Q 2706 3059 2350 3059 
Q 1888 3059 1692 2746 
Q 1497 2434 1497 1663 
Q 1497 909 1687 586 
Q 1878 263 2309 263 
Q 2644 263 2845 463 
Q 3047 663 3091 1038 
L 3609 1038 
z
" transform="scale(0.015625)"/>
      <path id="DejaVuSerif-Bold-61" d="M 3525 2041 
L 3525 378 
L 4000 378 
L 4000 0 
L 2419 0 
L 2419 422 
Q 2200 159 1931 34 
Q 1663 -91 1319 -91 
Q 809 -91 536 182 
Q 263 456 263 966 
Q 263 1525 655 1803 
Q 1047 2081 1838 2081 
L 2419 2081 
L 2419 2278 
Q 2419 2681 2228 2873 
Q 2038 3066 1638 3066 
Q 1306 3066 1126 2930 
Q 947 2794 872 2484 
L 519 2484 
L 519 3200 
Q 816 3306 1134 3359 
Q 1453 3413 1806 3413 
Q 2697 3413 3111 3081 
Q 3525 2750 3525 2041 
z
M 2419 1044 
L 2419 1709 
L 2003 1709 
Q 1694 1709 1528 1540 
Q 1363 1372 1363 1056 
Q 1363 741 1483 584 
Q 1603 428 1850 428 
Q 2106 428 2262 597 
Q 2419 766 2419 1044 
z
" transform="scale(0.015625)"/>
      <path id="DejaVuSerif-Bold-6c" d="M 1797 378 
L 2272 378 
L 2272 0 
L 219 0 
L 219 378 
L 691 378 
L 691 4488 
L 219 4488 
L 219 4863 
L 1797 4863 
L 1797 378 
z
" transform="scale(0.015625)"/>
      <path id="DejaVuSerif-Bold-20" transform="scale(0.015625)"/>
      <path id="DejaVuSerif-Bold-53" d="M 494 225 
L 494 1331 
L 891 1331 
Q 981 806 1318 547 
Q 1656 288 2253 288 
Q 2738 288 2991 472 
Q 3244 656 3244 1013 
Q 3244 1294 3072 1450 
Q 2900 1606 2363 1741 
L 1663 1913 
Q 978 2088 700 2398 
Q 422 2709 422 3284 
Q 422 3978 883 4364 
Q 1344 4750 2175 4750 
Q 2584 4750 3026 4681 
Q 3469 4613 3944 4475 
L 3944 3444 
L 3547 3444 
Q 3456 3925 3150 4148 
Q 2844 4372 2278 4372 
Q 1816 4372 1580 4211 
Q 1344 4050 1344 3731 
Q 1344 3441 1506 3289 
Q 1669 3138 2303 2975 
L 3003 2803 
Q 3653 2641 3945 2297 
Q 4238 1953 4238 1350 
Q 4238 644 3750 276 
Q 3263 -91 2316 -91 
Q 1859 -91 1409 -12 
Q 959 66 494 225 
z
" transform="scale(0.015625)"/>
      <path id="DejaVuSerif-Bold-75" d="M 3963 3322 
L 3963 378 
L 4434 378 
L 4434 0 
L 2853 0 
L 2853 469 
Q 2656 172 2400 40 
Q 2144 -91 1753 -91 
Q 1194 -91 908 239 
Q 622 569 622 1209 
L 622 2944 
L 147 2944 
L 147 3322 
L 1728 3322 
L 1728 1381 
Q 1728 763 1831 595 
Q 1934 428 2209 428 
Q 2544 428 2698 675 
Q 2853 922 2853 1459 
L 2853 2944 
L 2450 2944 
L 2450 3322 
L 3963 3322 
z
" transform="scale(0.015625)"/>
      <path id="DejaVuSerif-Bold-72" d="M 3438 3359 
L 3438 2369 
L 3084 2369 
Q 3066 2634 2941 2764 
Q 2816 2894 2578 2894 
Q 2216 2894 2006 2575 
Q 1797 2256 1797 1691 
L 1797 378 
L 2400 378 
L 2400 0 
L 219 0 
L 219 378 
L 691 378 
L 691 2944 
L 184 2944 
L 184 3322 
L 1797 3322 
L 1797 2731 
Q 1959 3078 2226 3245 
Q 2494 3413 2881 3413 
Q 2978 3413 3117 3398 
Q 3256 3384 3438 3359 
z
" transform="scale(0.015625)"/>
      <path id="DejaVuSerif-Bold-65" d="M 2566 1875 
Q 2566 2531 2444 2795 
Q 2322 3059 2028 3059 
Q 1744 3059 1620 2800 
Q 1497 2541 1497 1931 
L 1497 1875 
L 2566 1875 
z
M 3781 1503 
L 1497 1503 
L 1497 1478 
Q 1497 834 1690 548 
Q 1884 263 2316 263 
Q 2675 263 2897 453 
Q 3119 644 3181 1006 
L 3700 1006 
Q 3566 441 3166 175 
Q 2766 -91 2047 -91 
Q 1184 -91 723 364 
Q 263 819 263 1663 
Q 263 2488 734 2950 
Q 1206 3413 2047 3413 
Q 2872 3413 3312 2927 
Q 3753 2441 3781 1503 
z
" transform="scale(0.015625)"/>
      <path id="DejaVuSerif-Bold-44" d="M 2100 378 
L 2534 378 
Q 3266 378 3605 847 
Q 3944 1316 3944 2338 
Q 3944 3353 3606 3820 
Q 3269 4288 2534 4288 
L 2100 4288 
L 2100 378 
z
M 300 0 
L 300 378 
L 897 378 
L 897 4288 
L 300 4288 
L 300 4666 
L 2694 4666 
Q 3950 4666 4615 4066 
Q 5281 3466 5281 2338 
Q 5281 1203 4614 601 
Q 3947 0 2694 0 
L 300 0 
z
" transform="scale(0.015625)"/>
      <path id="DejaVuSerif-Bold-74" d="M 634 2944 
L 153 2944 
L 153 3322 
L 634 3322 
L 634 4353 
L 1741 4353 
L 1741 3322 
L 2663 3322 
L 2663 2944 
L 1741 2944 
L 1741 909 
Q 1741 475 1809 369 
Q 1878 263 2059 263 
Q 2259 263 2356 397 
Q 2453 531 2459 813 
L 2925 813 
Q 2897 313 2651 111 
Q 2406 -91 1806 -91 
Q 1122 -91 878 123 
Q 634 338 634 909 
L 634 2944 
z
" transform="scale(0.015625)"/>
     </defs>
     <use xlink:href="#DejaVuSerif-Bold-4c"/>
     <use xlink:href="#DejaVuSerif-Bold-6f" transform="translate(70.3125 0)"/>
     <use xlink:href="#DejaVuSerif-Bold-63" transform="translate(137.011719 0)"/>
     <use xlink:href="#DejaVuSerif-Bold-61" transform="translate(197.900391 0)"/>
     <use xlink:href="#DejaVuSerif-Bold-6c" transform="translate(262.695312 0)"/>
     <use xlink:href="#DejaVuSerif-Bold-20" transform="translate(300.683594 0)"/>
     <use xlink:href="#DejaVuSerif-Bold-53" transform="translate(335.498047 0)"/>
     <use xlink:href="#DejaVuSerif-Bold-6f" transform="translate(407.714844 0)"/>
     <use xlink:href="#DejaVuSerif-Bold-75" transform="translate(474.414062 0)"/>
     <use xlink:href="#DejaVuSerif-Bold-72" transform="translate(547.119141 0)"/>
     <use xlink:href="#DejaVuSerif-Bold-63" transform="translate(599.804688 0)"/>
     <use xlink:href="#DejaVuSerif-Bold-65" transform="translate(660.693359 0)"/>
     <use xlink:href="#DejaVuSerif-Bold-20" transform="translate(724.316406 0)"/>
     <use xlink:href="#DejaVuSerif-Bold-44" transform="translate(759.130859 0)"/>
     <use xlink:href="#DejaVuSerif-Bold-61" transform="translate(845.849609 0)"/>
     <use xlink:href="#DejaVuSerif-Bold-74" transform="translate(910.644531 0)"/>
     <use xlink:href="#DejaVuSerif-Bold-61" transform="translate(956.835938 0)"/>
    </g>
   </g>
   <g id="text_2">
    <!-- ERP / MES / device -->
    <g style="fill: #122029" transform="translate(46.906031 166.580437) scale(0.09 -0.09)">
     <defs>
      <path id="DejaVuSerif-45" d="M 353 0 
L 353 331 
L 947 331 
L 947 4331 
L 353 4331 
L 353 4666 
L 4109 4666 
L 4109 3628 
L 3725 3628 
L 3725 4281 
L 1581 4281 
L 1581 2719 
L 3109 2719 
L 3109 3303 
L 3494 3303 
L 3494 1753 
L 3109 1753 
L 3109 2338 
L 1581 2338 
L 1581 384 
L 3775 384 
L 3775 1038 
L 4159 1038 
L 4159 0 
L 353 0 
z
" transform="scale(0.015625)"/>
      <path id="DejaVuSerif-52" d="M 3066 2316 
Q 3284 2256 3442 2114 
Q 3600 1972 3725 1716 
L 4403 331 
L 4972 331 
L 4972 0 
L 3872 0 
L 3144 1484 
Q 2934 1916 2759 2042 
Q 2584 2169 2278 2169 
L 1581 2169 
L 1581 331 
L 2241 331 
L 2241 0 
L 353 0 
L 353 331 
L 947 331 
L 947 4331 
L 353 4331 
L 353 4666 
L 2719 4666 
Q 3400 4666 3770 4341 
Q 4141 4016 4141 3419 
Q 4141 2938 3870 2661 
Q 3600 2384 3066 2316 
z
M 1581 2503 
L 2503 2503 
Q 2975 2503 3200 2726 
Q 3425 2950 3425 3419 
Q 3425 3888 3200 4109 
Q 2975 4331 2503 4331 
L 1581 4331 
L 1581 2503 
z
" transform="scale(0.015625)"/>
      <path id="DejaVuSerif-50" d="M 1581 2375 
L 2406 2375 
Q 2872 2375 3115 2626 
Q 3359 2878 3359 3353 
Q 3359 3831 3115 4081 
Q 2872 4331 2406 4331 
L 1581 4331 
L 1581 2375 
z
M 353 0 
L 353 331 
L 947 331 
L 947 4331 
L 353 4331 
L 353 4666 
L 2559 4666 
Q 3259 4666 3668 4311 
Q 4078 3956 4078 3353 
Q 4078 2753 3668 2397 
Q 3259 2041 2559 2041 
L 1581 2041 
L 1581 331 
L 2303 331 
L 2303 0 
L 353 0 
z
" transform="scale(0.015625)"/>
      <path id="DejaVuSerif-20" transform="scale(0.015625)"/>
      <path id="DejaVuSerif-2f" d="M 1656 4666 
L 2156 4666 
L 500 -594 
L 0 -594 
L 1656 4666 
z
" transform="scale(0.015625)"/>
      <path id="DejaVuSerif-4d" d="M 353 0 
L 353 331 
L 947 331 
L 947 4331 
L 319 4331 
L 319 4666 
L 1678 4666 
L 3316 1344 
L 4953 4666 
L 6228 4666 
L 6228 4331 
L 5606 4331 
L 5606 331 
L 6203 331 
L 6203 0 
L 4378 0 
L 4378 331 
L 4972 331 
L 4972 3938 
L 3372 684 
L 2931 684 
L 1331 3938 
L 1331 331 
L 1925 331 
L 1925 0 
L 353 0 
z
" transform="scale(0.015625)"/>
      <path id="DejaVuSerif-53" d="M 594 225 
L 594 1288 
L 953 1284 
Q 969 753 1261 498 
Q 1553 244 2150 244 
Q 2706 244 2998 464 
Q 3291 684 3291 1106 
Q 3291 1444 3114 1625 
Q 2938 1806 2369 1978 
L 1753 2163 
Q 1084 2366 811 2669 
Q 538 2972 538 3500 
Q 538 4094 959 4422 
Q 1381 4750 2144 4750 
Q 2469 4750 2856 4679 
Q 3244 4609 3681 4475 
L 3681 3481 
L 3328 3481 
Q 3275 3975 2998 4195 
Q 2722 4416 2156 4416 
Q 1663 4416 1405 4214 
Q 1147 4013 1147 3628 
Q 1147 3294 1340 3103 
Q 1534 2913 2163 2725 
L 2741 2553 
Q 3375 2363 3645 2067 
Q 3916 1772 3916 1275 
Q 3916 597 3481 253 
Q 3047 -91 2188 -91 
Q 1803 -91 1404 -12 
Q 1006 66 594 225 
z
" transform="scale(0.015625)"/>
      <path id="DejaVuSerif-64" d="M 3359 331 
L 3909 331 
L 3909 0 
L 2784 0 
L 2784 519 
Q 2616 206 2355 57 
Q 2094 -91 1709 -91 
Q 1097 -91 708 395 
Q 319 881 319 1663 
Q 319 2444 706 2928 
Q 1094 3413 1709 3413 
Q 2094 3413 2355 3264 
Q 2616 3116 2784 2803 
L 2784 4531 
L 2241 4531 
L 2241 4863 
L 3359 4863 
L 3359 331 
z
M 2784 1497 
L 2784 1825 
Q 2784 2422 2554 2737 
Q 2325 3053 1888 3053 
Q 1444 3053 1217 2703 
Q 991 2353 991 1663 
Q 991 975 1217 622 
Q 1444 269 1888 269 
Q 2325 269 2554 583 
Q 2784 897 2784 1497 
z
" transform="scale(0.015625)"/>
      <path id="DejaVuSerif-65" d="M 3469 1600 
L 991 1600 
L 991 1575 
Q 991 903 1244 561 
Q 1497 219 1991 219 
Q 2369 219 2611 417 
Q 2853 616 2950 1006 
L 3413 1006 
Q 3275 459 2904 184 
Q 2534 -91 1931 -91 
Q 1203 -91 761 389 
Q 319 869 319 1663 
Q 319 2450 753 2931 
Q 1188 3413 1894 3413 
Q 2647 3413 3050 2948 
Q 3453 2484 3469 1600 
z
M 2791 1931 
Q 2772 2513 2545 2808 
Q 2319 3103 1894 3103 
Q 1497 3103 1269 2806 
Q 1041 2509 991 1931 
L 2791 1931 
z
" transform="scale(0.015625)"/>
      <path id="DejaVuSerif-76" d="M 1581 0 
L 359 2988 
L -19 2988 
L -19 3322 
L 1509 3322 
L 1509 2988 
L 978 2988 
L 1913 703 
L 2847 2988 
L 2350 2988 
L 2350 3322 
L 3597 3322 
L 3597 2988 
L 3225 2988 
L 2003 0 
L 1581 0 
z
" transform="scale(0.015625)"/>
      <path id="DejaVuSerif-69" d="M 622 4353 
Q 622 4497 726 4603 
Q 831 4709 978 4709 
Q 1122 4709 1226 4603 
Q 1331 4497 1331 4353 
Q 1331 4206 1228 4103 
Q 1125 4000 978 4000 
Q 831 4000 726 4103 
Q 622 4206 622 4353 
z
M 1356 331 
L 1900 331 
L 1900 0 
L 231 0 
L 231 331 
L 781 331 
L 781 2988 
L 231 2988 
L 231 3322 
L 1356 3322 
L 1356 331 
z
" transform="scale(0.015625)"/>
      <path id="DejaVuSerif-63" d="M 3291 997 
Q 3169 466 2822 187 
Q 2475 -91 1925 -91 
Q 1200 -91 759 389 
Q 319 869 319 1663 
Q 319 2459 759 2936 
Q 1200 3413 1925 3413 
Q 2241 3413 2553 3339 
Q 2866 3266 3181 3116 
L 3181 2266 
L 2847 2266 
Q 2781 2703 2561 2903 
Q 2341 3103 1931 3103 
Q 1466 3103 1228 2742 
Q 991 2381 991 1663 
Q 991 944 1227 581 
Q 1463 219 1931 219 
Q 2303 219 2525 412 
Q 2747 606 2828 997 
L 3291 997 
z
" transform="scale(0.015625)"/>
     </defs>
     <use xlink:href="#DejaVuSerif-45"/>
     <use xlink:href="#DejaVuSerif-52" transform="translate(72.998047 0)"/>
     <use xlink:href="#DejaVuSerif-50" transform="translate(148.291016 0)"/>
     <use xlink:href="#DejaVuSerif-20" transform="translate(215.576172 0)"/>
     <use xlink:href="#DejaVuSerif-2f" transform="translate(247.363281 0)"/>
     <use xlink:href="#DejaVuSerif-20" transform="translate(281.054688 0)"/>
     <use xlink:href="#DejaVuSerif-4d" transform="translate(312.841797 0)"/>
     <use xlink:href="#DejaVuSerif-45" transform="translate(415.234375 0)"/>
     <use xlink:href="#DejaVuSerif-53" transform="translate(488.232422 0)"/>
     <use xlink:href="#DejaVuSerif-20" transform="translate(556.738281 0)"/>
     <use xlink:href="#DejaVuSerif-2f" transform="translate(588.525391 0)"/>
     <use xlink:href="#DejaVuSerif-20" transform="translate(622.216797 0)"/>
     <use xlink:href="#DejaVuSerif-64" transform="translate(654.003906 0)"/>
     <use xlink:href="#DejaVuSerif-65" transform="translate(718.017578 0)"/>
     <use xlink:href="#DejaVuSerif-76" transform="translate(777.197266 0)"/>
     <use xlink:href="#DejaVuSerif-69" transform="translate(833.691406 0)"/>
     <use xlink:href="#DejaVuSerif-63" transform="translate(865.673828 0)"/>
     <use xlink:href="#DejaVuSerif-65" transform="translate(921.679688 0)"/>
    </g>
    <!-- logs / batch records -->
    <g style="fill: #122029" transform="translate(45.724781 176.658469) scale(0.09 -0.09)">
     <defs>
      <path id="DejaVuSerif-6c" d="M 1313 331 
L 1856 331 
L 1856 0 
L 184 0 
L 184 331 
L 738 331 
L 738 4531 
L 184 4531 
L 184 4863 
L 1313 4863 
L 1313 331 
z
" transform="scale(0.015625)"/>
      <path id="DejaVuSerif-6f" d="M 1925 219 
Q 2388 219 2623 584 
Q 2859 950 2859 1663 
Q 2859 2375 2623 2739 
Q 2388 3103 1925 3103 
Q 1463 3103 1227 2739 
Q 991 2375 991 1663 
Q 991 950 1228 584 
Q 1466 219 1925 219 
z
M 1925 -91 
Q 1200 -91 759 389 
Q 319 869 319 1663 
Q 319 2456 758 2934 
Q 1197 3413 1925 3413 
Q 2653 3413 3092 2934 
Q 3531 2456 3531 1663 
Q 3531 869 3092 389 
Q 2653 -91 1925 -91 
z
" transform="scale(0.015625)"/>
      <path id="DejaVuSerif-67" d="M 3359 2988 
L 3359 72 
Q 3359 -644 2965 -1033 
Q 2572 -1422 1844 -1422 
Q 1516 -1422 1216 -1362 
Q 916 -1303 641 -1184 
L 641 -488 
L 941 -488 
Q 997 -813 1206 -963 
Q 1416 -1113 1806 -1113 
Q 2313 -1113 2548 -827 
Q 2784 -541 2784 72 
L 2784 519 
Q 2616 206 2355 57 
Q 2094 -91 1709 -91 
Q 1097 -91 708 395 
Q 319 881 319 1663 
Q 319 2444 706 2928 
Q 1094 3413 1709 3413 
Q 2094 3413 2355 3264 
Q 2616 3116 2784 2803 
L 2784 3322 
L 3909 3322 
L 3909 2988 
L 3359 2988 
z
M 2784 1825 
Q 2784 2422 2554 2737 
Q 2325 3053 1888 3053 
Q 1444 3053 1217 2703 
Q 991 2353 991 1663 
Q 991 975 1217 622 
Q 1444 269 1888 269 
Q 2325 269 2554 583 
Q 2784 897 2784 1497 
L 2784 1825 
z
" transform="scale(0.015625)"/>
      <path id="DejaVuSerif-73" d="M 359 184 
L 359 959 
L 691 959 
Q 703 588 923 403 
Q 1144 219 1575 219 
Q 1963 219 2166 364 
Q 2369 509 2369 788 
Q 2369 1006 2220 1140 
Q 2072 1275 1594 1428 
L 1178 1569 
Q 750 1706 558 1912 
Q 366 2119 366 2438 
Q 366 2894 700 3153 
Q 1034 3413 1625 3413 
Q 1888 3413 2178 3344 
Q 2469 3275 2778 3144 
L 2778 2419 
L 2447 2419 
Q 2434 2741 2221 2922 
Q 2009 3103 1644 3103 
Q 1281 3103 1095 2975 
Q 909 2847 909 2591 
Q 909 2381 1050 2254 
Q 1191 2128 1613 1997 
L 2069 1856 
Q 2541 1709 2748 1489 
Q 2956 1269 2956 922 
Q 2956 450 2595 179 
Q 2234 -91 1600 -91 
Q 1278 -91 972 -22 
Q 666 47 359 184 
z
" transform="scale(0.015625)"/>
      <path id="DejaVuSerif-62" d="M 738 331 
L 738 4531 
L 184 4531 
L 184 4863 
L 1313 4863 
L 1313 2803 
Q 1481 3116 1742 3264 
Q 2003 3413 2388 3413 
Q 3000 3413 3387 2928 
Q 3775 2444 3775 1663 
Q 3775 881 3387 395 
Q 3000 -91 2388 -91 
Q 2003 -91 1742 57 
Q 1481 206 1313 519 
L 1313 0 
L 184 0 
L 184 331 
L 738 331 
z
M 1313 1497 
Q 1313 897 1542 583 
Q 1772 269 2209 269 
Q 2650 269 2876 622 
Q 3103 975 3103 1663 
Q 3103 2353 2876 2703 
Q 2650 3053 2209 3053 
Q 1772 3053 1542 2737 
Q 1313 2422 1313 1825 
L 1313 1497 
z
" transform="scale(0.015625)"/>
      <path id="DejaVuSerif-61" d="M 2547 1044 
L 2547 1747 
L 1806 1747 
Q 1378 1747 1168 1562 
Q 959 1378 959 997 
Q 959 650 1171 447 
Q 1384 244 1747 244 
Q 2106 244 2326 466 
Q 2547 688 2547 1044 
z
M 3122 2075 
L 3122 331 
L 3634 331 
L 3634 0 
L 2547 0 
L 2547 359 
Q 2356 128 2106 18 
Q 1856 -91 1522 -91 
Q 969 -91 644 203 
Q 319 497 319 997 
Q 319 1513 691 1797 
Q 1063 2081 1741 2081 
L 2547 2081 
L 2547 2309 
Q 2547 2688 2317 2895 
Q 2088 3103 1672 3103 
Q 1328 3103 1125 2947 
Q 922 2791 872 2484 
L 575 2484 
L 575 3156 
Q 875 3284 1158 3348 
Q 1441 3413 1709 3413 
Q 2400 3413 2761 3070 
Q 3122 2728 3122 2075 
z
" transform="scale(0.015625)"/>
      <path id="DejaVuSerif-74" d="M 691 2988 
L 184 2988 
L 184 3322 
L 691 3322 
L 691 4353 
L 1269 4353 
L 1269 3322 
L 2350 3322 
L 2350 2988 
L 1269 2988 
L 1269 878 
Q 1269 456 1350 337 
Q 1431 219 1650 219 
Q 1875 219 1978 351 
Q 2081 484 2088 781 
L 2522 781 
Q 2497 328 2275 118 
Q 2053 -91 1600 -91 
Q 1103 -91 897 129 
Q 691 350 691 878 
L 691 2988 
z
" transform="scale(0.015625)"/>
      <path id="DejaVuSerif-68" d="M 263 0 
L 263 331 
L 781 331 
L 781 4531 
L 231 4531 
L 231 4863 
L 1356 4863 
L 1356 2731 
Q 1516 3069 1770 3241 
Q 2025 3413 2363 3413 
Q 2913 3413 3172 3097 
Q 3431 2781 3431 2113 
L 3431 331 
L 3944 331 
L 3944 0 
L 2356 0 
L 2356 331 
L 2853 331 
L 2853 1931 
Q 2853 2541 2704 2764 
Q 2556 2988 2175 2988 
Q 1775 2988 1565 2697 
Q 1356 2406 1356 1850 
L 1356 331 
L 1856 331 
L 1856 0 
L 263 0 
z
" transform="scale(0.015625)"/>
      <path id="DejaVuSerif-72" d="M 3059 3328 
L 3059 2497 
L 2728 2497 
Q 2713 2744 2591 2866 
Q 2469 2988 2234 2988 
Q 1809 2988 1582 2694 
Q 1356 2400 1356 1850 
L 1356 331 
L 2022 331 
L 2022 0 
L 263 0 
L 263 331 
L 781 331 
L 781 2994 
L 231 2994 
L 231 3322 
L 1356 3322 
L 1356 2731 
Q 1525 3078 1790 3245 
Q 2056 3413 2438 3413 
Q 2578 3413 2733 3391 
Q 2888 3369 3059 3328 
z
" transform="scale(0.015625)"/>
     </defs>
     <use xlink:href="#DejaVuSerif-6c"/>
     <use xlink:href="#DejaVuSerif-6f" transform="translate(31.982422 0)"/>
     <use xlink:href="#DejaVuSerif-67" transform="translate(92.1875 0)"/>
     <use xlink:href="#DejaVuSerif-73" transform="translate(156.201172 0)"/>
     <use xlink:href="#DejaVuSerif-20" transform="translate(207.519531 0)"/>
     <use xlink:href="#DejaVuSerif-2f" transform="translate(239.306641 0)"/>
     <use xlink:href="#DejaVuSerif-20" transform="translate(272.998047 0)"/>
     <use xlink:href="#DejaVuSerif-62" transform="translate(304.785156 0)"/>
     <use xlink:href="#DejaVuSerif-61" transform="translate(368.798828 0)"/>
     <use xlink:href="#DejaVuSerif-74" transform="translate(428.417969 0)"/>
     <use xlink:href="#DejaVuSerif-63" transform="translate(468.603516 0)"/>
     <use xlink:href="#DejaVuSerif-68" transform="translate(524.609375 0)"/>
     <use xlink:href="#DejaVuSerif-20" transform="translate(589.013672 0)"/>
     <use xlink:href="#DejaVuSerif-72" transform="translate(620.800781 0)"/>
     <use xlink:href="#DejaVuSerif-65" transform="translate(668.603516 0)"/>
     <use xlink:href="#DejaVuSerif-63" transform="translate(727.783203 0)"/>
     <use xlink:href="#DejaVuSerif-6f" transform="translate(783.789062 0)"/>
     <use xlink:href="#DejaVuSerif-72" transform="translate(843.994141 0)"/>
     <use xlink:href="#DejaVuSerif-64" transform="translate(891.796875 0)"/>
     <use xlink:href="#DejaVuSerif-73" transform="translate(955.810547 0)"/>
    </g>
   </g>
   <g id="text_3">
    <!-- Event Mapping -->
    <g style="fill: #122029" transform="translate(192.386344 138.678281) scale(0.11 -0.11)">
     <defs>
      <path id="DejaVuSerif-Bold-45" d="M 300 0 
L 300 378 
L 897 378 
L 897 4288 
L 300 4288 
L 300 4666 
L 4494 4666 
L 4494 3566 
L 4063 3566 
L 4063 4238 
L 2100 4238 
L 2100 2741 
L 3322 2741 
L 3322 3334 
L 3750 3334 
L 3750 1722 
L 3322 1722 
L 3322 2316 
L 2100 2316 
L 2100 428 
L 4122 428 
L 4122 1100 
L 4550 1100 
L 4550 0 
L 300 0 
z
" transform="scale(0.015625)"/>
      <path id="DejaVuSerif-Bold-76" d="M 1428 0 
L 250 2944 
L -116 2944 
L -116 3322 
L 1791 3322 
L 1791 2944 
L 1388 2944 
L 2228 844 
L 3066 2944 
L 2631 2944 
L 2631 3322 
L 3878 3322 
L 3878 2944 
L 3494 2944 
L 2316 0 
L 1428 0 
z
" transform="scale(0.015625)"/>
      <path id="DejaVuSerif-Bold-6e" d="M 219 0 
L 219 378 
L 691 378 
L 691 2944 
L 219 2944 
L 219 3322 
L 1797 3322 
L 1797 2853 
Q 1997 3150 2253 3281 
Q 2509 3413 2900 3413 
Q 3459 3413 3745 3083 
Q 4031 2753 4031 2113 
L 4031 378 
L 4506 378 
L 4506 0 
L 2522 0 
L 2522 378 
L 2925 378 
L 2925 2144 
Q 2925 2566 2817 2730 
Q 2709 2894 2444 2894 
Q 2109 2894 1953 2648 
Q 1797 2403 1797 1869 
L 1797 378 
L 2203 378 
L 2203 0 
L 219 0 
z
" transform="scale(0.015625)"/>
      <path id="DejaVuSerif-Bold-4d" d="M 269 0 
L 269 378 
L 863 378 
L 863 4288 
L 269 4288 
L 269 4666 
L 2194 4666 
L 3525 1672 
L 4863 4666 
L 6784 4666 
L 6784 4288 
L 6188 4288 
L 6188 378 
L 6784 378 
L 6784 0 
L 4384 0 
L 4384 378 
L 4978 378 
L 4978 3938 
L 3531 684 
L 2741 684 
L 1300 3938 
L 1300 378 
L 1894 378 
L 1894 0 
L 269 0 
z
" transform="scale(0.015625)"/>
      <path id="DejaVuSerif-Bold-70" d="M 1728 1825 
L 1728 1497 
Q 1728 916 1876 656 
Q 2025 397 2356 397 
Q 2697 397 2836 672 
Q 2975 947 2975 1663 
Q 2975 2378 2836 2651 
Q 2697 2925 2356 2925 
Q 2025 2925 1876 2665 
Q 1728 2406 1728 1825 
z
M 622 2944 
L 147 2944 
L 147 3322 
L 1728 3322 
L 1728 2900 
Q 1869 3159 2106 3286 
Q 2344 3413 2694 3413 
Q 3403 3413 3811 2945 
Q 4219 2478 4219 1663 
Q 4219 847 3811 378 
Q 3403 -91 2694 -91 
Q 2344 -91 2106 36 
Q 1869 163 1728 422 
L 1728 -953 
L 2241 -953 
L 2241 -1331 
L 147 -1331 
L 147 -953 
L 622 -953 
L 622 2944 
z
" transform="scale(0.015625)"/>
      <path id="DejaVuSerif-Bold-69" d="M 588 4263 
Q 588 4516 763 4689 
Q 938 4863 1191 4863 
Q 1438 4863 1611 4689 
Q 1784 4516 1784 4263 
Q 1784 4016 1611 3842 
Q 1438 3669 1191 3669 
Q 938 3669 763 3841 
Q 588 4013 588 4263 
z
M 1797 378 
L 2272 378 
L 2272 0 
L 219 0 
L 219 378 
L 691 378 
L 691 2944 
L 219 2944 
L 219 3322 
L 1797 3322 
L 1797 378 
z
" transform="scale(0.015625)"/>
      <path id="DejaVuSerif-Bold-67" d="M 3853 2944 
L 3853 44 
Q 3853 -656 3354 -1039 
Q 2856 -1422 1947 -1422 
Q 1616 -1422 1275 -1370 
Q 934 -1319 575 -1216 
L 575 -422 
L 928 -422 
Q 975 -750 1192 -909 
Q 1409 -1069 1813 -1069 
Q 2325 -1069 2536 -823 
Q 2747 -578 2747 44 
L 2747 422 
Q 2606 163 2367 36 
Q 2128 -91 1778 -91 
Q 1072 -91 667 378 
Q 263 847 263 1663 
Q 263 2481 667 2947 
Q 1072 3413 1778 3413 
Q 2128 3413 2367 3286 
Q 2606 3159 2747 2900 
L 2747 3322 
L 4325 3322 
L 4325 2944 
L 3853 2944 
z
M 2747 1825 
Q 2747 2406 2597 2665 
Q 2447 2925 2119 2925 
Q 1775 2925 1636 2651 
Q 1497 2378 1497 1663 
Q 1497 947 1637 672 
Q 1778 397 2119 397 
Q 2447 397 2597 656 
Q 2747 916 2747 1497 
L 2747 1825 
z
" transform="scale(0.015625)"/>
     </defs>
     <use xlink:href="#DejaVuSerif-Bold-45"/>
     <use xlink:href="#DejaVuSerif-Bold-76" transform="translate(76.220703 0)"/>
     <use xlink:href="#DejaVuSerif-Bold-65" transform="translate(134.326172 0)"/>
     <use xlink:href="#DejaVuSerif-Bold-6e" transform="translate(197.949219 0)"/>
     <use xlink:href="#DejaVuSerif-Bold-74" transform="translate(270.654297 0)"/>
     <use xlink:href="#DejaVuSerif-Bold-20" transform="translate(316.845703 0)"/>
     <use xlink:href="#DejaVuSerif-Bold-4d" transform="translate(351.660156 0)"/>
     <use xlink:href="#DejaVuSerif-Bold-61" transform="translate(462.353516 0)"/>
     <use xlink:href="#DejaVuSerif-Bold-70" transform="translate(527.148438 0)"/>
     <use xlink:href="#DejaVuSerif-Bold-70" transform="translate(597.070312 0)"/>
     <use xlink:href="#DejaVuSerif-Bold-69" transform="translate(666.992188 0)"/>
     <use xlink:href="#DejaVuSerif-Bold-6e" transform="translate(704.980469 0)"/>
     <use xlink:href="#DejaVuSerif-Bold-67" transform="translate(777.685547 0)"/>
    </g>
   </g>
   <g id="text_4">
    <!-- PROV-O entities -->
    <g style="fill: #122029" transform="translate(202.468219 161.541422) scale(0.09 -0.09)">
     <defs>
      <path id="DejaVuSerif-4f" d="M 2625 244 
Q 3391 244 3781 770 
Q 4172 1297 4172 2328 
Q 4172 3363 3781 3889 
Q 3391 4416 2625 4416 
Q 1856 4416 1465 3889 
Q 1075 3363 1075 2328 
Q 1075 1297 1465 770 
Q 1856 244 2625 244 
z
M 2625 -91 
Q 2150 -91 1751 65 
Q 1353 222 1050 525 
Q 700 875 529 1319 
Q 359 1763 359 2328 
Q 359 2894 529 3339 
Q 700 3784 1050 4134 
Q 1356 4441 1750 4595 
Q 2144 4750 2625 4750 
Q 3641 4750 4266 4084 
Q 4891 3419 4891 2328 
Q 4891 1769 4719 1320 
Q 4547 872 4197 525 
Q 3891 219 3497 64 
Q 3103 -91 2625 -91 
z
" transform="scale(0.015625)"/>
      <path id="DejaVuSerif-56" d="M 1119 4331 
L 2497 750 
L 3872 4331 
L 3347 4331 
L 3347 4666 
L 4716 4666 
L 4716 4331 
L 4263 4331 
L 2597 0 
L 2059 0 
L 403 4331 
L -63 4331 
L -63 4666 
L 1638 4666 
L 1638 4331 
L 1119 4331 
z
" transform="scale(0.015625)"/>
      <path id="DejaVuSerif-2d" d="M 281 1959 
L 1881 1959 
L 1881 1472 
L 281 1472 
L 281 1959 
z
" transform="scale(0.015625)"/>
      <path id="DejaVuSerif-6e" d="M 263 0 
L 263 331 
L 781 331 
L 781 2988 
L 231 2988 
L 231 3322 
L 1356 3322 
L 1356 2731 
Q 1516 3069 1770 3241 
Q 2025 3413 2363 3413 
Q 2913 3413 3172 3097 
Q 3431 2781 3431 2113 
L 3431 331 
L 3944 331 
L 3944 0 
L 2356 0 
L 2356 331 
L 2853 331 
L 2853 1931 
Q 2853 2541 2703 2767 
Q 2553 2994 2175 2994 
Q 1775 2994 1565 2701 
Q 1356 2409 1356 1850 
L 1356 331 
L 1856 331 
L 1856 0 
L 263 0 
z
" transform="scale(0.015625)"/>
     </defs>
     <use xlink:href="#DejaVuSerif-50"/>
     <use xlink:href="#DejaVuSerif-52" transform="translate(67.285156 0)"/>
     <use xlink:href="#DejaVuSerif-4f" transform="translate(142.578125 0)"/>
     <use xlink:href="#DejaVuSerif-56" transform="translate(222.810547 0)"/>
     <use xlink:href="#DejaVuSerif-2d" transform="translate(285.902344 0)"/>
     <use xlink:href="#DejaVuSerif-4f" transform="translate(319.691406 0)"/>
     <use xlink:href="#DejaVuSerif-20" transform="translate(401.673828 0)"/>
     <use xlink:href="#DejaVuSerif-65" transform="translate(433.460938 0)"/>
     <use xlink:href="#DejaVuSerif-6e" transform="translate(492.640625 0)"/>
     <use xlink:href="#DejaVuSerif-74" transform="translate(557.044922 0)"/>
     <use xlink:href="#DejaVuSerif-69" transform="translate(597.230469 0)"/>
     <use xlink:href="#DejaVuSerif-74" transform="translate(629.212891 0)"/>
     <use xlink:href="#DejaVuSerif-69" transform="translate(669.398438 0)"/>
     <use xlink:href="#DejaVuSerif-65" transform="translate(701.380859 0)"/>
     <use xlink:href="#DejaVuSerif-73" transform="translate(760.560547 0)"/>
    </g>
    <!-- activities / agents -->
    <g style="fill: #122029" transform="translate(198.731813 171.619453) scale(0.09 -0.09)">
     <use xlink:href="#DejaVuSerif-61"/>
     <use xlink:href="#DejaVuSerif-63" transform="translate(59.619141 0)"/>
     <use xlink:href="#DejaVuSerif-74" transform="translate(115.625 0)"/>
     <use xlink:href="#DejaVuSerif-69" transform="translate(155.810547 0)"/>
     <use xlink:href="#DejaVuSerif-76" transform="translate(187.792969 0)"/>
     <use xlink:href="#DejaVuSerif-69" transform="translate(244.287109 0)"/>
     <use xlink:href="#DejaVuSerif-74" transform="translate(276.269531 0)"/>
     <use xlink:href="#DejaVuSerif-69" transform="translate(316.455078 0)"/>
     <use xlink:href="#DejaVuSerif-65" transform="translate(348.4375 0)"/>
     <use xlink:href="#DejaVuSerif-73" transform="translate(407.617188 0)"/>
     <use xlink:href="#DejaVuSerif-20" transform="translate(458.935547 0)"/>
     <use xlink:href="#DejaVuSerif-2f" transform="translate(490.722656 0)"/>
     <use xlink:href="#DejaVuSerif-20" transform="translate(524.414062 0)"/>
     <use xlink:href="#DejaVuSerif-61" transform="translate(556.201172 0)"/>
     <use xlink:href="#DejaVuSerif-67" transform="translate(615.820312 0)"/>
     <use xlink:href="#DejaVuSerif-65" transform="translate(679.833984 0)"/>
     <use xlink:href="#DejaVuSerif-6e" transform="translate(739.013672 0)"/>
     <use xlink:href="#DejaVuSerif-74" transform="translate(803.417969 0)"/>
     <use xlink:href="#DejaVuSerif-73" transform="translate(843.603516 0)"/>
    </g>
    <!-- record normalization -->
    <g style="fill: #122029" transform="translate(191.002359 181.825453) scale(0.09 -0.09)">
     <defs>
      <path id="DejaVuSerif-6d" d="M 3316 2675 
Q 3481 3041 3739 3227 
Q 3997 3413 4341 3413 
Q 4863 3413 5119 3089 
Q 5375 2766 5375 2113 
L 5375 331 
L 5894 331 
L 5894 0 
L 4300 0 
L 4300 331 
L 4800 331 
L 4800 2047 
Q 4800 2556 4650 2772 
Q 4500 2988 4153 2988 
Q 3769 2988 3567 2697 
Q 3366 2406 3366 1850 
L 3366 331 
L 3866 331 
L 3866 0 
L 2291 0 
L 2291 331 
L 2791 331 
L 2791 2069 
Q 2791 2566 2641 2777 
Q 2491 2988 2144 2988 
Q 1759 2988 1557 2697 
Q 1356 2406 1356 1850 
L 1356 331 
L 1856 331 
L 1856 0 
L 263 0 
L 263 331 
L 781 331 
L 781 2994 
L 231 2994 
L 231 3322 
L 1356 3322 
L 1356 2731 
Q 1516 3063 1762 3238 
Q 2009 3413 2322 3413 
Q 2709 3413 2968 3220 
Q 3228 3028 3316 2675 
z
" transform="scale(0.015625)"/>
      <path id="DejaVuSerif-7a" d="M 256 0 
L 256 269 
L 2338 2988 
L 691 2988 
L 691 2413 
L 359 2413 
L 359 3322 
L 3078 3322 
L 3078 3053 
L 997 331 
L 2803 331 
L 2803 934 
L 3138 934 
L 3138 0 
L 256 0 
z
" transform="scale(0.015625)"/>
     </defs>
     <use xlink:href="#DejaVuSerif-72"/>
     <use xlink:href="#DejaVuSerif-65" transform="translate(47.802734 0)"/>
     <use xlink:href="#DejaVuSerif-63" transform="translate(106.982422 0)"/>
     <use xlink:href="#DejaVuSerif-6f" transform="translate(162.988281 0)"/>
     <use xlink:href="#DejaVuSerif-72" transform="translate(223.193359 0)"/>
     <use xlink:href="#DejaVuSerif-64" transform="translate(270.996094 0)"/>
     <use xlink:href="#DejaVuSerif-20" transform="translate(335.009766 0)"/>
     <use xlink:href="#DejaVuSerif-6e" transform="translate(366.796875 0)"/>
     <use xlink:href="#DejaVuSerif-6f" transform="translate(431.201172 0)"/>
     <use xlink:href="#DejaVuSerif-72" transform="translate(491.40625 0)"/>
     <use xlink:href="#DejaVuSerif-6d" transform="translate(539.208984 0)"/>
     <use xlink:href="#DejaVuSerif-61" transform="translate(634.033203 0)"/>
     <use xlink:href="#DejaVuSerif-6c" transform="translate(693.652344 0)"/>
     <use xlink:href="#DejaVuSerif-69" transform="translate(725.634766 0)"/>
     <use xlink:href="#DejaVuSerif-7a" transform="translate(757.617188 0)"/>
     <use xlink:href="#DejaVuSerif-61" transform="translate(810.302734 0)"/>
     <use xlink:href="#DejaVuSerif-74" transform="translate(869.921875 0)"/>
     <use xlink:href="#DejaVuSerif-69" transform="translate(910.107422 0)"/>
     <use xlink:href="#DejaVuSerif-6f" transform="translate(942.089844 0)"/>
     <use xlink:href="#DejaVuSerif-6e" transform="translate(1002.294922 0)"/>
    </g>
   </g>
   <g id="text_5">
    <!-- Shared Ontology Contract -->
    <g style="fill: #122029" transform="translate(306.62275 138.678281) scale(0.11 -0.11)">
     <defs>
      <path id="DejaVuSerif-Bold-68" d="M 219 0 
L 219 378 
L 691 378 
L 691 4488 
L 197 4488 
L 197 4863 
L 1797 4863 
L 1797 2853 
Q 1997 3150 2253 3281 
Q 2509 3413 2900 3413 
Q 3459 3413 3745 3083 
Q 4031 2753 4031 2113 
L 4031 378 
L 4506 378 
L 4506 0 
L 2522 0 
L 2522 378 
L 2925 378 
L 2925 2144 
Q 2925 2566 2817 2730 
Q 2709 2894 2444 2894 
Q 2109 2894 1953 2648 
Q 1797 2403 1797 1869 
L 1797 378 
L 2203 378 
L 2203 0 
L 219 0 
z
" transform="scale(0.015625)"/>
      <path id="DejaVuSerif-Bold-64" d="M 2747 1497 
L 2747 1825 
Q 2747 2406 2597 2665 
Q 2447 2925 2119 2925 
Q 1775 2925 1636 2651 
Q 1497 2378 1497 1663 
Q 1497 947 1637 672 
Q 1778 397 2119 397 
Q 2447 397 2597 656 
Q 2747 916 2747 1497 
z
M 3853 378 
L 4325 378 
L 4325 0 
L 2747 0 
L 2747 422 
Q 2606 163 2367 36 
Q 2128 -91 1778 -91 
Q 1072 -91 667 378 
Q 263 847 263 1663 
Q 263 2481 667 2947 
Q 1072 3413 1778 3413 
Q 2128 3413 2367 3286 
Q 2606 3159 2747 2900 
L 2747 4488 
L 2272 4488 
L 2272 4863 
L 3853 4863 
L 3853 378 
z
" transform="scale(0.015625)"/>
      <path id="DejaVuSerif-Bold-4f" d="M 2784 288 
Q 3381 288 3672 791 
Q 3963 1294 3963 2328 
Q 3963 3366 3672 3869 
Q 3381 4372 2784 4372 
Q 2191 4372 1898 3864 
Q 1606 3356 1606 2328 
Q 1606 1303 1898 795 
Q 2191 288 2784 288 
z
M 2784 -91 
Q 1606 -91 937 553 
Q 269 1197 269 2328 
Q 269 3459 939 4104 
Q 1609 4750 2784 4750 
Q 3963 4750 4631 4106 
Q 5300 3463 5300 2328 
Q 5300 1197 4629 553 
Q 3959 -91 2784 -91 
z
" transform="scale(0.015625)"/>
      <path id="DejaVuSerif-Bold-79" d="M 1997 -750 
Q 1847 -1116 1634 -1269 
Q 1422 -1422 1063 -1422 
Q 909 -1422 721 -1387 
Q 534 -1353 313 -1288 
L 313 -594 
L 666 -597 
Q 675 -838 779 -953 
Q 884 -1069 1094 -1069 
Q 1297 -1069 1422 -958 
Q 1547 -847 1672 -538 
L 1722 -422 
L 275 2944 
L -84 2944 
L -84 3322 
L 1831 3322 
L 1831 2944 
L 1434 2944 
L 2278 978 
L 3066 2944 
L 2625 2944 
L 2625 3322 
L 3872 3322 
L 3872 2944 
L 3469 2944 
L 1997 -750 
z
" transform="scale(0.015625)"/>
      <path id="DejaVuSerif-Bold-43" d="M 4769 1331 
Q 4584 609 4106 259 
Q 3628 -91 2822 -91 
Q 1641 -91 955 561 
Q 269 1213 269 2328 
Q 269 3447 955 4098 
Q 1641 4750 2822 4750 
Q 3238 4750 3688 4650 
Q 4138 4550 4641 4347 
L 4641 3200 
L 4244 3200 
Q 4122 3788 3800 4080 
Q 3478 4372 2950 4372 
Q 2269 4372 1937 3870 
Q 1606 3369 1606 2328 
Q 1606 1288 1937 788 
Q 2269 288 2956 288 
Q 3422 288 3717 547 
Q 4013 806 4147 1331 
L 4769 1331 
z
" transform="scale(0.015625)"/>
     </defs>
     <use xlink:href="#DejaVuSerif-Bold-53"/>
     <use xlink:href="#DejaVuSerif-Bold-68" transform="translate(72.216797 0)"/>
     <use xlink:href="#DejaVuSerif-Bold-61" transform="translate(144.921875 0)"/>
     <use xlink:href="#DejaVuSerif-Bold-72" transform="translate(209.716797 0)"/>
     <use xlink:href="#DejaVuSerif-Bold-65" transform="translate(262.402344 0)"/>
     <use xlink:href="#DejaVuSerif-Bold-64" transform="translate(326.025391 0)"/>
     <use xlink:href="#DejaVuSerif-Bold-20" transform="translate(395.947266 0)"/>
     <use xlink:href="#DejaVuSerif-Bold-4f" transform="translate(430.761719 0)"/>
     <use xlink:href="#DejaVuSerif-Bold-6e" transform="translate(517.871094 0)"/>
     <use xlink:href="#DejaVuSerif-Bold-74" transform="translate(590.576172 0)"/>
     <use xlink:href="#DejaVuSerif-Bold-6f" transform="translate(636.767578 0)"/>
     <use xlink:href="#DejaVuSerif-Bold-6c" transform="translate(703.466797 0)"/>
     <use xlink:href="#DejaVuSerif-Bold-6f" transform="translate(741.455078 0)"/>
     <use xlink:href="#DejaVuSerif-Bold-67" transform="translate(808.154297 0)"/>
     <use xlink:href="#DejaVuSerif-Bold-79" transform="translate(878.076172 0)"/>
     <use xlink:href="#DejaVuSerif-Bold-20" transform="translate(936.181641 0)"/>
     <use xlink:href="#DejaVuSerif-Bold-43" transform="translate(970.996094 0)"/>
     <use xlink:href="#DejaVuSerif-Bold-6f" transform="translate(1050.585938 0)"/>
     <use xlink:href="#DejaVuSerif-Bold-6e" transform="translate(1117.285156 0)"/>
     <use xlink:href="#DejaVuSerif-Bold-74" transform="translate(1189.990234 0)"/>
     <use xlink:href="#DejaVuSerif-Bold-72" transform="translate(1236.181641 0)"/>
     <use xlink:href="#DejaVuSerif-Bold-61" transform="translate(1288.867188 0)"/>
     <use xlink:href="#DejaVuSerif-Bold-63" transform="translate(1353.662109 0)"/>
     <use xlink:href="#DejaVuSerif-Bold-74" transform="translate(1414.550781 0)"/>
    </g>
   </g>
   <g id="text_6">
    <!-- PROV-O core -->
    <g style="fill: #122029" transform="translate(357.414469 161.541422) scale(0.09 -0.09)">
     <use xlink:href="#DejaVuSerif-50"/>
     <use xlink:href="#DejaVuSerif-52" transform="translate(67.285156 0)"/>
     <use xlink:href="#DejaVuSerif-4f" transform="translate(142.578125 0)"/>
     <use xlink:href="#DejaVuSerif-56" transform="translate(222.810547 0)"/>
     <use xlink:href="#DejaVuSerif-2d" transform="translate(285.902344 0)"/>
     <use xlink:href="#DejaVuSerif-4f" transform="translate(319.691406 0)"/>
     <use xlink:href="#DejaVuSerif-20" transform="translate(401.673828 0)"/>
     <use xlink:href="#DejaVuSerif-63" transform="translate(433.460938 0)"/>
     <use xlink:href="#DejaVuSerif-6f" transform="translate(489.466797 0)"/>
     <use xlink:href="#DejaVuSerif-72" transform="translate(549.671875 0)"/>
     <use xlink:href="#DejaVuSerif-65" transform="translate(597.474609 0)"/>
    </g>
    <!-- network extension -->
    <g style="fill: #122029" transform="translate(344.798297 171.619453) scale(0.09 -0.09)">
     <defs>
      <path id="DejaVuSerif-77" d="M 3072 3322 
L 3922 728 
L 4672 2988 
L 4191 2988 
L 4191 3322 
L 5394 3322 
L 5394 2988 
L 5025 2988 
L 4038 0 
L 3559 0 
L 2741 2484 
L 1919 0 
L 1459 0 
L 475 2988 
L 103 2988 
L 103 3322 
L 1606 3322 
L 1606 2988 
L 1069 2988 
L 1813 728 
L 2669 3322 
L 3072 3322 
z
" transform="scale(0.015625)"/>
      <path id="DejaVuSerif-6b" d="M 1831 0 
L 219 0 
L 219 331 
L 738 331 
L 738 4531 
L 184 4531 
L 184 4863 
L 1313 4863 
L 1313 1697 
L 2713 2988 
L 2234 2988 
L 2234 3322 
L 3738 3322 
L 3738 2988 
L 3169 2988 
L 2181 2075 
L 3444 331 
L 3922 331 
L 3922 0 
L 2284 0 
L 2284 331 
L 2759 331 
L 1766 1697 
L 1313 1275 
L 1313 331 
L 1831 331 
L 1831 0 
z
" transform="scale(0.015625)"/>
      <path id="DejaVuSerif-78" d="M 1863 2028 
L 2559 2988 
L 2113 2988 
L 2113 3322 
L 3391 3322 
L 3391 2988 
L 2950 2988 
L 2059 1759 
L 3097 331 
L 3531 331 
L 3531 0 
L 1997 0 
L 1997 331 
L 2419 331 
L 1697 1325 
L 972 331 
L 1403 331 
L 1403 0 
L 141 0 
L 141 331 
L 581 331 
L 1497 1594 
L 488 2988 
L 78 2988 
L 78 3322 
L 1563 3322 
L 1563 2988 
L 1166 2988 
L 1863 2028 
z
" transform="scale(0.015625)"/>
     </defs>
     <use xlink:href="#DejaVuSerif-6e"/>
     <use xlink:href="#DejaVuSerif-65" transform="translate(64.404297 0)"/>
     <use xlink:href="#DejaVuSerif-74" transform="translate(123.583984 0)"/>
     <use xlink:href="#DejaVuSerif-77" transform="translate(163.769531 0)"/>
     <use xlink:href="#DejaVuSerif-6f" transform="translate(249.365234 0)"/>
     <use xlink:href="#DejaVuSerif-72" transform="translate(309.570312 0)"/>
     <use xlink:href="#DejaVuSerif-6b" transform="translate(357.373047 0)"/>
     <use xlink:href="#DejaVuSerif-20" transform="translate(417.96875 0)"/>
     <use xlink:href="#DejaVuSerif-65" transform="translate(449.755859 0)"/>
     <use xlink:href="#DejaVuSerif-78" transform="translate(508.935547 0)"/>
     <use xlink:href="#DejaVuSerif-74" transform="translate(565.332031 0)"/>
     <use xlink:href="#DejaVuSerif-65" transform="translate(605.517578 0)"/>
     <use xlink:href="#DejaVuSerif-6e" transform="translate(664.697266 0)"/>
     <use xlink:href="#DejaVuSerif-73" transform="translate(729.101562 0)"/>
     <use xlink:href="#DejaVuSerif-69" transform="translate(780.419922 0)"/>
     <use xlink:href="#DejaVuSerif-6f" transform="translate(812.402344 0)"/>
     <use xlink:href="#DejaVuSerif-6e" transform="translate(872.607422 0)"/>
    </g>
    <!-- SHACL + package hash -->
    <g style="fill: #122029" transform="translate(332.388141 181.697484) scale(0.09 -0.09)">
     <defs>
      <path id="DejaVuSerif-48" d="M 353 0 
L 353 331 
L 947 331 
L 947 4331 
L 353 4331 
L 353 4666 
L 2175 4666 
L 2175 4331 
L 1581 4331 
L 1581 2719 
L 4000 2719 
L 4000 4331 
L 3406 4331 
L 3406 4666 
L 5228 4666 
L 5228 4331 
L 4634 4331 
L 4634 331 
L 5228 331 
L 5228 0 
L 3406 0 
L 3406 331 
L 4000 331 
L 4000 2338 
L 1581 2338 
L 1581 331 
L 2175 331 
L 2175 0 
L 353 0 
z
" transform="scale(0.015625)"/>
      <path id="DejaVuSerif-41" d="M 1281 1691 
L 2994 1691 
L 2138 3909 
L 1281 1691 
z
M -38 0 
L -38 331 
L 372 331 
L 2034 4666 
L 2559 4666 
L 4225 331 
L 4684 331 
L 4684 0 
L 2988 0 
L 2988 331 
L 3506 331 
L 3116 1356 
L 1153 1356 
L 763 331 
L 1275 331 
L 1275 0 
L -38 0 
z
" transform="scale(0.015625)"/>
      <path id="DejaVuSerif-43" d="M 4513 1234 
Q 4306 581 3820 245 
Q 3334 -91 2591 -91 
Q 2134 -91 1743 65 
Q 1353 222 1050 525 
Q 700 875 529 1320 
Q 359 1766 359 2328 
Q 359 3416 987 4083 
Q 1616 4750 2644 4750 
Q 3025 4750 3456 4650 
Q 3888 4550 4384 4347 
L 4384 3272 
L 4031 3272 
Q 3916 3859 3567 4137 
Q 3219 4416 2591 4416 
Q 1844 4416 1459 3886 
Q 1075 3356 1075 2328 
Q 1075 1303 1459 773 
Q 1844 244 2591 244 
Q 3113 244 3450 492 
Q 3788 741 3938 1234 
L 4513 1234 
z
" transform="scale(0.015625)"/>
      <path id="DejaVuSerif-4c" d="M 353 0 
L 353 331 
L 947 331 
L 947 4331 
L 353 4331 
L 353 4666 
L 2175 4666 
L 2175 4331 
L 1581 4331 
L 1581 384 
L 3713 384 
L 3713 1166 
L 4097 1166 
L 4097 0 
L 353 0 
z
" transform="scale(0.015625)"/>
      <path id="DejaVuSerif-2b" d="M 2931 4013 
L 2931 2259 
L 4684 2259 
L 4684 1753 
L 2931 1753 
L 2931 0 
L 2431 0 
L 2431 1753 
L 678 1753 
L 678 2259 
L 2431 2259 
L 2431 4013 
L 2931 4013 
z
" transform="scale(0.015625)"/>
      <path id="DejaVuSerif-70" d="M 1313 1825 
L 1313 1497 
Q 1313 897 1542 583 
Q 1772 269 2209 269 
Q 2650 269 2876 622 
Q 3103 975 3103 1663 
Q 3103 2353 2876 2703 
Q 2650 3053 2209 3053 
Q 1772 3053 1542 2737 
Q 1313 2422 1313 1825 
z
M 738 2988 
L 184 2988 
L 184 3322 
L 1313 3322 
L 1313 2803 
Q 1481 3116 1742 3264 
Q 2003 3413 2388 3413 
Q 3000 3413 3387 2928 
Q 3775 2444 3775 1663 
Q 3775 881 3387 395 
Q 3000 -91 2388 -91 
Q 2003 -91 1742 57 
Q 1481 206 1313 519 
L 1313 -997 
L 1856 -997 
L 1856 -1331 
L 184 -1331 
L 184 -997 
L 738 -997 
L 738 2988 
z
" transform="scale(0.015625)"/>
     </defs>
     <use xlink:href="#DejaVuSerif-53"/>
     <use xlink:href="#DejaVuSerif-48" transform="translate(68.505859 0)"/>
     <use xlink:href="#DejaVuSerif-41" transform="translate(155.712891 0)"/>
     <use xlink:href="#DejaVuSerif-43" transform="translate(227.929688 0)"/>
     <use xlink:href="#DejaVuSerif-4c" transform="translate(304.443359 0)"/>
     <use xlink:href="#DejaVuSerif-20" transform="translate(370.849609 0)"/>
     <use xlink:href="#DejaVuSerif-2b" transform="translate(402.636719 0)"/>
     <use xlink:href="#DejaVuSerif-20" transform="translate(486.425781 0)"/>
     <use xlink:href="#DejaVuSerif-70" transform="translate(518.212891 0)"/>
     <use xlink:href="#DejaVuSerif-61" transform="translate(582.226562 0)"/>
     <use xlink:href="#DejaVuSerif-63" transform="translate(641.845703 0)"/>
     <use xlink:href="#DejaVuSerif-6b" transform="translate(697.851562 0)"/>
     <use xlink:href="#DejaVuSerif-61" transform="translate(758.447266 0)"/>
     <use xlink:href="#DejaVuSerif-67" transform="translate(818.066406 0)"/>
     <use xlink:href="#DejaVuSerif-65" transform="translate(882.080078 0)"/>
     <use xlink:href="#DejaVuSerif-20" transform="translate(941.259766 0)"/>
     <use xlink:href="#DejaVuSerif-68" transform="translate(973.046875 0)"/>
     <use xlink:href="#DejaVuSerif-61" transform="translate(1037.451172 0)"/>
     <use xlink:href="#DejaVuSerif-73" transform="translate(1097.070312 0)"/>
     <use xlink:href="#DejaVuSerif-68" transform="translate(1148.388672 0)"/>
    </g>
   </g>
   <g id="text_7">
    <!-- Semantic Admission -->
    <g style="fill: #122029" transform="translate(511.661953 138.678281) scale(0.11 -0.11)">
     <defs>
      <path id="DejaVuSerif-Bold-6d" d="M 3884 2778 
Q 4116 3109 4384 3261 
Q 4653 3413 5013 3413 
Q 5584 3413 5867 3089 
Q 6150 2766 6150 2113 
L 6150 378 
L 6625 378 
L 6625 0 
L 4647 0 
L 4647 378 
L 5044 378 
L 5044 1947 
Q 5044 2569 4948 2731 
Q 4853 2894 4594 2894 
Q 4300 2894 4137 2667 
Q 3975 2441 3975 2022 
L 3975 378 
L 4372 378 
L 4372 0 
L 2472 0 
L 2472 378 
L 2869 378 
L 2869 1947 
Q 2869 2569 2772 2731 
Q 2675 2894 2419 2894 
Q 2122 2894 1959 2667 
Q 1797 2441 1797 2022 
L 1797 378 
L 2194 378 
L 2194 0 
L 219 0 
L 219 378 
L 691 378 
L 691 2944 
L 219 2944 
L 219 3322 
L 1797 3322 
L 1797 2853 
Q 1991 3144 2241 3278 
Q 2491 3413 2834 3413 
Q 3241 3413 3494 3258 
Q 3747 3103 3884 2778 
z
" transform="scale(0.015625)"/>
      <path id="DejaVuSerif-Bold-41" d="M -50 0 
L -50 378 
L 331 378 
L 2088 4666 
L 2834 4666 
L 4594 378 
L 5038 378 
L 5038 0 
L 2853 0 
L 2853 378 
L 3309 378 
L 2925 1331 
L 1172 1331 
L 781 378 
L 1338 378 
L 1338 0 
L -50 0 
z
M 1325 1709 
L 2772 1709 
L 2053 3494 
L 1325 1709 
z
" transform="scale(0.015625)"/>
      <path id="DejaVuSerif-Bold-73" d="M 300 97 
L 300 1025 
L 653 1025 
Q 697 653 931 458 
Q 1166 263 1569 263 
Q 1906 263 2086 380 
Q 2266 497 2266 716 
Q 2266 916 2152 1025 
Q 2038 1134 1709 1216 
L 1253 1331 
Q 738 1459 506 1698 
Q 275 1938 275 2344 
Q 275 2884 650 3148 
Q 1025 3413 1806 3413 
Q 2100 3413 2433 3364 
Q 2766 3316 3169 3213 
L 3169 2375 
L 2816 2375 
Q 2788 2716 2573 2887 
Q 2359 3059 1959 3059 
Q 1622 3059 1448 2951 
Q 1275 2844 1275 2638 
Q 1275 2469 1375 2372 
Q 1475 2275 1734 2209 
L 2188 2094 
Q 2841 1928 3091 1684 
Q 3341 1441 3341 1006 
Q 3341 444 2939 176 
Q 2538 -91 1691 -91 
Q 1381 -91 1034 -44 
Q 688 3 300 97 
z
" transform="scale(0.015625)"/>
     </defs>
     <use xlink:href="#DejaVuSerif-Bold-53"/>
     <use xlink:href="#DejaVuSerif-Bold-65" transform="translate(72.216797 0)"/>
     <use xlink:href="#DejaVuSerif-Bold-6d" transform="translate(135.839844 0)"/>
     <use xlink:href="#DejaVuSerif-Bold-61" transform="translate(241.650391 0)"/>
     <use xlink:href="#DejaVuSerif-Bold-6e" transform="translate(306.445312 0)"/>
     <use xlink:href="#DejaVuSerif-Bold-74" transform="translate(379.150391 0)"/>
     <use xlink:href="#DejaVuSerif-Bold-69" transform="translate(425.341797 0)"/>
     <use xlink:href="#DejaVuSerif-Bold-63" transform="translate(463.330078 0)"/>
     <use xlink:href="#DejaVuSerif-Bold-20" transform="translate(524.21875 0)"/>
     <use xlink:href="#DejaVuSerif-Bold-41" transform="translate(559.033203 0)"/>
     <use xlink:href="#DejaVuSerif-Bold-64" transform="translate(636.621094 0)"/>
     <use xlink:href="#DejaVuSerif-Bold-6d" transform="translate(706.542969 0)"/>
     <use xlink:href="#DejaVuSerif-Bold-69" transform="translate(812.353516 0)"/>
     <use xlink:href="#DejaVuSerif-Bold-73" transform="translate(850.341797 0)"/>
     <use xlink:href="#DejaVuSerif-Bold-73" transform="translate(906.640625 0)"/>
     <use xlink:href="#DejaVuSerif-Bold-69" transform="translate(962.939453 0)"/>
     <use xlink:href="#DejaVuSerif-Bold-6f" transform="translate(1000.927734 0)"/>
     <use xlink:href="#DejaVuSerif-Bold-6e" transform="translate(1067.626953 0)"/>
    </g>
   </g>
   <g id="text_8">
    <!-- OntologyManager -->
    <g style="fill: #122029" transform="translate(533.136094 161.477437) scale(0.09 -0.09)">
     <defs>
      <path id="DejaVuSerif-79" d="M 1381 -609 
L 1600 -56 
L 359 2988 
L -19 2988 
L -19 3322 
L 1509 3322 
L 1509 2988 
L 978 2988 
L 1913 703 
L 2847 2988 
L 2350 2988 
L 2350 3322 
L 3597 3322 
L 3597 2988 
L 3225 2988 
L 1703 -750 
Q 1547 -1138 1356 -1280 
Q 1166 -1422 819 -1422 
Q 672 -1422 517 -1397 
Q 363 -1372 206 -1325 
L 206 -691 
L 500 -691 
Q 519 -903 608 -995 
Q 697 -1088 884 -1088 
Q 1056 -1088 1161 -992 
Q 1266 -897 1381 -609 
z
" transform="scale(0.015625)"/>
     </defs>
     <use xlink:href="#DejaVuSerif-4f"/>
     <use xlink:href="#DejaVuSerif-6e" transform="translate(81.982422 0)"/>
     <use xlink:href="#DejaVuSerif-74" transform="translate(146.386719 0)"/>
     <use xlink:href="#DejaVuSerif-6f" transform="translate(186.572266 0)"/>
     <use xlink:href="#DejaVuSerif-6c" transform="translate(246.777344 0)"/>
     <use xlink:href="#DejaVuSerif-6f" transform="translate(278.759766 0)"/>
     <use xlink:href="#DejaVuSerif-67" transform="translate(338.964844 0)"/>
     <use xlink:href="#DejaVuSerif-79" transform="translate(402.978516 0)"/>
     <use xlink:href="#DejaVuSerif-4d" transform="translate(459.472656 0)"/>
     <use xlink:href="#DejaVuSerif-61" transform="translate(561.865234 0)"/>
     <use xlink:href="#DejaVuSerif-6e" transform="translate(621.484375 0)"/>
     <use xlink:href="#DejaVuSerif-61" transform="translate(685.888672 0)"/>
     <use xlink:href="#DejaVuSerif-67" transform="translate(745.507812 0)"/>
     <use xlink:href="#DejaVuSerif-65" transform="translate(809.521484 0)"/>
     <use xlink:href="#DejaVuSerif-72" transform="translate(868.701172 0)"/>
    </g>
    <!-- SHACL validation -->
    <g style="fill: #122029" transform="translate(533.738672 171.683437) scale(0.09 -0.09)">
     <use xlink:href="#DejaVuSerif-53"/>
     <use xlink:href="#DejaVuSerif-48" transform="translate(68.505859 0)"/>
     <use xlink:href="#DejaVuSerif-41" transform="translate(155.712891 0)"/>
     <use xlink:href="#DejaVuSerif-43" transform="translate(227.929688 0)"/>
     <use xlink:href="#DejaVuSerif-4c" transform="translate(304.443359 0)"/>
     <use xlink:href="#DejaVuSerif-20" transform="translate(370.849609 0)"/>
     <use xlink:href="#DejaVuSerif-76" transform="translate(402.636719 0)"/>
     <use xlink:href="#DejaVuSerif-61" transform="translate(459.130859 0)"/>
     <use xlink:href="#DejaVuSerif-6c" transform="translate(518.75 0)"/>
     <use xlink:href="#DejaVuSerif-69" transform="translate(550.732422 0)"/>
     <use xlink:href="#DejaVuSerif-64" transform="translate(582.714844 0)"/>
     <use xlink:href="#DejaVuSerif-61" transform="translate(646.728516 0)"/>
     <use xlink:href="#DejaVuSerif-74" transform="translate(706.347656 0)"/>
     <use xlink:href="#DejaVuSerif-69" transform="translate(746.533203 0)"/>
     <use xlink:href="#DejaVuSerif-6f" transform="translate(778.515625 0)"/>
     <use xlink:href="#DejaVuSerif-6e" transform="translate(838.720703 0)"/>
    </g>
    <!-- SPACL reasoning -->
    <g style="fill: #122029" transform="translate(534.936797 181.761469) scale(0.09 -0.09)">
     <use xlink:href="#DejaVuSerif-53"/>
     <use xlink:href="#DejaVuSerif-50" transform="translate(68.505859 0)"/>
     <use xlink:href="#DejaVuSerif-41" transform="translate(126.666016 0)"/>
     <use xlink:href="#DejaVuSerif-43" transform="translate(198.882812 0)"/>
     <use xlink:href="#DejaVuSerif-4c" transform="translate(275.396484 0)"/>
     <use xlink:href="#DejaVuSerif-20" transform="translate(341.802734 0)"/>
     <use xlink:href="#DejaVuSerif-72" transform="translate(373.589844 0)"/>
     <use xlink:href="#DejaVuSerif-65" transform="translate(421.392578 0)"/>
     <use xlink:href="#DejaVuSerif-61" transform="translate(480.572266 0)"/>
     <use xlink:href="#DejaVuSerif-73" transform="translate(540.191406 0)"/>
     <use xlink:href="#DejaVuSerif-6f" transform="translate(591.509766 0)"/>
     <use xlink:href="#DejaVuSerif-6e" transform="translate(651.714844 0)"/>
     <use xlink:href="#DejaVuSerif-69" transform="translate(716.119141 0)"/>
     <use xlink:href="#DejaVuSerif-6e" transform="translate(748.101562 0)"/>
     <use xlink:href="#DejaVuSerif-67" transform="translate(812.505859 0)"/>
    </g>
   </g>
   <g id="text_9">
    <!-- Consensus + Commit -->
    <g style="fill: #122029" transform="translate(676.483938 138.678281) scale(0.11 -0.11)">
     <defs>
      <path id="DejaVuSerif-Bold-2b" d="M 3041 4013 
L 3041 2369 
L 4684 2369 
L 4684 1650 
L 3041 1650 
L 3041 6 
L 2322 6 
L 2322 1650 
L 678 1650 
L 678 2369 
L 2322 2369 
L 2322 4013 
L 3041 4013 
z
" transform="scale(0.015625)"/>
     </defs>
     <use xlink:href="#DejaVuSerif-Bold-43"/>
     <use xlink:href="#DejaVuSerif-Bold-6f" transform="translate(79.589844 0)"/>
     <use xlink:href="#DejaVuSerif-Bold-6e" transform="translate(146.289062 0)"/>
     <use xlink:href="#DejaVuSerif-Bold-73" transform="translate(218.994141 0)"/>
     <use xlink:href="#DejaVuSerif-Bold-65" transform="translate(275.292969 0)"/>
     <use xlink:href="#DejaVuSerif-Bold-6e" transform="translate(338.916016 0)"/>
     <use xlink:href="#DejaVuSerif-Bold-73" transform="translate(411.621094 0)"/>
     <use xlink:href="#DejaVuSerif-Bold-75" transform="translate(467.919922 0)"/>
     <use xlink:href="#DejaVuSerif-Bold-73" transform="translate(540.625 0)"/>
     <use xlink:href="#DejaVuSerif-Bold-20" transform="translate(596.923828 0)"/>
     <use xlink:href="#DejaVuSerif-Bold-2b" transform="translate(631.738281 0)"/>
     <use xlink:href="#DejaVuSerif-Bold-20" transform="translate(715.527344 0)"/>
     <use xlink:href="#DejaVuSerif-Bold-43" transform="translate(750.341797 0)"/>
     <use xlink:href="#DejaVuSerif-Bold-6f" transform="translate(829.931641 0)"/>
     <use xlink:href="#DejaVuSerif-Bold-6d" transform="translate(896.630859 0)"/>
     <use xlink:href="#DejaVuSerif-Bold-6d" transform="translate(1002.441406 0)"/>
     <use xlink:href="#DejaVuSerif-Bold-69" transform="translate(1108.251953 0)"/>
     <use xlink:href="#DejaVuSerif-Bold-74" transform="translate(1146.240234 0)"/>
    </g>
   </g>
   <g id="text_10">
    <!-- Blockchain Core -->
    <g style="fill: #122029" transform="translate(704.530266 161.605406) scale(0.09 -0.09)">
     <defs>
      <path id="DejaVuSerif-42" d="M 1581 331 
L 2516 331 
Q 3078 331 3337 575 
Q 3597 819 3597 1350 
Q 3597 1878 3339 2120 
Q 3081 2363 2516 2363 
L 1581 2363 
L 1581 331 
z
M 1581 2694 
L 2375 2694 
Q 2888 2694 3123 2891 
Q 3359 3088 3359 3513 
Q 3359 3941 3123 4136 
Q 2888 4331 2375 4331 
L 1581 4331 
L 1581 2694 
z
M 353 0 
L 353 331 
L 947 331 
L 947 4331 
L 353 4331 
L 353 4666 
L 2656 4666 
Q 3363 4666 3720 4377 
Q 4078 4088 4078 3513 
Q 4078 3097 3829 2850 
Q 3581 2603 3103 2547 
Q 3697 2472 4005 2167 
Q 4313 1863 4313 1350 
Q 4313 656 3875 328 
Q 3438 0 2509 0 
L 353 0 
z
" transform="scale(0.015625)"/>
     </defs>
     <use xlink:href="#DejaVuSerif-42"/>
     <use xlink:href="#DejaVuSerif-6c" transform="translate(73.486328 0)"/>
     <use xlink:href="#DejaVuSerif-6f" transform="translate(105.46875 0)"/>
     <use xlink:href="#DejaVuSerif-63" transform="translate(165.673828 0)"/>
     <use xlink:href="#DejaVuSerif-6b" transform="translate(221.679688 0)"/>
     <use xlink:href="#DejaVuSerif-63" transform="translate(282.275391 0)"/>
     <use xlink:href="#DejaVuSerif-68" transform="translate(338.28125 0)"/>
     <use xlink:href="#DejaVuSerif-61" transform="translate(402.685547 0)"/>
     <use xlink:href="#DejaVuSerif-69" transform="translate(462.304688 0)"/>
     <use xlink:href="#DejaVuSerif-6e" transform="translate(494.287109 0)"/>
     <use xlink:href="#DejaVuSerif-20" transform="translate(558.691406 0)"/>
     <use xlink:href="#DejaVuSerif-43" transform="translate(590.478516 0)"/>
     <use xlink:href="#DejaVuSerif-6f" transform="translate(666.992188 0)"/>
     <use xlink:href="#DejaVuSerif-72" transform="translate(727.197266 0)"/>
     <use xlink:href="#DejaVuSerif-65" transform="translate(775 0)"/>
    </g>
    <!-- PoA / PBFT -->
    <g style="fill: #122029" transform="translate(716.426438 171.683437) scale(0.09 -0.09)">
     <defs>
      <path id="DejaVuSerif-46" d="M 353 0 
L 353 331 
L 947 331 
L 947 4331 
L 353 4331 
L 353 4666 
L 4172 4666 
L 4172 3628 
L 3788 3628 
L 3788 4281 
L 1581 4281 
L 1581 2719 
L 3175 2719 
L 3175 3303 
L 3559 3303 
L 3559 1753 
L 3175 1753 
L 3175 2338 
L 1581 2338 
L 1581 331 
L 2328 331 
L 2328 0 
L 353 0 
z
" transform="scale(0.015625)"/>
      <path id="DejaVuSerif-54" d="M 1222 0 
L 1222 331 
L 1819 331 
L 1819 4294 
L 447 4294 
L 447 3566 
L 63 3566 
L 63 4666 
L 4206 4666 
L 4206 3566 
L 3822 3566 
L 3822 4294 
L 2450 4294 
L 2450 331 
L 3047 331 
L 3047 0 
L 1222 0 
z
" transform="scale(0.015625)"/>
     </defs>
     <use xlink:href="#DejaVuSerif-50"/>
     <use xlink:href="#DejaVuSerif-6f" transform="translate(63.285156 0)"/>
     <use xlink:href="#DejaVuSerif-41" transform="translate(123.490234 0)"/>
     <use xlink:href="#DejaVuSerif-20" transform="translate(195.707031 0)"/>
     <use xlink:href="#DejaVuSerif-2f" transform="translate(227.494141 0)"/>
     <use xlink:href="#DejaVuSerif-20" transform="translate(261.185547 0)"/>
     <use xlink:href="#DejaVuSerif-50" transform="translate(292.972656 0)"/>
     <use xlink:href="#DejaVuSerif-42" transform="translate(360.257812 0)"/>
     <use xlink:href="#DejaVuSerif-46" transform="translate(433.744141 0)"/>
     <use xlink:href="#DejaVuSerif-54" transform="translate(503.128906 0)"/>
    </g>
    <!-- immutable block commit -->
    <g style="fill: #122029" transform="translate(685.573313 181.761469) scale(0.09 -0.09)">
     <defs>
      <path id="DejaVuSerif-75" d="M 2266 3322 
L 3341 3322 
L 3341 331 
L 3884 331 
L 3884 0 
L 2766 0 
L 2766 588 
Q 2606 256 2353 82 
Q 2100 -91 1766 -91 
Q 1213 -91 952 223 
Q 691 538 691 1209 
L 691 2988 
L 172 2988 
L 172 3322 
L 1269 3322 
L 1269 1388 
Q 1269 781 1417 556 
Q 1566 331 1947 331 
Q 2347 331 2556 625 
Q 2766 919 2766 1478 
L 2766 2988 
L 2266 2988 
L 2266 3322 
z
" transform="scale(0.015625)"/>
     </defs>
     <use xlink:href="#DejaVuSerif-69"/>
     <use xlink:href="#DejaVuSerif-6d" transform="translate(31.982422 0)"/>
     <use xlink:href="#DejaVuSerif-6d" transform="translate(126.806641 0)"/>
     <use xlink:href="#DejaVuSerif-75" transform="translate(221.630859 0)"/>
     <use xlink:href="#DejaVuSerif-74" transform="translate(286.035156 0)"/>
     <use xlink:href="#DejaVuSerif-61" transform="translate(326.220703 0)"/>
     <use xlink:href="#DejaVuSerif-62" transform="translate(385.839844 0)"/>
     <use xlink:href="#DejaVuSerif-6c" transform="translate(449.853516 0)"/>
     <use xlink:href="#DejaVuSerif-65" transform="translate(481.835938 0)"/>
     <use xlink:href="#DejaVuSerif-20" transform="translate(541.015625 0)"/>
     <use xlink:href="#DejaVuSerif-62" transform="translate(572.802734 0)"/>
     <use xlink:href="#DejaVuSerif-6c" transform="translate(636.816406 0)"/>
     <use xlink:href="#DejaVuSerif-6f" transform="translate(668.798828 0)"/>
     <use xlink:href="#DejaVuSerif-63" transform="translate(729.003906 0)"/>
     <use xlink:href="#DejaVuSerif-6b" transform="translate(785.009766 0)"/>
     <use xlink:href="#DejaVuSerif-20" transform="translate(845.605469 0)"/>
     <use xlink:href="#DejaVuSerif-63" transform="translate(877.392578 0)"/>
     <use xlink:href="#DejaVuSerif-6f" transform="translate(933.398438 0)"/>
     <use xlink:href="#DejaVuSerif-6d" transform="translate(993.603516 0)"/>
     <use xlink:href="#DejaVuSerif-6d" transform="translate(1088.427734 0)"/>
     <use xlink:href="#DejaVuSerif-69" transform="translate(1183.251953 0)"/>
     <use xlink:href="#DejaVuSerif-74" transform="translate(1215.234375 0)"/>
    </g>
   </g>
   <g id="text_11">
    <!-- Traceability Output -->
    <g style="fill: #122029" transform="translate(849.708891 138.678281) scale(0.11 -0.11)">
     <defs>
      <path id="DejaVuSerif-Bold-54" d="M 1159 0 
L 1159 378 
L 1778 378 
L 1778 4238 
L 500 4238 
L 500 3500 
L 72 3500 
L 72 4666 
L 4697 4666 
L 4697 3500 
L 4275 3500 
L 4275 4238 
L 2988 4238 
L 2988 378 
L 3609 378 
L 3609 0 
L 1159 0 
z
" transform="scale(0.015625)"/>
      <path id="DejaVuSerif-Bold-62" d="M 622 378 
L 622 4488 
L 147 4488 
L 147 4863 
L 1728 4863 
L 1728 2900 
Q 1869 3159 2106 3286 
Q 2344 3413 2694 3413 
Q 3403 3413 3811 2945 
Q 4219 2478 4219 1663 
Q 4219 847 3811 378 
Q 3403 -91 2694 -91 
Q 2344 -91 2106 36 
Q 1869 163 1728 422 
L 1728 0 
L 147 0 
L 147 378 
L 622 378 
z
M 1728 1497 
Q 1728 916 1876 656 
Q 2025 397 2356 397 
Q 2697 397 2836 672 
Q 2975 947 2975 1663 
Q 2975 2378 2836 2651 
Q 2697 2925 2356 2925 
Q 2025 2925 1876 2665 
Q 1728 2406 1728 1825 
L 1728 1497 
z
" transform="scale(0.015625)"/>
     </defs>
     <use xlink:href="#DejaVuSerif-Bold-54"/>
     <use xlink:href="#DejaVuSerif-Bold-72" transform="translate(67.164062 0)"/>
     <use xlink:href="#DejaVuSerif-Bold-61" transform="translate(119.849609 0)"/>
     <use xlink:href="#DejaVuSerif-Bold-63" transform="translate(184.644531 0)"/>
     <use xlink:href="#DejaVuSerif-Bold-65" transform="translate(245.533203 0)"/>
     <use xlink:href="#DejaVuSerif-Bold-61" transform="translate(309.15625 0)"/>
     <use xlink:href="#DejaVuSerif-Bold-62" transform="translate(373.951172 0)"/>
     <use xlink:href="#DejaVuSerif-Bold-69" transform="translate(443.873047 0)"/>
     <use xlink:href="#DejaVuSerif-Bold-6c" transform="translate(481.861328 0)"/>
     <use xlink:href="#DejaVuSerif-Bold-69" transform="translate(519.849609 0)"/>
     <use xlink:href="#DejaVuSerif-Bold-74" transform="translate(557.837891 0)"/>
     <use xlink:href="#DejaVuSerif-Bold-79" transform="translate(604.029297 0)"/>
     <use xlink:href="#DejaVuSerif-Bold-20" transform="translate(662.134766 0)"/>
     <use xlink:href="#DejaVuSerif-Bold-4f" transform="translate(696.949219 0)"/>
     <use xlink:href="#DejaVuSerif-Bold-75" transform="translate(784.058594 0)"/>
     <use xlink:href="#DejaVuSerif-Bold-74" transform="translate(856.763672 0)"/>
     <use xlink:href="#DejaVuSerif-Bold-70" transform="translate(902.955078 0)"/>
     <use xlink:href="#DejaVuSerif-Bold-75" transform="translate(972.876953 0)"/>
     <use xlink:href="#DejaVuSerif-Bold-74" transform="translate(1045.582031 0)"/>
    </g>
   </g>
   <g id="text_12">
    <!-- RDF provenance graph -->
    <g style="fill: #122029" transform="translate(856.673578 161.477437) scale(0.09 -0.09)">
     <defs>
      <path id="DejaVuSerif-44" d="M 1581 331 
L 2163 331 
Q 3072 331 3558 850 
Q 4044 1369 4044 2338 
Q 4044 3306 3559 3818 
Q 3075 4331 2163 4331 
L 1581 4331 
L 1581 331 
z
M 353 0 
L 353 331 
L 947 331 
L 947 4331 
L 353 4331 
L 353 4666 
L 2209 4666 
Q 3416 4666 4089 4050 
Q 4763 3434 4763 2338 
Q 4763 1238 4088 619 
Q 3413 0 2209 0 
L 353 0 
z
" transform="scale(0.015625)"/>
     </defs>
     <use xlink:href="#DejaVuSerif-52"/>
     <use xlink:href="#DejaVuSerif-44" transform="translate(75.292969 0)"/>
     <use xlink:href="#DejaVuSerif-46" transform="translate(155.46875 0)"/>
     <use xlink:href="#DejaVuSerif-20" transform="translate(224.853516 0)"/>
     <use xlink:href="#DejaVuSerif-70" transform="translate(256.640625 0)"/>
     <use xlink:href="#DejaVuSerif-72" transform="translate(320.654297 0)"/>
     <use xlink:href="#DejaVuSerif-6f" transform="translate(368.457031 0)"/>
     <use xlink:href="#DejaVuSerif-76" transform="translate(428.662109 0)"/>
     <use xlink:href="#DejaVuSerif-65" transform="translate(485.15625 0)"/>
     <use xlink:href="#DejaVuSerif-6e" transform="translate(544.335938 0)"/>
     <use xlink:href="#DejaVuSerif-61" transform="translate(608.740234 0)"/>
     <use xlink:href="#DejaVuSerif-6e" transform="translate(668.359375 0)"/>
     <use xlink:href="#DejaVuSerif-63" transform="translate(732.763672 0)"/>
     <use xlink:href="#DejaVuSerif-65" transform="translate(788.769531 0)"/>
     <use xlink:href="#DejaVuSerif-20" transform="translate(847.949219 0)"/>
     <use xlink:href="#DejaVuSerif-67" transform="translate(879.736328 0)"/>
     <use xlink:href="#DejaVuSerif-72" transform="translate(943.75 0)"/>
     <use xlink:href="#DejaVuSerif-61" transform="translate(991.552734 0)"/>
     <use xlink:href="#DejaVuSerif-70" transform="translate(1051.171875 0)"/>
     <use xlink:href="#DejaVuSerif-68" transform="translate(1115.185547 0)"/>
    </g>
    <!-- SPARQL query -->
    <g style="fill: #122029" transform="translate(876.17475 171.683437) scale(0.09 -0.09)">
     <defs>
      <path id="DejaVuSerif-51" d="M 2700 -91 
Q 1628 -91 993 567 
Q 359 1225 359 2328 
Q 359 2894 529 3339 
Q 700 3784 1050 4134 
Q 1356 4441 1750 4595 
Q 2144 4750 2625 4750 
Q 3641 4750 4266 4084 
Q 4891 3419 4891 2328 
Q 4891 1403 4422 773 
Q 3953 144 3128 -38 
Q 3297 -247 3539 -347 
Q 3781 -447 4122 -447 
L 4219 -447 
L 4219 -1025 
Q 3691 -1000 3314 -767 
Q 2938 -534 2700 -91 
z
M 2625 244 
Q 3391 244 3781 770 
Q 4172 1297 4172 2328 
Q 4172 3363 3781 3889 
Q 3391 4416 2625 4416 
Q 1856 4416 1465 3889 
Q 1075 3363 1075 2328 
Q 1075 1297 1465 770 
Q 1856 244 2625 244 
z
" transform="scale(0.015625)"/>
      <path id="DejaVuSerif-71" d="M 3359 2988 
L 3359 -997 
L 3909 -997 
L 3909 -1331 
L 2241 -1331 
L 2241 -997 
L 2784 -997 
L 2784 519 
Q 2616 206 2355 57 
Q 2094 -91 1709 -91 
Q 1097 -91 708 395 
Q 319 881 319 1663 
Q 319 2444 706 2928 
Q 1094 3413 1709 3413 
Q 2094 3413 2355 3264 
Q 2616 3116 2784 2803 
L 2784 3322 
L 3909 3322 
L 3909 2988 
L 3359 2988 
z
M 2784 1825 
Q 2784 2422 2554 2737 
Q 2325 3053 1888 3053 
Q 1444 3053 1217 2703 
Q 991 2353 991 1663 
Q 991 975 1217 622 
Q 1444 269 1888 269 
Q 2325 269 2554 583 
Q 2784 897 2784 1497 
L 2784 1825 
z
" transform="scale(0.015625)"/>
     </defs>
     <use xlink:href="#DejaVuSerif-53"/>
     <use xlink:href="#DejaVuSerif-50" transform="translate(68.505859 0)"/>
     <use xlink:href="#DejaVuSerif-41" transform="translate(126.666016 0)"/>
     <use xlink:href="#DejaVuSerif-52" transform="translate(198.882812 0)"/>
     <use xlink:href="#DejaVuSerif-51" transform="translate(274.175781 0)"/>
     <use xlink:href="#DejaVuSerif-4c" transform="translate(356.158203 0)"/>
     <use xlink:href="#DejaVuSerif-20" transform="translate(422.564453 0)"/>
     <use xlink:href="#DejaVuSerif-71" transform="translate(454.351562 0)"/>
     <use xlink:href="#DejaVuSerif-75" transform="translate(518.365234 0)"/>
     <use xlink:href="#DejaVuSerif-65" transform="translate(582.769531 0)"/>
     <use xlink:href="#DejaVuSerif-72" transform="translate(641.949219 0)"/>
     <use xlink:href="#DejaVuSerif-79" transform="translate(689.751953 0)"/>
    </g>
    <!-- audit evidence -->
    <g style="fill: #122029" transform="translate(876.344906 181.889437) scale(0.09 -0.09)">
     <use xlink:href="#DejaVuSerif-61"/>
     <use xlink:href="#DejaVuSerif-75" transform="translate(59.619141 0)"/>
     <use xlink:href="#DejaVuSerif-64" transform="translate(124.023438 0)"/>
     <use xlink:href="#DejaVuSerif-69" transform="translate(188.037109 0)"/>
     <use xlink:href="#DejaVuSerif-74" transform="translate(220.019531 0)"/>
     <use xlink:href="#DejaVuSerif-20" transform="translate(260.205078 0)"/>
     <use xlink:href="#DejaVuSerif-65" transform="translate(291.992188 0)"/>
     <use xlink:href="#DejaVuSerif-76" transform="translate(351.171875 0)"/>
     <use xlink:href="#DejaVuSerif-69" transform="translate(407.666016 0)"/>
     <use xlink:href="#DejaVuSerif-64" transform="translate(439.648438 0)"/>
     <use xlink:href="#DejaVuSerif-65" transform="translate(503.662109 0)"/>
     <use xlink:href="#DejaVuSerif-6e" transform="translate(562.841797 0)"/>
     <use xlink:href="#DejaVuSerif-63" transform="translate(627.246094 0)"/>
     <use xlink:href="#DejaVuSerif-65" transform="translate(683.251953 0)"/>
    </g>
   </g>
   <g id="text_13">
    <!-- Pre-join Network Checks -->
    <g style="fill: #122029" transform="translate(371.487094 62.318437) scale(0.1 -0.1)">
     <defs>
      <path id="DejaVuSerif-Bold-50" d="M 300 0 
L 300 378 
L 897 378 
L 897 4288 
L 300 4288 
L 300 4666 
L 2956 4666 
Q 3734 4666 4193 4295 
Q 4653 3925 4653 3303 
Q 4653 2678 4192 2304 
Q 3731 1931 2956 1931 
L 2100 1931 
L 2100 378 
L 2853 378 
L 2853 0 
L 300 0 
z
M 2100 2309 
L 2450 2309 
Q 2856 2309 3098 2579 
Q 3341 2850 3341 3303 
Q 3341 3753 3100 4020 
Q 2859 4288 2450 4288 
L 2100 4288 
L 2100 2309 
z
" transform="scale(0.015625)"/>
      <path id="DejaVuSerif-Bold-2d" d="M 347 2138 
L 2309 2138 
L 2309 1294 
L 347 1294 
L 347 2138 
z
" transform="scale(0.015625)"/>
      <path id="DejaVuSerif-Bold-6a" d="M 556 4263 
Q 556 4516 729 4689 
Q 903 4863 1159 4863 
Q 1403 4863 1578 4688 
Q 1753 4513 1753 4263 
Q 1753 4016 1579 3842 
Q 1406 3669 1159 3669 
Q 906 3669 731 3841 
Q 556 4013 556 4263 
z
M 684 2944 
L 213 2944 
L 213 3322 
L 1791 3322 
L 1791 -391 
Q 1791 -900 1430 -1161 
Q 1069 -1422 366 -1422 
Q 178 -1422 -34 -1390 
Q -247 -1359 -475 -1300 
L -475 -594 
L -122 -597 
Q -116 -847 -23 -958 
Q 69 -1069 275 -1069 
Q 503 -1069 593 -922 
Q 684 -775 684 -391 
L 684 2944 
z
" transform="scale(0.015625)"/>
      <path id="DejaVuSerif-Bold-4e" d="M 281 0 
L 281 378 
L 878 378 
L 878 4288 
L 281 4288 
L 281 4666 
L 1741 4666 
L 4556 1363 
L 4556 4288 
L 3963 4288 
L 3963 4666 
L 5594 4666 
L 5594 4288 
L 4997 4288 
L 4997 0 
L 4178 0 
L 1319 3372 
L 1319 378 
L 1913 378 
L 1913 0 
L 281 0 
z
" transform="scale(0.015625)"/>
      <path id="DejaVuSerif-Bold-77" d="M 3450 3322 
L 4206 1106 
L 4831 2944 
L 4397 2944 
L 4397 3322 
L 5638 3322 
L 5638 2944 
L 5247 2944 
L 4244 0 
L 3481 0 
L 2778 2081 
L 2069 0 
L 1313 0 
L 306 2944 
L -56 2944 
L -56 3322 
L 1825 3322 
L 1825 2944 
L 1434 2944 
L 2047 1147 
L 2791 3322 
L 3450 3322 
z
" transform="scale(0.015625)"/>
      <path id="DejaVuSerif-Bold-6b" d="M 2216 0 
L 219 0 
L 219 378 
L 691 378 
L 691 4488 
L 219 4488 
L 219 4863 
L 1797 4863 
L 1797 1741 
L 3138 2944 
L 2741 2944 
L 2741 3322 
L 4256 3322 
L 4256 2944 
L 3641 2944 
L 2784 2175 
L 4184 378 
L 4544 378 
L 4544 0 
L 2638 0 
L 2638 378 
L 3028 378 
L 2106 1563 
L 1797 1288 
L 1797 378 
L 2216 378 
L 2216 0 
z
" transform="scale(0.015625)"/>
     </defs>
     <use xlink:href="#DejaVuSerif-Bold-50"/>
     <use xlink:href="#DejaVuSerif-Bold-72" transform="translate(75.195312 0)"/>
     <use xlink:href="#DejaVuSerif-Bold-65" transform="translate(127.880859 0)"/>
     <use xlink:href="#DejaVuSerif-Bold-2d" transform="translate(191.503906 0)"/>
     <use xlink:href="#DejaVuSerif-Bold-6a" transform="translate(233.007812 0)"/>
     <use xlink:href="#DejaVuSerif-Bold-6f" transform="translate(269.189453 0)"/>
     <use xlink:href="#DejaVuSerif-Bold-69" transform="translate(335.888672 0)"/>
     <use xlink:href="#DejaVuSerif-Bold-6e" transform="translate(373.876953 0)"/>
     <use xlink:href="#DejaVuSerif-Bold-20" transform="translate(446.582031 0)"/>
     <use xlink:href="#DejaVuSerif-Bold-4e" transform="translate(481.396484 0)"/>
     <use xlink:href="#DejaVuSerif-Bold-65" transform="translate(572.802734 0)"/>
     <use xlink:href="#DejaVuSerif-Bold-74" transform="translate(636.425781 0)"/>
     <use xlink:href="#DejaVuSerif-Bold-77" transform="translate(682.617188 0)"/>
     <use xlink:href="#DejaVuSerif-Bold-6f" transform="translate(768.701172 0)"/>
     <use xlink:href="#DejaVuSerif-Bold-72" transform="translate(835.400391 0)"/>
     <use xlink:href="#DejaVuSerif-Bold-6b" transform="translate(888.085938 0)"/>
     <use xlink:href="#DejaVuSerif-Bold-20" transform="translate(957.373047 0)"/>
     <use xlink:href="#DejaVuSerif-Bold-43" transform="translate(992.1875 0)"/>
     <use xlink:href="#DejaVuSerif-Bold-68" transform="translate(1071.777344 0)"/>
     <use xlink:href="#DejaVuSerif-Bold-65" transform="translate(1144.482422 0)"/>
     <use xlink:href="#DejaVuSerif-Bold-63" transform="translate(1208.105469 0)"/>
     <use xlink:href="#DejaVuSerif-Bold-6b" transform="translate(1268.994141 0)"/>
     <use xlink:href="#DejaVuSerif-Bold-73" transform="translate(1338.28125 0)"/>
    </g>
   </g>
   <g id="text_14">
    <!-- network profile match -->
    <g style="fill: #122029" transform="translate(396.065375 65.1355) scale(0.08 -0.08)">
     <defs>
      <path id="DejaVuSerif-66" d="M 2753 4078 
L 2450 4078 
Q 2447 4313 2317 4434 
Q 2188 4556 1941 4556 
Q 1619 4556 1487 4379 
Q 1356 4203 1356 3750 
L 1356 3322 
L 2284 3322 
L 2284 2988 
L 1356 2988 
L 1356 331 
L 2094 331 
L 2094 0 
L 231 0 
L 231 331 
L 781 331 
L 781 2988 
L 231 2988 
L 231 3322 
L 781 3322 
L 781 3738 
Q 781 4294 1070 4578 
Q 1359 4863 1919 4863 
Q 2128 4863 2337 4825 
Q 2547 4788 2753 4709 
L 2753 4078 
z
" transform="scale(0.015625)"/>
     </defs>
     <use xlink:href="#DejaVuSerif-6e"/>
     <use xlink:href="#DejaVuSerif-65" transform="translate(64.404297 0)"/>
     <use xlink:href="#DejaVuSerif-74" transform="translate(123.583984 0)"/>
     <use xlink:href="#DejaVuSerif-77" transform="translate(163.769531 0)"/>
     <use xlink:href="#DejaVuSerif-6f" transform="translate(249.365234 0)"/>
     <use xlink:href="#DejaVuSerif-72" transform="translate(309.570312 0)"/>
     <use xlink:href="#DejaVuSerif-6b" transform="translate(357.373047 0)"/>
     <use xlink:href="#DejaVuSerif-20" transform="translate(417.96875 0)"/>
     <use xlink:href="#DejaVuSerif-70" transform="translate(449.755859 0)"/>
     <use xlink:href="#DejaVuSerif-72" transform="translate(513.769531 0)"/>
     <use xlink:href="#DejaVuSerif-6f" transform="translate(561.572266 0)"/>
     <use xlink:href="#DejaVuSerif-66" transform="translate(621.777344 0)"/>
     <use xlink:href="#DejaVuSerif-69" transform="translate(658.789062 0)"/>
     <use xlink:href="#DejaVuSerif-6c" transform="translate(690.771484 0)"/>
     <use xlink:href="#DejaVuSerif-65" transform="translate(722.753906 0)"/>
     <use xlink:href="#DejaVuSerif-20" transform="translate(781.933594 0)"/>
     <use xlink:href="#DejaVuSerif-6d" transform="translate(813.720703 0)"/>
     <use xlink:href="#DejaVuSerif-61" transform="translate(908.544922 0)"/>
     <use xlink:href="#DejaVuSerif-74" transform="translate(968.164062 0)"/>
     <use xlink:href="#DejaVuSerif-63" transform="translate(1008.349609 0)"/>
     <use xlink:href="#DejaVuSerif-68" transform="translate(1064.355469 0)"/>
    </g>
    <!-- ontology package match -->
    <g style="fill: #122029" transform="translate(391.641 74.09375) scale(0.08 -0.08)">
     <use xlink:href="#DejaVuSerif-6f"/>
     <use xlink:href="#DejaVuSerif-6e" transform="translate(60.205078 0)"/>
     <use xlink:href="#DejaVuSerif-74" transform="translate(124.609375 0)"/>
     <use xlink:href="#DejaVuSerif-6f" transform="translate(164.794922 0)"/>
     <use xlink:href="#DejaVuSerif-6c" transform="translate(225 0)"/>
     <use xlink:href="#DejaVuSerif-6f" transform="translate(256.982422 0)"/>
     <use xlink:href="#DejaVuSerif-67" transform="translate(317.1875 0)"/>
     <use xlink:href="#DejaVuSerif-79" transform="translate(381.201172 0)"/>
     <use xlink:href="#DejaVuSerif-20" transform="translate(437.695312 0)"/>
     <use xlink:href="#DejaVuSerif-70" transform="translate(469.482422 0)"/>
     <use xlink:href="#DejaVuSerif-61" transform="translate(533.496094 0)"/>
     <use xlink:href="#DejaVuSerif-63" transform="translate(593.115234 0)"/>
     <use xlink:href="#DejaVuSerif-6b" transform="translate(649.121094 0)"/>
     <use xlink:href="#DejaVuSerif-61" transform="translate(709.716797 0)"/>
     <use xlink:href="#DejaVuSerif-67" transform="translate(769.335938 0)"/>
     <use xlink:href="#DejaVuSerif-65" transform="translate(833.349609 0)"/>
     <use xlink:href="#DejaVuSerif-20" transform="translate(892.529297 0)"/>
     <use xlink:href="#DejaVuSerif-6d" transform="translate(924.316406 0)"/>
     <use xlink:href="#DejaVuSerif-61" transform="translate(1019.140625 0)"/>
     <use xlink:href="#DejaVuSerif-74" transform="translate(1078.759766 0)"/>
     <use xlink:href="#DejaVuSerif-63" transform="translate(1118.945312 0)"/>
     <use xlink:href="#DejaVuSerif-68" transform="translate(1174.951172 0)"/>
    </g>
    <!-- semantic contract compatibility -->
    <g style="fill: #122029" transform="translate(376.856 83.16575) scale(0.08 -0.08)">
     <use xlink:href="#DejaVuSerif-73"/>
     <use xlink:href="#DejaVuSerif-65" transform="translate(51.318359 0)"/>
     <use xlink:href="#DejaVuSerif-6d" transform="translate(110.498047 0)"/>
     <use xlink:href="#DejaVuSerif-61" transform="translate(205.322266 0)"/>
     <use xlink:href="#DejaVuSerif-6e" transform="translate(264.941406 0)"/>
     <use xlink:href="#DejaVuSerif-74" transform="translate(329.345703 0)"/>
     <use xlink:href="#DejaVuSerif-69" transform="translate(369.53125 0)"/>
     <use xlink:href="#DejaVuSerif-63" transform="translate(401.513672 0)"/>
     <use xlink:href="#DejaVuSerif-20" transform="translate(457.519531 0)"/>
     <use xlink:href="#DejaVuSerif-63" transform="translate(489.306641 0)"/>
     <use xlink:href="#DejaVuSerif-6f" transform="translate(545.3125 0)"/>
     <use xlink:href="#DejaVuSerif-6e" transform="translate(605.517578 0)"/>
     <use xlink:href="#DejaVuSerif-74" transform="translate(669.921875 0)"/>
     <use xlink:href="#DejaVuSerif-72" transform="translate(710.107422 0)"/>
     <use xlink:href="#DejaVuSerif-61" transform="translate(757.910156 0)"/>
     <use xlink:href="#DejaVuSerif-63" transform="translate(817.529297 0)"/>
     <use xlink:href="#DejaVuSerif-74" transform="translate(873.535156 0)"/>
     <use xlink:href="#DejaVuSerif-20" transform="translate(913.720703 0)"/>
     <use xlink:href="#DejaVuSerif-63" transform="translate(945.507812 0)"/>
     <use xlink:href="#DejaVuSerif-6f" transform="translate(1001.513672 0)"/>
     <use xlink:href="#DejaVuSerif-6d" transform="translate(1061.71875 0)"/>
     <use xlink:href="#DejaVuSerif-70" transform="translate(1156.542969 0)"/>
     <use xlink:href="#DejaVuSerif-61" transform="translate(1220.556641 0)"/>
     <use xlink:href="#DejaVuSerif-74" transform="translate(1280.175781 0)"/>
     <use xlink:href="#DejaVuSerif-69" transform="translate(1320.361328 0)"/>
     <use xlink:href="#DejaVuSerif-62" transform="translate(1352.34375 0)"/>
     <use xlink:href="#DejaVuSerif-69" transform="translate(1416.357422 0)"/>
     <use xlink:href="#DejaVuSerif-6c" transform="translate(1448.339844 0)"/>
     <use xlink:href="#DejaVuSerif-69" transform="translate(1480.322266 0)"/>
     <use xlink:href="#DejaVuSerif-74" transform="translate(1512.304688 0)"/>
     <use xlink:href="#DejaVuSerif-79" transform="translate(1552.490234 0)"/>
    </g>
   </g>
   <g id="text_15">
    <!-- Optional GS1/EPCIS mappings are consumed inside the shared ontology contract layer when a network requires them. -->
    <g style="fill: #39434d" transform="translate(197.686719 285.288281) scale(0.1 -0.1)">
     <defs>
      <path id="DejaVuSerif-47" d="M 4097 3272 
Q 3988 3856 3641 4136 
Q 3294 4416 2675 4416 
Q 1869 4416 1472 3897 
Q 1075 3378 1075 2328 
Q 1075 1300 1484 772 
Q 1894 244 2688 244 
Q 3041 244 3362 331 
Q 3684 419 3975 594 
L 3975 1797 
L 3097 1797 
L 3097 2131 
L 4609 2131 
L 4609 391 
Q 4194 150 3714 29 
Q 3234 -91 2688 -91 
Q 1631 -91 995 570 
Q 359 1231 359 2328 
Q 359 3434 996 4092 
Q 1634 4750 2713 4750 
Q 3113 4750 3539 4658 
Q 3966 4566 4447 4378 
L 4447 3272 
L 4097 3272 
z
" transform="scale(0.015625)"/>
      <path id="DejaVuSerif-31" d="M 909 0 
L 909 331 
L 1722 331 
L 1722 4213 
L 781 3603 
L 781 4013 
L 1919 4750 
L 2350 4750 
L 2350 331 
L 3163 331 
L 3163 0 
L 909 0 
z
" transform="scale(0.015625)"/>
      <path id="DejaVuSerif-49" d="M 1581 331 
L 2175 331 
L 2175 0 
L 353 0 
L 353 331 
L 947 331 
L 947 4331 
L 353 4331 
L 353 4666 
L 2175 4666 
L 2175 4331 
L 1581 4331 
L 1581 331 
z
" transform="scale(0.015625)"/>
      <path id="DejaVuSerif-2e" d="M 603 325 
Q 603 500 722 622 
Q 841 744 1019 744 
Q 1191 744 1312 622 
Q 1434 500 1434 325 
Q 1434 153 1312 31 
Q 1191 -91 1019 -91 
Q 841 -91 722 29 
Q 603 150 603 325 
z
" transform="scale(0.015625)"/>
     </defs>
     <use xlink:href="#DejaVuSerif-4f"/>
     <use xlink:href="#DejaVuSerif-70" transform="translate(81.982422 0)"/>
     <use xlink:href="#DejaVuSerif-74" transform="translate(145.996094 0)"/>
     <use xlink:href="#DejaVuSerif-69" transform="translate(186.181641 0)"/>
     <use xlink:href="#DejaVuSerif-6f" transform="translate(218.164062 0)"/>
     <use xlink:href="#DejaVuSerif-6e" transform="translate(278.369141 0)"/>
     <use xlink:href="#DejaVuSerif-61" transform="translate(342.773438 0)"/>
     <use xlink:href="#DejaVuSerif-6c" transform="translate(402.392578 0)"/>
     <use xlink:href="#DejaVuSerif-20" transform="translate(434.375 0)"/>
     <use xlink:href="#DejaVuSerif-47" transform="translate(466.162109 0)"/>
     <use xlink:href="#DejaVuSerif-53" transform="translate(546.044922 0)"/>
     <use xlink:href="#DejaVuSerif-31" transform="translate(614.550781 0)"/>
     <use xlink:href="#DejaVuSerif-2f" transform="translate(678.173828 0)"/>
     <use xlink:href="#DejaVuSerif-45" transform="translate(711.865234 0)"/>
     <use xlink:href="#DejaVuSerif-50" transform="translate(784.863281 0)"/>
     <use xlink:href="#DejaVuSerif-43" transform="translate(852.148438 0)"/>
     <use xlink:href="#DejaVuSerif-49" transform="translate(928.662109 0)"/>
     <use xlink:href="#DejaVuSerif-53" transform="translate(968.164062 0)"/>
     <use xlink:href="#DejaVuSerif-20" transform="translate(1036.669922 0)"/>
     <use xlink:href="#DejaVuSerif-6d" transform="translate(1068.457031 0)"/>
     <use xlink:href="#DejaVuSerif-61" transform="translate(1163.28125 0)"/>
     <use xlink:href="#DejaVuSerif-70" transform="translate(1222.900391 0)"/>
     <use xlink:href="#DejaVuSerif-70" transform="translate(1286.914062 0)"/>
     <use xlink:href="#DejaVuSerif-69" transform="translate(1350.927734 0)"/>
     <use xlink:href="#DejaVuSerif-6e" transform="translate(1382.910156 0)"/>
     <use xlink:href="#DejaVuSerif-67" transform="translate(1447.314453 0)"/>
     <use xlink:href="#DejaVuSerif-73" transform="translate(1511.328125 0)"/>
     <use xlink:href="#DejaVuSerif-20" transform="translate(1562.646484 0)"/>
     <use xlink:href="#DejaVuSerif-61" transform="translate(1594.433594 0)"/>
     <use xlink:href="#DejaVuSerif-72" transform="translate(1654.052734 0)"/>
     <use xlink:href="#DejaVuSerif-65" transform="translate(1701.855469 0)"/>
     <use xlink:href="#DejaVuSerif-20" transform="translate(1761.035156 0)"/>
     <use xlink:href="#DejaVuSerif-63" transform="translate(1792.822266 0)"/>
     <use xlink:href="#DejaVuSerif-6f" transform="translate(1848.828125 0)"/>
     <use xlink:href="#DejaVuSerif-6e" transform="translate(1909.033203 0)"/>
     <use xlink:href="#DejaVuSerif-73" transform="translate(1973.4375 0)"/>
     <use xlink:href="#DejaVuSerif-75" transform="translate(2024.755859 0)"/>
     <use xlink:href="#DejaVuSerif-6d" transform="translate(2089.160156 0)"/>
     <use xlink:href="#DejaVuSerif-65" transform="translate(2183.984375 0)"/>
     <use xlink:href="#DejaVuSerif-64" transform="translate(2243.164062 0)"/>
     <use xlink:href="#DejaVuSerif-20" transform="translate(2307.177734 0)"/>
     <use xlink:href="#DejaVuSerif-69" transform="translate(2338.964844 0)"/>
     <use xlink:href="#DejaVuSerif-6e" transform="translate(2370.947266 0)"/>
     <use xlink:href="#DejaVuSerif-73" transform="translate(2435.351562 0)"/>
     <use xlink:href="#DejaVuSerif-69" transform="translate(2486.669922 0)"/>
     <use xlink:href="#DejaVuSerif-64" transform="translate(2518.652344 0)"/>
     <use xlink:href="#DejaVuSerif-65" transform="translate(2582.666016 0)"/>
     <use xlink:href="#DejaVuSerif-20" transform="translate(2641.845703 0)"/>
     <use xlink:href="#DejaVuSerif-74" transform="translate(2673.632812 0)"/>
     <use xlink:href="#DejaVuSerif-68" transform="translate(2713.818359 0)"/>
     <use xlink:href="#DejaVuSerif-65" transform="translate(2778.222656 0)"/>
     <use xlink:href="#DejaVuSerif-20" transform="translate(2837.402344 0)"/>
     <use xlink:href="#DejaVuSerif-73" transform="translate(2869.189453 0)"/>
     <use xlink:href="#DejaVuSerif-68" transform="translate(2920.507812 0)"/>
     <use xlink:href="#DejaVuSerif-61" transform="translate(2984.912109 0)"/>
     <use xlink:href="#DejaVuSerif-72" transform="translate(3044.53125 0)"/>
     <use xlink:href="#DejaVuSerif-65" transform="translate(3092.333984 0)"/>
     <use xlink:href="#DejaVuSerif-64" transform="translate(3151.513672 0)"/>
     <use xlink:href="#DejaVuSerif-20" transform="translate(3215.527344 0)"/>
     <use xlink:href="#DejaVuSerif-6f" transform="translate(3247.314453 0)"/>
     <use xlink:href="#DejaVuSerif-6e" transform="translate(3307.519531 0)"/>
     <use xlink:href="#DejaVuSerif-74" transform="translate(3371.923828 0)"/>
     <use xlink:href="#DejaVuSerif-6f" transform="translate(3412.109375 0)"/>
     <use xlink:href="#DejaVuSerif-6c" transform="translate(3472.314453 0)"/>
     <use xlink:href="#DejaVuSerif-6f" transform="translate(3504.296875 0)"/>
     <use xlink:href="#DejaVuSerif-67" transform="translate(3564.501953 0)"/>
     <use xlink:href="#DejaVuSerif-79" transform="translate(3628.515625 0)"/>
     <use xlink:href="#DejaVuSerif-20" transform="translate(3685.009766 0)"/>
     <use xlink:href="#DejaVuSerif-63" transform="translate(3716.796875 0)"/>
     <use xlink:href="#DejaVuSerif-6f" transform="translate(3772.802734 0)"/>
     <use xlink:href="#DejaVuSerif-6e" transform="translate(3833.007812 0)"/>
     <use xlink:href="#DejaVuSerif-74" transform="translate(3897.412109 0)"/>
     <use xlink:href="#DejaVuSerif-72" transform="translate(3937.597656 0)"/>
     <use xlink:href="#DejaVuSerif-61" transform="translate(3985.400391 0)"/>
     <use xlink:href="#DejaVuSerif-63" transform="translate(4045.019531 0)"/>
     <use xlink:href="#DejaVuSerif-74" transform="translate(4101.025391 0)"/>
     <use xlink:href="#DejaVuSerif-20" transform="translate(4141.210938 0)"/>
     <use xlink:href="#DejaVuSerif-6c" transform="translate(4172.998047 0)"/>
     <use xlink:href="#DejaVuSerif-61" transform="translate(4204.980469 0)"/>
     <use xlink:href="#DejaVuSerif-79" transform="translate(4264.599609 0)"/>
     <use xlink:href="#DejaVuSerif-65" transform="translate(4321.09375 0)"/>
     <use xlink:href="#DejaVuSerif-72" transform="translate(4380.273438 0)"/>
     <use xlink:href="#DejaVuSerif-20" transform="translate(4428.076172 0)"/>
     <use xlink:href="#DejaVuSerif-77" transform="translate(4459.863281 0)"/>
     <use xlink:href="#DejaVuSerif-68" transform="translate(4545.458984 0)"/>
     <use xlink:href="#DejaVuSerif-65" transform="translate(4609.863281 0)"/>
     <use xlink:href="#DejaVuSerif-6e" transform="translate(4669.042969 0)"/>
     <use xlink:href="#DejaVuSerif-20" transform="translate(4733.447266 0)"/>
     <use xlink:href="#DejaVuSerif-61" transform="translate(4765.234375 0)"/>
     <use xlink:href="#DejaVuSerif-20" transform="translate(4824.853516 0)"/>
     <use xlink:href="#DejaVuSerif-6e" transform="translate(4856.640625 0)"/>
     <use xlink:href="#DejaVuSerif-65" transform="translate(4921.044922 0)"/>
     <use xlink:href="#DejaVuSerif-74" transform="translate(4980.224609 0)"/>
     <use xlink:href="#DejaVuSerif-77" transform="translate(5020.410156 0)"/>
     <use xlink:href="#DejaVuSerif-6f" transform="translate(5106.005859 0)"/>
     <use xlink:href="#DejaVuSerif-72" transform="translate(5166.210938 0)"/>
     <use xlink:href="#DejaVuSerif-6b" transform="translate(5214.013672 0)"/>
     <use xlink:href="#DejaVuSerif-20" transform="translate(5274.609375 0)"/>
     <use xlink:href="#DejaVuSerif-72" transform="translate(5306.396484 0)"/>
     <use xlink:href="#DejaVuSerif-65" transform="translate(5354.199219 0)"/>
     <use xlink:href="#DejaVuSerif-71" transform="translate(5413.378906 0)"/>
     <use xlink:href="#DejaVuSerif-75" transform="translate(5477.392578 0)"/>
     <use xlink:href="#DejaVuSerif-69" transform="translate(5541.796875 0)"/>
     <use xlink:href="#DejaVuSerif-72" transform="translate(5573.779297 0)"/>
     <use xlink:href="#DejaVuSerif-65" transform="translate(5621.582031 0)"/>
     <use xlink:href="#DejaVuSerif-73" transform="translate(5680.761719 0)"/>
     <use xlink:href="#DejaVuSerif-20" transform="translate(5732.080078 0)"/>
     <use xlink:href="#DejaVuSerif-74" transform="translate(5763.867188 0)"/>
     <use xlink:href="#DejaVuSerif-68" transform="translate(5804.052734 0)"/>
     <use xlink:href="#DejaVuSerif-65" transform="translate(5868.457031 0)"/>
     <use xlink:href="#DejaVuSerif-6d" transform="translate(5927.636719 0)"/>
     <use xlink:href="#DejaVuSerif-2e" transform="translate(6022.460938 0)"/>
    </g>
   </g>
  </g>
 </g>
 <defs>
  <clipPath id="p8034d7ca83">
   <rect x="7.2" y="7.2" width="986.4" height="324"/>
  </clipPath>
 </defs>
</svg>
